<svg xmlns="http://www.w3.org/2000/svg" xmlns:xlink="http://www.w3.org/1999/xlink" viewBox="0 0 816 816"><defs><style>.cls-1{fill:url(#linear-gradient);}.cls-2{fill:#a7a9ac;}.cls-3{fill:#d1d3d4;}.cls-4{fill:#808285;}.cls-5{fill:#58595b;}.cls-10,.cls-11,.cls-12,.cls-13,.cls-6,.cls-7,.cls-8{fill:#fff;}.cls-11,.cls-7,.cls-8{isolation:isolate;}.cls-7{opacity:0.4;}.cls-8{opacity:0.1;}.cls-9{fill:#e5e5e5;}.cls-10{font-size:36px;font-family:Oswald-Light, Oswald;font-weight:300;}.cls-11{font-size:65px;letter-spacing:0.08em;}.cls-11,.cls-12{font-family:Oswald-Regular, Oswald;}.cls-12,.cls-13{font-size:100px;}.cls-13{font-family:MyriadPro-Regular, Myriad Pro;}</style><linearGradient id="linear-gradient" x1="408" y1="816" x2="408" gradientUnits="userSpaceOnUse"><stop offset="0" stop-color="#ff8a00"/><stop offset="0.26" stop-color="#fe7e18"/><stop offset="0.75" stop-color="#fd6b40"/><stop offset="1" stop-color="#fd644f"/></linearGradient></defs><g id="Squared"><g id="_Rectangle_" data-name="&lt;Rectangle&gt;"><rect class="cls-1" width="816" height="816"/></g><g id="CityScape_Squared" data-name="CityScape Squared"><polygon class="cls-2" points="474.39 421.49 474.39 425.29 440.89 425.29 440.89 503.99 503.89 503.99 503.89 500.09 503.89 425.29 503.89 421.49 474.39 421.49"/><rect class="cls-2" x="576.89" y="371.59" width="46.9" height="174.9"/><rect class="cls-2" x="515.89" y="397.99" width="46.9" height="149.3"/><polygon class="cls-2" points="698.49 473.69 697.89 473.69 697.19 473.69 697.19 472.59 697.19 471.09 697.19 468.89 697.19 467.49 697.19 465.29 697.19 463.79 697.19 461.69 697.19 460.19 697.19 458.09 697.19 456.69 697.19 454.39 697.19 452.99 697.19 450.79 697.19 449.39 697.19 447.09 697.19 445.69 697.19 443.49 697.19 442.09 697.19 439.79 697.19 438.39 697.19 436.29 697.19 434.89 697.19 432.59 697.19 431.19 697.19 428.99 697.19 427.59 697.19 425.29 697.19 423.89 697.19 422.79 695.69 422.79 695.69 358.49 691.99 358.49 691.99 348.09 691.99 348.09 691.99 347.39 692.29 347.39 692.29 346.59 686.29 346.59 686.29 345.69 686.29 345.69 686.29 344.89 686.29 344.89 686.29 343.89 686.29 343.89 686.29 342.99 686.29 342.99 686.29 341.99 686.29 341.99 686.29 341.19 686.29 341.19 686.29 340.19 686.29 340.19 686.29 339.49 686.29 339.49 686.29 338.39 686.29 338.39 686.29 337.69 686.29 337.69 686.29 336.39 686.59 336.39 686.59 335.39 683.49 335.39 683.49 334.69 683.49 334.69 683.49 333.99 683.49 333.99 683.49 332.89 683.49 332.89 683.49 332.19 683.49 332.19 683.49 331.09 683.49 331.09 683.49 330.39 683.49 330.39 683.49 329.99 683.49 329.39 683.49 329.39 683.49 329.09 683.69 329.09 683.69 328.19 678.79 328.19 678.79 328.19 678.79 328.19 678.79 327.59 678.79 327.59 678.79 326.59 678.79 326.59 678.79 325.79 678.79 325.79 678.79 324.79 678.79 324.79 678.79 323.99 678.79 323.99 678.79 322.99 678.79 322.99 678.79 322.19 678.79 322.19 678.79 321.19 678.79 321.19 678.79 320.29 678.79 320.29 678.79 319.29 678.79 319.29 678.79 318.49 678.79 318.49 678.79 318.29 678.89 318.29 678.89 317.39 669.59 317.39 669.59 318.29 669.79 318.29 669.79 318.49 669.79 319.09 669.79 319.29 669.79 320.29 669.79 321.19 669.79 322.19 669.79 322.99 669.79 323.99 669.79 324.79 669.79 325.79 669.79 326.59 669.79 327.59 669.79 328.19 669.79 328.19 664.89 328.19 664.89 329.09 665.09 329.09 665.09 329.39 665.09 329.99 665.09 330.39 665.09 331.09 665.09 332.19 665.09 332.89 665.09 333.99 665.09 334.69 665.09 335.59 661.89 335.59 661.89 336.39 662.19 336.39 662.19 337.29 662.19 337.29 662.19 337.69 662.19 338.39 662.19 339.49 662.19 340.19 662.19 341.19 662.19 341.99 662.19 342.99 662.19 343.89 662.19 344.89 662.19 345.69 662.19 346.59 655.99 346.59 655.99 347.39 656.59 347.39 656.59 347.99 656.59 348.29 656.59 348.49 656.59 349.19 656.59 351.29 656.59 352.19 656.59 352.99 656.59 353.09 656.59 355.09 656.59 355.79 656.59 355.99 656.59 357.39 656.59 357.59 656.59 358.39 655.39 358.39 654.69 358.39 653.49 358.39 652.79 358.39 652.79 422.79 651.29 422.79 651.29 473.69 650.59 473.69 649.99 473.69 649.89 473.69 649.89 532.59 649.89 532.69 649.89 547.29 655.49 547.29 662.19 547.29 662.89 547.29 664.39 547.29 667.89 547.29 669.59 547.29 670.39 547.29 672.09 547.29 676.39 547.29 678.09 547.29 678.89 547.29 680.49 547.29 684.09 547.29 685.69 547.29 686.39 547.29 693.09 547.29 698.59 547.29 698.59 532.69 698.59 532.59 698.59 473.69 698.49 473.69"/><polygon class="cls-2" points="704.59 377.69 704.89 377.69 705.59 377.69 705.99 377.69 706.69 377.69 706.99 377.69 707.39 377.69 707.39 375.19 717.49 375.19 735.99 375.19 735.99 377.69 737.29 377.69 737.59 377.69 739.29 377.69 739.59 377.69 739.89 377.69 739.89 379.09 739.89 379.29 739.89 380.99 739.89 381.19 739.89 382.79 739.89 382.99 739.89 384.59 739.89 384.79 739.89 386.39 739.89 386.59 739.89 388.19 739.89 388.39 739.89 390.09 739.89 390.29 739.89 391.89 739.89 392.09 739.89 393.69 739.89 393.89 739.89 395.49 739.89 395.69 739.89 397.39 739.89 397.59 739.89 399.19 739.89 399.39 739.89 400.99 739.89 401.19 739.89 402.79 739.89 402.99 739.89 404.69 739.89 404.89 739.89 406.49 739.89 406.69 739.89 408.29 739.89 408.49 739.89 409.89 742.99 409.89 742.99 410.69 743.79 410.69 743.79 412.79 743.79 412.99 745.09 412.99 745.29 412.99 746.29 412.99 746.29 414.29 746.29 414.49 746.29 416.09 746.29 416.29 746.29 418.39 746.29 418.59 746.29 420.39 746.29 420.59 746.29 422.19 746.29 422.39 746.29 423.99 746.29 424.19 746.29 425.79 746.29 425.99 746.29 427.79 746.29 427.99 746.29 429.59 746.29 429.79 746.29 431.59 746.29 431.79 746.29 433.39 746.29 433.59 746.29 435.29 746.29 435.49 746.29 437.19 746.29 437.39 746.29 438.99 746.29 439.19 746.29 440.99 746.29 441.19 746.29 442.89 746.29 443.09 746.29 444.69 746.29 444.89 746.29 444.89 746.29 445.09 746.29 446.69 746.29 446.89 746.29 448.59 746.29 448.79 746.29 450.49 746.29 450.69 746.29 452.29 746.29 452.49 746.29 454.09 746.29 454.29 746.29 455.39 746.99 455.39 747.19 455.39 748.89 455.39 749.19 455.39 750.69 455.39 750.69 456.79 750.69 456.99 750.69 458.69 750.69 458.89 750.69 460.49 750.69 460.69 750.69 462.29 750.69 462.49 750.69 464.09 750.69 464.39 750.69 466.09 750.69 466.29 750.69 467.89 750.69 468.09 750.69 469.69 750.69 469.89 750.69 471.49 750.69 471.89 750.69 473.29 750.69 473.49 750.69 475.09 750.69 475.39 750.69 476.99 750.69 477.19 750.69 478.79 750.69 478.99 750.69 480.69 750.69 480.89 750.69 482.49 750.69 482.79 750.69 484.39 750.69 484.59 750.69 486.19 750.69 486.39 750.69 488.09 750.69 488.29 750.69 490.09 750.69 490.29 750.69 491.89 750.69 492.19 750.69 493.79 750.69 493.99 750.69 495.69 750.69 495.89 750.69 497.49 750.69 497.69 750.69 499.39 750.69 499.59 750.69 501.19 750.69 501.39 750.69 503.09 750.69 503.29 750.69 504.89 750.69 505.09 750.69 506.79 750.69 506.99 750.69 508.59 750.69 508.79 750.69 510.49 750.69 510.69 750.69 512.39 750.69 512.59 750.69 514.49 750.69 514.69 750.69 516.29 750.69 516.49 750.69 518.29 750.69 518.49 750.69 520.09 750.69 520.29 750.69 521.89 750.69 522.09 750.69 523.69 750.69 523.99 750.69 525.69 750.69 525.89 750.69 527.49 750.69 527.69 750.69 529.29 750.69 529.49 750.69 531.09 750.69 531.39 750.69 533.09 750.69 533.29 750.69 534.89 750.69 535.09 750.69 536.69 750.69 536.89 750.69 538.59 750.69 538.79 750.69 540.49 750.69 540.69 750.69 542.29 750.69 542.49 750.69 544.09 750.69 544.29 750.69 545.99 750.69 546.19 750.69 547.89 750.69 548.09 750.69 548.49 750.69 549.99 749.19 549.99 748.89 549.99 747.19 549.99 746.99 549.99 746.29 549.99 745.19 549.99 744.99 549.99 743.19 549.99 742.99 549.99 741.09 549.99 740.89 549.99 739.89 549.99 739.29 549.99 738.99 549.99 738.99 549.99 738.99 549.99 736.89 549.99 736.69 549.99 735.59 549.99 734.79 549.99 733.99 549.99 733.39 549.99 733.29 549.99 732.59 549.99 731.79 549.99 731.19 549.99 731.19 549.99 731.09 549.99 731.09 549.99 730.39 549.99 729.69 549.99 728.99 549.99 728.89 549.99 726.69 549.99 725.49 549.99 725.39 549.99 722.39 549.99 722.19 549.99 719.39 549.99 703.49 549.99 703.49 549.99 703.49 549.99 703.49 549.89 703.49 548.29 703.49 548.09 703.49 546.39 703.49 546.19 703.49 544.59 703.49 544.39 703.49 542.79 703.49 542.59 703.49 540.99 703.49 540.79 703.49 539.09 703.49 538.89 703.49 537.29 703.49 537.09 703.49 535.49 703.49 535.29 703.49 533.69 703.49 533.49 703.49 531.79 703.49 531.59 703.49 529.99 703.49 529.79 703.49 528.19 703.49 527.99 703.49 526.39 703.49 526.19 703.49 524.49 703.49 524.29 703.49 522.69 703.49 522.49 703.49 520.89 703.49 520.69 703.49 519.09 703.49 518.89 703.49 517.89 703.49 517.69 703.49 515.99 703.49 515.79 703.49 514.19 703.49 513.99 703.49 512.39 703.49 512.19 703.49 510.59 703.49 510.59 703.49 510.39 703.49 508.69 703.49 508.49 703.49 506.89 703.49 506.69 703.49 505.09 703.49 504.89 703.49 503.29 703.49 503.09 703.49 501.39 703.49 501.19 703.49 499.59 703.49 499.39 703.49 497.79 703.49 497.59 703.49 495.99 703.49 495.79 703.49 494.09 703.49 493.89 703.49 492.29 703.49 492.09 703.49 490.49 703.49 490.29 703.49 488.69 703.49 488.49 703.49 486.79 703.49 486.59 703.49 484.99 703.49 484.79 703.49 483.19 703.49 482.99 703.49 481.39 703.49 481.19 703.49 479.59 703.49 479.39 703.49 477.69 703.49 477.49 703.49 475.89 703.49 475.69 703.49 474.19 703.49 473.89 703.49 472.39 703.49 472.19 703.49 470.49 703.49 470.29 703.49 468.69 703.49 468.49 703.49 466.89 703.49 466.69 703.49 465.09 703.49 464.89 703.49 463.19 703.49 462.99 703.49 461.39 703.49 461.19 703.49 459.59 703.49 459.39 703.49 457.79 703.49 457.59 703.49 455.89 703.49 455.69 703.49 454.09 703.49 453.89 703.49 452.29 703.49 452.09 703.49 450.49 703.49 450.29 703.49 448.59 703.49 448.39 703.49 447.79 703.49 446.79 703.49 446.59 703.49 444.99 703.49 444.79 703.49 443.19 703.49 442.99 703.49 441.29 703.49 441.09 703.49 439.49 703.49 439.29 703.49 437.69 703.49 437.49 703.49 435.89 703.49 435.69 703.49 434.09 703.49 433.79 703.49 432.19 703.49 431.99 703.49 430.39 703.49 430.19 703.49 428.59 703.49 428.39 703.49 426.79 703.49 426.59 703.49 424.89 703.49 424.69 703.49 423.09 703.49 422.89 703.49 421.29 703.49 421.09 703.49 419.49 703.49 419.29 703.49 417.59 703.49 417.39 703.49 415.79 703.49 415.59 703.49 413.99 703.49 413.79 703.49 412.19 703.49 411.99 703.49 410.29 703.49 410.09 703.49 408.49 703.49 408.29 703.49 406.69 703.49 406.49 703.49 404.89 703.49 404.69 703.49 402.99 703.49 402.79 703.49 401.19 703.49 400.99 703.49 399.39 703.49 399.19 703.49 397.59 703.49 397.39 703.49 395.69 703.49 395.49 703.49 393.89 703.49 393.69 703.49 392.09 703.49 391.89 703.49 390.29 703.49 390.09 703.49 388.39 703.49 388.19 703.49 386.59 703.49 386.39 703.49 384.79 703.49 384.59 703.49 382.99 703.49 382.79 703.49 381.19 703.49 380.99 703.49 379.29 703.49 379.09 703.49 377.69 703.49 377.69 704.59 377.69"/><polygon class="cls-2" points="415.39 350.59 415.39 350.59 415.19 350.59 415.19 350.59 414.59 350.59 414.59 350.59 414.19 350.59 414.19 350.59 413.59 350.59 413.59 350.59 413.39 350.59 413.39 350.59 411.59 350.59 411.39 350.59 409.49 350.59 409.49 350.59 409.29 350.59 409.29 350.59 408.69 350.59 408.69 350.59 408.69 348.29 406.89 348.29 406.89 348.09 407.19 348.09 407.19 347.79 406.49 347.79 406.49 348.09 406.79 348.09 406.79 348.29 393.79 348.29 393.59 348.29 393.59 347.09 392.19 347.09 392.19 348.29 391.79 348.29 391.79 347.79 389.99 347.79 389.99 348.29 389.09 348.29 389.09 347.79 387.49 347.79 387.49 348.29 384.49 348.29 384.49 350.59 384.49 350.59 383.59 350.59 383.59 350.59 383.39 350.59 383.39 350.59 383.09 350.59 382.59 350.59 381.89 350.59 381.89 350.59 381.69 350.59 381.69 350.59 381.59 350.59 380.89 350.59 380.49 350.59 380.09 350.59 380.09 350.59 379.89 350.59 379.89 350.59 379.79 350.59 378.89 350.59 378.89 350.59 378.49 350.59 378.49 350.59 378.29 350.59 378.29 352.89 378.29 353.29 378.29 354.09 378.29 354.29 378.29 355.39 378.29 355.79 378.29 356.79 378.29 356.99 378.29 358.49 378.29 358.89 378.29 359.49 378.29 359.69 378.29 360.99 378.29 361.39 378.29 362.09 378.29 362.29 378.29 364.09 378.29 364.39 378.29 365.29 378.29 365.49 378.29 366.69 378.29 367.09 378.29 367.99 378.29 368.19 378.29 369.69 378.29 370.09 378.29 370.59 378.29 370.79 378.29 372.19 378.29 372.59 378.29 373.29 378.29 373.59 378.29 374.79 378.29 375.19 378.29 375.99 378.29 376.19 378.29 377.29 378.29 377.69 378.29 378.59 378.29 378.79 378.29 380.29 378.29 380.69 378.29 381.39 378.29 381.49 378.29 382.99 378.29 383.29 378.29 383.99 378.29 384.19 378.29 385.99 378.29 386.39 378.29 387.09 378.29 387.29 378.29 388.59 378.29 388.99 378.29 389.89 378.29 390.09 378.29 391.59 378.29 391.99 378.29 392.49 378.29 392.69 378.29 394.09 378.29 394.49 378.29 395.09 378.29 395.29 378.29 396.69 378.29 397.09 378.29 397.89 378.29 397.99 378.29 399.19 378.29 399.59 378.29 400.49 378.29 400.69 378.29 402.29 378.29 402.59 378.29 403.09 378.29 403.29 378.29 404.89 378.29 405.29 378.29 405.79 378.29 405.99 378.29 407.89 378.29 408.29 378.29 408.99 378.29 409.19 378.29 410.39 378.29 410.79 378.29 411.69 378.29 411.89 378.29 413.49 378.29 413.89 378.29 414.89 378.29 415.09 378.29 415.99 378.29 416.39 378.29 416.99 378.29 417.19 378.29 418.09 378.29 418.39 378.29 419.19 378.29 419.39 378.29 420.69 378.29 420.99 378.29 421.79 378.29 421.99 378.29 423.69 378.29 424.09 378.29 424.99 378.29 425.19 378.29 426.19 378.29 426.69 378.29 427.19 378.29 427.39 378.29 429.29 378.29 429.69 378.29 430.29 378.29 430.49 378.29 431.79 378.29 432.19 378.29 432.99 378.29 433.19 378.29 434.89 378.29 435.29 378.29 435.69 378.29 435.89 378.29 437.39 378.29 437.79 378.29 438.29 378.29 438.49 378.29 440.49 378.29 440.79 378.29 441.59 378.29 441.79 378.29 443.09 378.29 443.49 378.29 444.19 378.29 444.39 378.29 446.09 378.29 446.49 378.29 446.79 378.29 446.99 378.29 448.59 378.29 449.09 378.29 450.09 378.29 450.29 378.29 451.69 378.29 452.09 378.29 452.69 378.29 452.89 378.29 454.19 378.29 454.59 378.29 455.39 378.29 455.49 378.29 457.29 378.29 457.69 378.29 458.59 378.29 458.79 378.29 459.89 378.29 460.19 378.29 460.69 378.29 460.89 378.29 462.39 378.29 462.79 378.29 463.29 378.29 463.49 378.29 464.99 378.29 465.39 378.29 466.09 378.29 466.29 378.29 467.99 378.29 468.39 378.29 469.19 378.29 469.39 378.29 470.49 378.29 470.89 378.29 471.99 378.29 472.09 378.29 473.59 378.29 473.99 378.29 474.59 378.29 474.79 378.29 476.09 378.29 476.49 378.29 477.19 378.29 477.39 378.29 479.19 378.29 479.59 378.29 480.49 378.29 480.59 378.29 481.79 378.29 482.19 378.29 483.09 378.29 483.29 378.29 484.29 378.29 484.69 378.29 485.19 378.29 485.39 378.29 486.79 378.29 487.29 378.29 487.89 378.29 488.09 378.29 489.89 378.29 490.29 378.29 491.09 378.29 491.29 378.29 492.39 378.29 492.79 378.29 493.69 378.29 493.89 378.29 495.59 378.29 495.89 378.29 496.39 378.29 496.59 378.29 498.09 378.29 498.39 378.29 499.09 378.29 499.29 378.29 501.09 378.29 501.49 378.29 502.29 378.29 502.49 378.29 503.69 378.29 504.09 378.29 504.99 378.29 505.09 378.29 506.19 378.29 506.59 378.29 507.59 378.29 507.79 378.29 508.69 378.29 509.09 378.29 510.29 378.29 510.49 378.29 511.79 378.29 512.19 378.29 512.89 378.29 513.09 378.29 514.39 378.29 514.69 378.29 515.59 378.29 515.79 378.29 517.49 378.29 517.79 378.29 518.29 378.29 518.49 378.29 519.99 378.29 520.39 378.29 520.89 378.29 521.09 378.29 522.99 378.29 523.39 378.29 524.09 378.29 524.29 378.29 525.59 378.29 525.99 378.29 526.79 378.29 526.99 378.29 528.09 378.29 528.49 378.29 529.39 378.29 529.59 378.29 530.59 378.29 530.99 378.29 531.49 378.29 531.69 378.29 533.69 378.29 534.09 378.29 534.79 378.29 534.99 378.29 536.29 378.29 536.59 378.29 537.39 378.29 537.59 378.29 539.29 378.29 539.69 378.29 540.69 378.29 540.89 378.29 541.89 378.29 542.29 378.29 543.29 378.29 543.49 378.29 546.59 382.59 546.59 383.09 546.59 387.29 546.59 387.39 546.59 396.69 546.59 396.79 546.59 415.69 546.59 415.69 542.29 415.69 541.89 415.69 539.69 415.69 539.29 415.69 536.59 415.69 536.29 415.69 534.09 415.69 533.69 415.69 383.69 415.69 350.59 415.39 350.59"/><polygon class="cls-2" points="267.29 540.19 267.29 536.09 264.09 536.09 264.09 535.19 263.79 535.19 263.79 531.39 263.59 531.39 263.59 535.19 263.39 535.19 263.39 536.09 257.59 536.09 257.59 535.79 257.59 535.29 257.59 534.79 257.59 533.89 257.59 533.39 257.59 532.89 257.59 531.79 257.59 531.29 257.59 530.59 257.59 529.69 257.59 529.09 257.59 528.59 257.59 527.69 257.59 527.19 257.59 526.69 257.59 525.69 257.59 525.19 257.59 524.59 257.59 523.59 257.59 523.09 257.59 522.59 257.59 521.69 257.59 521.19 257.59 520.69 257.59 519.69 257.59 519.19 257.59 518.69 257.59 517.79 257.59 517.19 257.59 516.59 257.59 515.69 257.59 515.09 257.59 514.59 257.59 513.69 257.59 513.19 257.59 512.69 257.59 511.69 257.59 511.19 257.59 510.69 257.59 509.79 257.59 509.09 257.59 508.59 257.59 507.69 257.59 507.19 257.59 506.69 257.59 505.69 257.59 505.19 257.59 504.69 257.59 503.69 257.59 503.19 257.59 502.69 257.59 501.69 257.59 501.19 257.59 500.69 257.59 499.69 257.59 499.19 257.59 498.59 257.59 497.69 257.59 497.19 257.59 496.69 257.59 495.69 257.59 495.19 257.59 494.69 257.59 493.59 257.59 493.09 257.59 492.59 257.59 491.69 257.59 491.09 257.59 490.69 257.59 489.69 257.59 489.19 257.59 488.69 257.59 487.69 257.59 487.19 257.59 486.59 257.59 485.69 257.59 485.09 257.59 484.69 257.59 483.69 257.59 483.19 257.59 482.69 257.59 481.69 257.59 481.19 257.59 480.69 257.59 479.79 257.59 479.09 257.59 478.69 257.59 477.69 257.59 477.19 257.59 476.69 257.59 475.69 257.59 475.19 257.59 474.69 257.59 473.79 257.59 473.19 257.59 472.79 257.59 471.79 257.59 471.19 257.59 470.69 257.59 469.69 257.59 469.19 257.59 468.69 257.59 467.79 257.59 467.19 257.59 466.79 257.59 465.79 257.59 465.29 257.59 464.79 257.59 463.69 257.59 463.19 257.59 462.69 257.59 461.79 257.59 461.19 257.59 460.79 257.59 459.79 257.59 459.29 257.59 458.79 257.59 457.79 257.59 457.29 257.59 456.79 257.59 455.79 257.59 455.19 257.59 454.69 257.59 453.79 257.59 453.29 257.59 452.79 257.59 451.79 257.59 451.29 257.59 450.79 257.59 449.89 257.59 449.29 257.59 448.79 257.59 447.79 257.59 447.29 257.59 446.79 257.59 445.79 257.59 445.29 257.59 444.79 257.59 443.89 257.59 443.29 257.59 442.79 257.59 441.89 257.59 441.29 257.59 440.79 257.59 439.79 257.59 439.29 257.59 438.79 257.59 437.89 257.59 437.29 257.59 436.79 257.59 435.89 257.59 435.39 257.59 434.89 257.59 433.79 257.59 433.29 257.59 432.79 257.59 431.89 257.59 431.29 257.59 430.79 257.59 429.89 257.59 429.39 257.59 428.89 257.59 427.89 257.59 427.39 257.59 426.89 257.59 425.89 257.59 425.29 257.59 424.79 257.59 423.89 257.59 423.39 257.59 422.89 257.59 421.89 257.59 421.39 257.59 420.89 257.59 419.89 257.59 419.39 257.59 418.89 257.59 417.89 257.59 417.39 257.59 416.89 257.59 415.89 257.59 415.39 257.59 414.89 257.59 413.99 257.59 413.39 257.59 412.89 257.59 411.99 257.59 411.49 257.59 410.89 257.59 409.89 257.59 409.39 257.59 408.89 257.59 407.89 257.59 407.39 257.59 406.89 257.59 405.99 257.59 405.49 257.59 404.99 257.59 403.99 257.59 403.39 257.59 402.89 257.59 401.99 257.59 401.39 257.59 400.89 257.59 399.99 257.59 399.49 257.59 398.99 257.59 397.99 257.59 397.49 257.59 396.99 257.59 395.89 257.59 395.39 257.59 394.89 257.59 393.99 257.59 393.49 257.59 392.99 257.59 391.99 257.59 391.49 257.59 390.99 257.59 390.09 257.59 389.49 257.59 388.99 257.59 387.99 257.59 387.49 257.59 386.99 257.59 385.99 257.59 385.49 257.59 384.99 257.59 383.99 257.59 383.49 257.59 382.99 257.59 382.09 257.59 381.59 257.59 381.09 257.59 379.99 257.59 379.49 257.59 378.99 257.59 378.09 257.59 377.49 257.59 376.99 257.59 376.09 257.59 375.59 257.59 375.09 257.59 374.09 257.59 373.59 257.59 372.99 257.59 371.99 257.59 371.49 257.59 370.99 257.59 370.09 257.59 369.59 257.59 369.09 257.59 368.09 257.59 367.59 257.59 367.09 257.59 366.09 257.59 365.49 257.59 364.99 257.59 364.09 257.59 363.59 257.59 363.09 257.59 362.09 257.59 361.59 257.59 361.09 257.59 360.09 257.59 359.59 257.59 359.09 257.59 358.09 257.59 357.59 257.59 357.09 257.59 356.09 257.59 355.59 257.59 355.09 257.59 354.09 257.59 353.59 257.59 353.09 257.59 352.19 257.59 351.69 257.59 351.19 257.59 350.09 257.59 349.59 257.59 349.09 257.59 348.09 257.59 347.59 257.59 347.09 257.59 346.19 257.59 345.59 257.59 345.19 257.59 344.59 257.59 344.19 257.59 343.69 257.59 340.69 256.59 340.69 255.69 340.69 254.99 340.69 254.99 339.39 253.79 339.39 253.79 336.29 253.39 336.29 253.39 327.69 252.89 327.69 252.89 336.29 252.49 336.29 252.49 339.39 251.29 339.39 251.29 336.69 250.99 336.69 250.99 332.99 251.09 332.99 251.09 332.39 250.79 332.39 250.79 332.99 250.89 332.99 250.89 336.69 250.59 336.69 250.59 339.39 249.59 339.39 249.59 334.79 249.09 334.79 249.09 323.69 248.39 323.69 248.39 334.79 247.89 334.79 247.89 339.39 246.99 339.39 246.99 337.69 242.49 337.69 242.49 332.79 242.19 332.79 242.19 329.19 242.29 329.19 242.29 328.69 241.99 328.69 241.99 329.19 242.09 329.19 242.09 332.79 241.79 332.79 241.79 337.69 241.09 337.69 241.09 321.59 240.39 321.59 240.39 319.89 241.09 319.89 241.09 318.99 240.39 318.99 240.39 317.39 241.09 317.39 241.09 316.49 240.39 316.49 240.39 314.89 241.09 314.89 241.09 313.99 240.39 313.99 240.39 312.29 241.09 312.29 241.09 311.39 240.39 311.39 240.39 309.79 241.09 309.79 241.09 308.99 240.39 308.99 240.39 307.29 241.09 307.29 241.09 306.49 240.39 306.49 240.39 304.69 241.09 304.69 241.09 303.89 240.39 303.89 240.39 302.19 241.09 302.19 241.09 301.39 240.39 301.39 240.39 299.79 241.09 299.79 241.09 298.89 240.39 298.89 240.39 289.79 238.69 289.79 238.69 298.89 237.99 298.89 237.99 299.79 238.69 299.79 238.69 301.39 237.99 301.39 237.99 302.19 238.69 302.19 238.69 303.89 237.99 303.89 237.99 304.69 238.69 304.69 238.69 306.49 237.99 306.49 237.99 307.29 238.69 307.29 238.69 308.99 237.99 308.99 237.99 309.79 238.69 309.79 238.69 311.39 237.99 311.39 237.99 312.29 238.69 312.29 238.69 313.99 237.99 313.99 237.99 314.89 238.69 314.89 238.69 316.49 237.99 316.49 237.99 317.39 238.69 317.39 238.69 318.99 237.99 318.99 237.99 319.89 238.69 319.89 238.69 321.59 237.99 321.59 237.99 337.69 235.09 337.69 235.09 333.69 234.69 333.69 234.69 325.19 234.19 325.19 234.19 333.69 233.79 333.69 233.79 337.69 232.99 337.69 232.99 339.39 232.69 339.39 232.69 335.29 232.29 335.29 232.29 330.99 232.39 330.99 232.39 330.29 232.09 330.29 232.09 330.99 232.19 330.99 232.19 335.29 231.79 335.29 231.79 339.39 230.69 339.39 230.69 336.29 230.29 336.29 230.29 327.69 229.79 327.69 229.79 336.29 229.39 336.29 229.39 339.39 228.19 339.39 228.19 336.69 227.89 336.69 227.89 332.99 227.99 332.99 227.99 332.39 227.69 332.39 227.69 332.99 227.79 332.99 227.79 336.69 227.49 336.69 227.49 339.39 224.89 339.39 224.89 340.69 224.39 340.69 222.39 340.69 222.29 340.69 222.29 540.19 213.69 540.19 213.69 542.79 213.69 542.89 213.69 544.29 213.69 547.09 214.49 547.09 215.39 547.09 217.29 547.09 217.79 547.09 221.89 547.09 223.09 547.09 224.09 547.09 225.29 547.09 226.19 547.09 227.39 547.09 228.29 547.09 229.49 547.09 230.39 547.09 231.69 547.09 232.59 547.09 233.79 547.09 234.69 547.09 235.89 547.09 236.79 547.09 237.99 547.09 238.99 547.09 240.19 547.09 241.09 547.09 242.29 547.09 243.19 547.09 244.39 547.09 245.29 547.09 246.49 547.09 246.69 547.09 247.49 547.09 248.29 547.09 248.69 547.09 249.29 547.09 249.59 547.09 249.59 547.09 250.79 547.09 251.39 547.09 251.69 547.09 251.79 547.09 252.89 547.09 253.49 547.09 253.89 547.09 253.89 547.09 255.09 547.09 255.69 547.09 255.99 547.09 255.99 547.09 257.19 547.09 257.79 547.09 258.19 547.09 258.49 547.09 258.89 547.09 259.89 547.09 260.29 547.09 260.59 547.09 260.99 547.09 261.99 547.09 262.39 547.09 262.69 547.09 263.09 547.09 264.19 547.09 264.49 547.09 264.89 547.09 265.19 547.09 265.69 547.09 266.29 547.09 266.69 547.09 267.29 547.09 268.09 547.09 268.09 542.89 268.09 542.79 268.09 540.19 267.29 540.19"/><polygon class="cls-2" points="201.89 491.79 201.89 362.89 192.89 320.49 186.49 320.49 186.49 362.19 185.29 362.19 185.29 351.99 169.69 351.99 169.69 362.19 168.49 362.19 168.49 320.49 162.09 320.49 153.09 362.89 153.09 491.79 151.49 491.79 151.49 546.49 153.09 546.49 161.19 546.49 168.49 546.49 186.49 546.49 193.79 546.49 201.89 546.49 209.89 546.49 209.89 491.79 201.89 491.79"/><polygon class="cls-3" points="515.29 408.79 513.69 408.79 513.69 402.89 481.99 402.89 481.99 400.49 480.89 400.49 480.89 398.39 480.29 398.39 480.29 400.49 479.99 400.49 479.99 395.09 479.39 395.09 479.39 400.49 478.49 400.49 478.49 402.89 476.79 402.89 476.79 408.79 475.29 408.79 475.29 415.79 476.79 415.79 476.79 470.69 473.99 470.69 473.99 466.99 447.79 466.99 447.79 470.69 444.29 470.69 444.29 547.29 476.79 547.29 481.19 547.29 513.69 547.29 513.69 415.79 515.29 415.79 515.29 408.79"/><polygon class="cls-3" points="796.09 449.49 796.09 446.49 787.29 446.49 787.29 442.29 782.09 442.29 782.09 440.49 782.09 439.69 782.09 436.89 779.89 436.89 779.89 421.29 779.19 421.29 779.19 421.29 779.19 421.29 779.19 420.79 779.19 420.79 779.19 420.09 779.19 420.09 779.19 419.69 779.19 419.69 779.19 418.99 779.19 418.99 779.19 418.49 778.59 418.49 778.59 418.39 778.19 418.39 778.19 418.49 773.89 418.49 773.89 418.39 773.39 418.39 773.39 418.49 769.69 418.49 769.69 418.39 769.29 418.39 769.29 418.49 768.09 418.49 768.09 418.99 768.09 418.99 768.09 419.69 768.09 419.69 768.09 420.09 768.09 420.09 768.09 420.79 768.09 420.79 768.09 421.29 768.09 421.29 768.09 421.29 767.39 421.29 767.39 436.89 765.29 436.89 765.29 439.69 765.29 440.49 765.29 442.29 759.99 442.29 759.99 446.49 751.29 446.49 751.29 449.49 748.99 449.49 748.99 516.19 748.99 523.79 748.99 533.99 748.99 534.89 748.99 546.49 751.79 546.49 751.79 546.49 752.69 546.49 752.69 546.49 753.39 546.49 753.39 546.49 754.29 546.49 754.29 546.49 756.29 546.49 756.29 546.49 757.19 546.49 757.19 546.49 757.89 546.49 757.89 546.49 758.79 546.49 758.79 546.49 761.09 546.49 761.09 546.49 761.99 546.49 761.99 546.49 762.69 546.49 762.69 546.49 763.59 546.49 763.59 546.49 772.39 546.49 772.39 546.49 773.29 546.49 773.29 546.49 773.99 546.49 773.99 546.49 774.89 546.49 774.89 546.49 783.59 546.49 783.59 546.49 784.49 546.49 784.49 546.49 785.19 546.49 785.19 546.49 786.09 546.49 786.09 546.49 788.59 546.49 788.59 546.49 789.49 546.49 789.49 546.49 790.29 546.49 790.29 546.49 791.09 546.49 791.09 546.49 793.09 546.49 793.09 546.49 793.99 546.49 793.99 546.49 794.69 546.49 794.69 546.49 795.59 546.49 795.59 546.49 798.29 546.49 798.29 534.89 798.29 533.99 798.29 523.79 798.29 516.19 798.29 449.49 796.09 449.49"/><polygon class="cls-3" points="685.39 407.69 685.39 402.69 629.19 402.69 629.19 407.69 623.79 407.69 623.79 476.29 690.79 476.29 690.79 407.69 685.39 407.69"/><polygon class="cls-3" points="389.09 373.99 389.09 370.19 364.59 370.19 364.59 363.29 349.29 363.29 349.29 370.19 345.89 370.19 345.89 373.99 343.79 373.99 343.79 547.19 391.19 547.19 391.19 373.99 389.09 373.99"/><polygon class="cls-3" points="49.49 519.19 49.99 519.19 51.49 519.19 51.99 519.19 53.09 519.19 53.69 519.19 53.69 518.69 53.69 517.19 53.69 516.39 53.69 515.99 53.69 514.49 53.69 513.79 53.69 513.29 53.69 511.89 53.69 511.09 53.69 510.69 53.69 509.09 53.69 508.39 53.69 507.89 53.69 506.49 53.69 505.79 53.69 505.29 53.69 503.79 53.69 503.09 53.69 502.69 53.69 501.09 53.69 500.39 53.69 499.89 53.69 498.39 53.69 497.69 53.69 497.29 53.69 495.79 53.69 495.09 53.69 494.59 53.69 493.09 53.69 492.39 53.69 491.89 53.69 490.39 53.69 489.69 53.69 489.19 53.69 487.79 53.69 487.09 53.69 486.49 53.69 484.99 53.69 484.29 53.69 483.89 53.69 482.39 53.69 481.69 53.69 481.19 53.69 479.79 53.69 478.89 53.69 478.49 53.69 476.99 53.69 476.29 53.69 475.79 53.69 474.39 53.69 473.69 53.69 473.19 53.69 471.59 53.69 470.89 53.69 470.49 53.69 468.99 53.69 468.29 53.69 467.79 53.69 466.39 53.69 465.59 53.69 465.19 53.69 463.59 53.69 462.89 53.69 462.39 53.69 460.99 53.69 460.29 53.69 459.79 53.69 458.29 53.69 457.59 53.69 457.09 53.69 455.59 53.69 454.89 53.69 454.39 53.69 452.89 53.69 452.19 53.69 451.79 53.69 450.29 53.69 449.59 53.69 449.09 53.69 447.59 53.69 446.79 53.69 446.39 53.69 444.89 53.69 444.19 53.69 443.69 53.69 442.29 53.69 441.59 53.69 440.99 53.69 439.49 53.69 438.79 53.69 438.29 53.69 436.89 53.69 436.19 53.69 435.69 53.69 434.19 53.69 433.39 53.69 432.99 53.69 431.49 53.69 430.79 53.69 430.29 53.69 428.89 53.69 428.19 53.69 427.69 53.69 426.09 53.69 425.39 53.69 424.89 53.69 423.49 53.69 422.79 53.69 422.29 53.69 420.79 53.69 420.09 53.69 419.69 53.69 418.09 53.69 417.39 53.69 416.89 53.69 415.49 53.69 414.69 53.69 414.29 53.69 412.79 53.69 412.09 53.69 411.59 53.69 410.09 53.69 409.39 53.69 408.89 53.69 407.39 53.69 406.69 53.69 406.29 53.69 404.79 53.69 404.09 53.69 403.49 53.69 402.09 53.69 401.29 53.69 400.89 53.69 399.39 53.69 398.69 53.69 398.19 53.69 396.79 53.69 395.99 53.69 395.49 53.69 393.99 53.69 393.29 53.69 392.79 53.69 391.39 53.69 390.69 53.69 390.19 53.69 388.79 53.69 387.89 53.69 387.49 53.69 385.99 53.69 385.29 53.69 384.79 53.69 383.39 53.69 382.59 53.69 382.19 53.69 380.59 53.69 379.89 53.69 379.39 53.69 377.99 53.69 377.29 53.69 376.79 53.69 374.39 53.89 374.39 53.89 374.39 54.09 374.39 54.09 374.39 54.59 374.39 54.59 374.39 54.79 374.39 54.79 374.39 55.19 374.39 55.19 374.39 55.49 374.39 55.49 374.39 55.89 374.39 55.89 374.39 56.09 374.39 56.09 374.39 57.19 374.39 57.19 374.39 57.49 374.39 57.49 374.39 58.49 374.39 58.49 374.39 58.79 374.39 58.79 374.39 59.29 374.39 59.29 373.99 59.29 373.69 59.29 373.59 59.29 373.29 59.29 372.89 59.29 372.09 59.29 371.79 59.29 370.49 59.29 369.99 59.29 369.69 59.29 369.49 59.29 371.29 59.29 369.89 59.29 369.59 59.29 368.99 59.29 368.49 59.29 368.09 59.29 367.79 59.29 367.69 59.79 367.59 59.79 367.59 59.99 367.59 59.99 367.59 60.49 367.49 60.49 367.49 60.69 367.49 61.79 367.29 61.79 367.29 61.99 367.29 64.49 366.89 64.49 366.89 64.59 366.89 65.79 366.69 65.79 366.69 65.99 366.69 67.19 366.49 67.19 366.49 67.19 366.49 69.69 366.09 69.69 365.99 69.99 365.99 69.99 365.99 72.39 365.59 72.39 365.49 72.59 365.49 72.59 365.49 74.99 365.09 74.99 365.09 75.19 365.09 76.39 364.89 76.39 364.89 76.49 364.89 77.69 364.69 77.69 364.69 77.79 364.69 78.99 364.49 78.99 364.49 79.19 364.49 79.69 364.39 79.69 364.39 79.89 364.39 79.89 364.39 80.39 364.29 80.39 364.29 80.59 364.29 80.59 364.29 80.99 364.19 80.99 364.09 81.29 364.09 81.29 364.19 81.69 364.09 81.69 364.09 81.89 364.09 81.89 364.09 81.99 364.09 81.99 367.79 81.99 368.09 81.99 368.49 81.99 368.99 81.99 369.59 81.99 369.89 81.99 371.29 81.99 369.49 81.99 369.69 81.99 369.99 81.99 370.49 81.99 371.79 81.99 372.09 81.99 372.89 81.99 373.29 81.99 373.59 81.99 373.69 81.99 373.99 81.99 374.39 82.79 374.39 82.79 374.39 82.99 374.39 82.99 374.39 84.09 374.39 84.09 374.39 84.29 374.39 84.29 374.39 85.39 374.39 85.39 374.39 85.59 374.39 85.59 374.39 86.09 374.39 86.09 374.39 86.29 374.39 86.29 374.39 86.69 374.39 86.69 374.39 86.99 374.39 86.99 374.39 87.39 374.39 87.39 374.39 87.59 374.39 87.59 374.39 87.69 374.39 87.69 376.79 87.69 377.29 87.69 377.99 87.69 379.39 87.69 379.89 87.69 380.59 87.69 382.19 87.69 382.59 87.69 383.39 87.69 384.79 87.69 385.29 87.69 385.99 87.69 387.49 87.69 387.89 87.69 388.79 87.69 390.19 87.69 390.69 87.69 391.39 87.69 392.79 87.69 393.29 87.69 393.99 87.69 395.49 87.69 395.99 87.69 396.79 87.69 398.19 87.69 398.69 87.69 399.39 87.69 400.89 87.69 401.29 87.69 402.09 87.69 403.49 87.69 404.09 87.69 404.79 87.69 406.29 87.69 406.69 87.69 407.39 87.69 408.89 87.69 409.39 87.69 410.09 87.69 411.59 87.69 412.09 87.69 412.79 87.69 414.29 87.69 414.69 87.69 415.49 87.69 416.89 87.69 417.39 87.69 418.09 87.69 419.69 87.69 420.09 87.69 420.79 87.69 422.29 87.69 422.79 87.69 423.49 87.69 424.89 87.69 425.39 87.69 426.09 87.69 427.69 87.69 428.19 87.69 428.89 87.69 430.29 87.69 430.79 87.69 431.49 87.69 432.99 87.69 433.39 87.69 434.19 87.69 435.69 87.69 436.19 87.69 436.89 87.69 438.29 87.69 438.79 87.69 439.49 87.69 440.99 87.69 441.59 87.69 442.29 87.69 443.69 87.69 444.19 87.69 444.89 87.69 446.39 87.69 446.79 87.69 447.59 87.69 449.09 87.69 449.59 87.69 450.29 87.69 451.79 87.69 452.19 87.69 452.89 87.69 454.39 87.69 454.89 87.69 455.59 87.69 457.09 87.69 457.59 87.69 458.29 87.69 459.79 87.69 460.29 87.69 460.99 87.69 462.39 87.69 462.89 87.69 463.59 87.69 465.19 87.69 465.59 87.69 466.39 87.69 467.79 87.69 468.29 87.69 468.99 87.69 470.49 87.69 470.89 87.69 471.59 87.69 473.19 87.69 473.69 87.69 474.39 87.69 475.79 87.69 476.29 87.69 476.99 87.69 478.49 87.69 478.89 87.69 479.79 87.69 481.19 87.69 481.69 87.69 482.39 87.69 483.89 87.69 484.29 87.69 484.99 87.69 486.49 87.69 487.09 87.69 487.79 87.69 489.19 87.69 489.69 87.69 490.39 87.69 491.89 87.69 492.39 87.69 493.09 87.69 494.59 87.69 495.09 87.69 495.79 87.69 497.29 87.69 497.69 87.69 498.39 87.69 499.89 87.69 500.39 87.69 501.09 87.69 502.69 87.69 503.09 87.69 503.79 87.69 505.29 87.69 505.79 87.69 506.49 87.69 507.89 87.69 508.39 87.69 509.09 87.69 510.69 87.69 511.09 87.69 511.89 87.69 513.29 87.69 513.79 87.69 514.49 87.69 515.99 87.69 516.39 87.69 517.19 87.69 518.69 87.69 519.19 87.69 519.89 87.69 521.29 87.69 521.79 87.69 522.49 87.69 523.99 87.69 524.39 87.69 525.29 87.69 526.69 87.69 527.19 87.69 527.89 87.69 529.39 87.69 529.79 87.69 530.49 87.69 531.99 87.69 532.59 87.69 533.29 87.69 534.69 87.69 535.19 87.69 535.89 87.69 537.39 87.69 537.89 87.69 538.59 87.69 540.09 87.69 540.59 87.69 540.89 87.69 541.89 87.69 542.79 87.69 543.19 87.69 543.99 87.69 546.29 73.09 546.29 73.09 546.29 72.89 546.29 72.89 546.29 72.89 546.29 70.69 546.29 68.69 546.29 68.69 546.29 68.39 546.29 68.39 546.29 53.69 546.29 53.09 546.29 51.99 546.29 51.49 546.29 49.99 546.29 49.49 546.29 47.99 546.29 47.49 546.29 45.99 546.29 45.49 546.29 44.19 546.29 44.19 546.29 44.19 543.99 44.19 543.19 44.19 542.79 44.19 541.29 44.19 540.59 44.19 540.09 44.19 538.59 44.19 537.89 44.19 537.39 44.19 535.89 44.19 535.19 44.19 534.69 44.19 534.69 44.19 533.29 44.19 532.59 44.19 531.99 44.19 530.49 44.19 529.79 44.19 529.39 44.19 527.89 44.19 527.19 44.19 526.69 44.19 525.29 44.19 524.39 44.19 523.99 44.19 522.49 44.19 521.79 44.19 521.79 44.19 521.29 44.19 519.19 49.49 519.19"/><polygon class="cls-3" points="215.89 418.19 215.89 413.09 215.89 413.09 200.69 398.99 195.39 398.99 180.19 413.09 180.19 418.19 176.79 418.19 176.79 547.79 219.29 547.79 219.29 418.19 215.89 418.19"/><polygon class="cls-3" points="269.09 373.99 269.09 370.29 242.99 370.29 242.99 373.99 241.79 373.99 241.79 547.29 270.29 547.29 270.29 373.99 269.09 373.99"/><rect class="cls-3" x="539.29" y="419.39" width="20.3" height="118.3"/><rect class="cls-4" x="525.99" y="434.79" width="37.3" height="111.4"/><polygon class="cls-4" points="728.09 478.19 728.09 473.29 671.89 473.29 671.89 478.19 666.59 478.19 666.59 546.69 733.39 546.69 733.39 478.19 728.09 478.19"/><path class="cls-4" d="M191.59,459.89a1.4,1.4,0,1,0-1.4-1.4h0A1.37,1.37,0,0,0,191.59,459.89Z" transform="translate(18 18)"/><path class="cls-4" d="M203.19,462.39a1.4,1.4,0,1,0-1.4-1.4h0A1.59,1.59,0,0,0,203.19,462.39Z" transform="translate(18 18)"/><path class="cls-4" d="M208.79,465.39a1.4,1.4,0,1,0-1.4-1.4A1.5,1.5,0,0,0,208.79,465.39Z" transform="translate(18 18)"/><path class="cls-4" d="M213,469.19a1.4,1.4,0,1,0-1.4-1.4h0A1.5,1.5,0,0,0,213,469.19Z" transform="translate(18 18)"/><path class="cls-4" d="M216.79,473.89a1.4,1.4,0,1,0-1.4-1.4h0A1.37,1.37,0,0,0,216.79,473.89Z" transform="translate(18 18)"/><path class="cls-4" d="M219.59,479.89a1.4,1.4,0,1,0-1.4-1.4h0a1.5,1.5,0,0,0,1.4,1.4Z" transform="translate(18 18)"/><path class="cls-4" d="M220.09,485.09a1.4,1.4,0,0,0,2.8,0h0a1.4,1.4,0,1,0-2.8,0Z" transform="translate(18 18)"/><path class="cls-4" d="M221.29,491.09a1.32,1.32,0,0,0-1.3,1.3,26.2,26.2,0,0,0,.1-2.8,29.52,29.52,0,0,0-22.8-29,1.35,1.35,0,0,0,1.3-1.4,1.24,1.24,0,0,0-1.4-1.3,1.35,1.35,0,0,0-1.3,1.4,1.3,1.3,0,0,0,.8,1.2,32.87,32.87,0,0,0-5.4-.5c-15.9,0-28.7,13.3-28.7,29.6v.1a16.2,16.2,0,0,0,.1,2.2,1.14,1.14,0,0,0-.8-.3,1.4,1.4,0,0,0,0,2.8h0a1.61,1.61,0,0,0,1.1-.5,37.75,37.75,0,0,0,1.3,5.6,1.45,1.45,0,0,0-.7-.2,1.4,1.4,0,0,0,0,2.8,1.42,1.42,0,0,0,1.3-.9,28.76,28.76,0,0,0,25.9,18v7.3h1.5v-7.3a27,27,0,0,0,12.4-3.3,1.21,1.21,0,0,0-.7,1.2,1.4,1.4,0,1,0,1.4-1.4h0a.9.9,0,0,0-.5.1,26.58,26.58,0,0,0,6.8-5.3,30.22,30.22,0,0,0,6.7-10.8,1.36,1.36,0,0,0,.7,1.8,1.33,1.33,0,0,0,1.8-.8,1.36,1.36,0,0,0-.7-1.8.9.9,0,0,0-.5-.1,1.29,1.29,0,0,0-1.3.9,29.19,29.19,0,0,0,1.6-7.1,1.4,1.4,0,0,0,2.8,0c-.2-.7-.8-1.5-1.5-1.5Zm-27.5.1-1.1-.8h0l24.5,10a38.86,38.86,0,0,1-2.5,5Zm20.7,14.3-.6.9-14.7-11.1Zm-24.3-13.7-10.4,23.9a36.23,36.23,0,0,1-4.3-2.4Zm-15,21.2-1.2-.9,13.9-17.7Zm-6.5-6.6a28.63,28.63,0,0,1-2.4-4.2l23.3-11.8h.1l-.6.5Zm15.2-10.9-14.3,12.3c-.2-.3-.5-.6-.7-.9Zm-20.4-9a22.54,22.54,0,0,1,.6-3.6l24.5,6.1.3.1Zm21.9,2.6-22-.7c0-.5.1-1,.1-1.5Zm-8.4-24.2a37.13,37.13,0,0,1,4.9-2.4l8.5,24.2.4,1.4h0Zm11,19.5L175.39,466c.4-.3.8-.5,1.2-.8Zm13.5-21.6-9.3,24.1,4.7-25.5a47.51,47.51,0,0,1,4.6,1.4Zm-8,26.3h-.1l.7-.3,23.5-8.9a32.27,32.27,0,0,1,1.2,4.7Zm25.4-4.2c.1.4.1.7.2,1.1l-18.8,2.2Zm-18.7,1.1,16.8-7.6c.1.3.3.7.4,1.1Zm-6.2,2.3-.6.2,22.1-13.4c.5.9,1,1.8,1.4,2.7Zm2.1-1.9,18.3-13c.3.4.6.9.9,1.4Zm-2.9,1.5,1.6-1.7,16.9-16.2a23.4,23.4,0,0,1,2.4,3.1Zm-.1-.6,13.2-21.9a39,39,0,0,1,4,3.1l-15.7,17.4Zm-1,.9,11.3-24.5a17.36,17.36,0,0,1,2.6,1.5Zm1.6-4.5,8-20.9,1.3.6Zm-1.6.2,3.2-22.8a2.92,2.92,0,0,1,.9.2Zm-1.1,3.4v.1l-.3-.8-7.1-24.7a34,34,0,0,1,4.6-.9Zm-2.4-26.4,1.1-.1.9,19.5Zm-.2,19.2-6.2-17.8,1.1-.3Zm1,8.1-22.2-13.5a35.2,35.2,0,0,1,2.9-4.2Zm-19-17.8.7-.7,16.1,16Zm13.1,14.7-16.9-8.9a4.67,4.67,0,0,0,.5-1Zm5.9,3.5.1.1-.8-.2-24-7.5a40.73,40.73,0,0,1,1.8-4.4Zm-7.2-1.7-18-4.5c.1-.4.2-.7.3-1.1Zm7.1,3.3-23.8,10.2a39.74,39.74,0,0,1-1.5-4.9Zm-25.4,5c-.1-.3-.1-.7-.2-1l22.3-3.7Zm19.4-1.9-17.2,8.7a11.73,11.73,0,0,1-.5-1.1Zm6.1,1.4-8.3,21.7a3.55,3.55,0,0,1-.9-.4Zm1.4-2.4v.6l-4.6,24.9a29,29,0,0,1-4.8-1.4Zm-.7,6.3-2.4,19.6-1.1-.2Zm2.2-3.1v-1l4.7,23.2a15.72,15.72,0,0,1-2.3.4Zm2,22.7c-.4,0-.7.1-1.1.1l-1-19.1Zm-1.4-22.5,5.8,21.6c-.4.1-.9.2-1.4.3Zm-.5-3.4,11.3,23.2a42.2,42.2,0,0,1-4.5,1.8Zm1.6,2.3,10.8,20.2-.9.5Zm-1.3-3.2,16.5,20.2a36.92,36.92,0,0,1-4,2.9Zm4.7,5.1,12.9,14.1-.8.7Zm-.3-5,20.8,6.9a7.84,7.84,0,0,1-.5,1.4Zm-3.2-1.4,25.1,3a31.07,31.07,0,0,1-1.1,4.9Zm3-.1,22.3,1.7c0,.3-.1.7-.1,1Zm-3.3-.6,25.5-3.1c.1,1.1.2,2.1.2,3.2a10.87,10.87,0,0,1-.1,1.8Zm17.9-19.7L198.79,482l11.9-13.1Zm-16.5-8.8-3.6,26.1-1.3-26.3h1.2c1.2,0,2.5.1,3.7.2Zm-19.9,5.1,14.5,21.4-18.2-18.1a29.07,29.07,0,0,1,3.7-3.3Zm-11.7,22.7,25.4.8-25.1,4.3a30,30,0,0,1-.3-4.3,1.1,1.1,0,0,1,0-.8Zm6.5,19.2,19.3-16.5,1.1-.8v.1L173.69,512a29.33,29.33,0,0,1-3.8-4.1Zm18.2,10.2,2.6-21.4v21.6a11.84,11.84,0,0,1-2.6-.2Zm4.1-11,.6,11h-.6Zm18.4,3.1L193,491l-.1-.1.7.5,20.1,15.4a33.77,33.77,0,0,1-3.1,3.5Z" transform="translate(18 18)"/><path class="cls-4" d="M215.89,506.19a1.4,1.4,0,1,0,1.4,1.4h0A1.5,1.5,0,0,0,215.89,506.19Z" transform="translate(18 18)"/><path class="cls-4" d="M211.29,511.39a1.4,1.4,0,1,0,1.4,1.4h0A1.59,1.59,0,0,0,211.29,511.39Z" transform="translate(18 18)"/><path class="cls-4" d="M198.59,518.29a1.4,1.4,0,1,0,1.4,1.4h0A1.43,1.43,0,0,0,198.59,518.29Z" transform="translate(18 18)"/><path class="cls-4" d="M167.09,506.59a1.4,1.4,0,1,0,1.4,1.4h0A1.43,1.43,0,0,0,167.09,506.59Z" transform="translate(18 18)"/><path class="cls-4" d="M171.79,511.79a1.4,1.4,0,1,0,1.4,1.4h0A1.5,1.5,0,0,0,171.79,511.79Z" transform="translate(18 18)"/><path class="cls-4" d="M177.79,516a1.4,1.4,0,1,0,1.4,1.4h0A1.37,1.37,0,0,0,177.79,516Z" transform="translate(18 18)"/><path class="cls-4" d="M184.49,518.69a1.4,1.4,0,1,0,1.4,1.4A1.5,1.5,0,0,0,184.49,518.69Z" transform="translate(18 18)"/><path class="cls-4" d="M185.49,460.39a1.4,1.4,0,1,0-1.4-1.4h0A1.37,1.37,0,0,0,185.49,460.39Z" transform="translate(18 18)"/><path class="cls-4" d="M179.29,462.29a1.4,1.4,0,1,0-1.4-1.4h0A1.5,1.5,0,0,0,179.29,462.29Z" transform="translate(18 18)"/><path class="cls-4" d="M173.69,465.39a1.4,1.4,0,1,0-1.4-1.4h0A1.59,1.59,0,0,0,173.69,465.39Z" transform="translate(18 18)"/><path class="cls-4" d="M169.59,469.09a1.4,1.4,0,1,0-1.4-1.4h0a1.51,1.51,0,0,0,1.4,1.4Z" transform="translate(18 18)"/><path class="cls-4" d="M165.79,473.89a1.4,1.4,0,1,0-1.4-1.4h0A1.37,1.37,0,0,0,165.79,473.89Z" transform="translate(18 18)"/><path class="cls-4" d="M162.89,479.89a1.4,1.4,0,1,0-1.4-1.4h0A1.5,1.5,0,0,0,162.89,479.89Z" transform="translate(18 18)"/><path class="cls-4" d="M162.39,485.09a1.4,1.4,0,1,0-1.4,1.4h0A1.5,1.5,0,0,0,162.39,485.09Z" transform="translate(18 18)"/><polygon class="cls-4" points="52.39 512.79 52.39 441.59 50.19 441.59 50.19 414.49 48.49 414.49 48.49 397.19 47.19 397.19 47.19 387.09 44.79 387.09 44.79 384.69 43.49 384.69 43.49 382.99 42.59 382.99 42.59 381.79 30.09 381.79 30.09 382.99 29.19 382.99 29.19 384.69 27.89 384.69 27.89 387.09 25.49 387.09 25.49 397.19 24.19 397.19 24.19 414.49 22.49 414.49 22.49 441.59 20.29 441.59 20.29 512.79 18.19 512.79 18.19 545.79 54.59 545.79 54.59 512.79 52.39 512.79"/><polygon class="cls-4" points="375.69 544.09 375.69 522.69 375.69 522.19 375.69 521.29 375.69 520.89 375.69 519.89 375.69 519.49 375.69 518.49 375.69 518.09 375.69 516.99 375.69 516.59 375.69 515.59 375.69 515.19 375.69 514.19 375.69 513.79 375.69 512.79 375.69 512.39 375.69 511.39 375.69 510.99 375.69 509.99 375.69 509.49 375.69 508.49 375.69 508.09 375.69 507.09 375.69 506.69 375.69 505.69 375.69 505.29 375.69 504.29 375.69 503.89 375.69 502.89 375.69 502.49 375.69 501.39 375.69 500.99 375.69 499.99 375.69 499.59 375.69 498.59 375.69 498.19 375.69 497.29 375.69 496.79 375.69 495.89 375.69 495.39 375.69 494.29 375.69 493.89 375.69 492.99 375.69 492.49 375.69 491.59 375.69 491.09 375.69 490.19 375.69 489.69 375.69 488.79 375.69 488.29 375.69 487.39 375.69 486.79 375.69 485.89 375.69 485.39 375.69 484.49 375.69 483.99 375.69 483.09 375.69 482.59 375.69 481.69 375.69 481.29 375.69 480.29 375.69 479.89 375.69 478.79 375.69 478.39 375.69 477.39 375.69 476.99 375.69 475.99 375.69 475.59 375.69 474.59 375.69 474.19 375.69 473.19 375.69 472.79 375.69 471.79 375.69 471.29 375.69 470.29 375.69 469.89 375.69 468.89 375.69 468.49 375.69 467.49 375.69 467.09 375.69 466.09 375.69 465.69 375.69 464.69 375.69 464.29 375.69 463.19 375.69 462.79 375.69 461.79 375.69 461.39 375.69 460.39 375.69 459.99 375.69 458.99 375.69 458.59 375.69 457.69 375.69 457.19 375.69 456.19 375.69 455.69 375.69 454.69 375.69 454.29 375.69 453.39 375.69 452.89 375.69 451.99 375.69 451.49 375.69 450.59 375.69 450.09 375.69 449.19 375.69 448.59 375.69 447.69 375.69 447.19 375.69 447.09 375.69 446.29 375.69 445.79 375.69 444.89 375.69 444.39 375.69 443.49 375.69 443.09 375.69 442.09 375.69 441.69 375.69 440.59 375.69 440.19 375.69 439.99 373.19 439.99 373.19 439.19 373.19 438.79 373.19 437.79 373.19 437.39 373.19 436.39 373.19 435.99 373.19 434.99 373.19 434.59 373.19 433.49 373.19 433.09 373.19 432.09 373.19 431.69 373.19 430.69 373.19 430.29 373.19 429.29 373.19 428.89 373.19 427.89 373.19 427.49 373.19 425.69 369.29 425.69 368.89 425.69 365.09 425.69 364.59 425.69 362.19 425.69 361.79 425.69 357.99 425.69 357.59 425.69 353.99 425.69 353.99 427.49 353.99 427.89 353.99 428.89 353.99 429.29 353.99 430.29 353.99 430.69 353.99 431.69 353.99 432.09 353.99 433.09 353.99 433.49 353.99 434.59 353.99 434.99 353.99 435.99 353.99 436.39 353.99 437.39 353.99 437.79 353.99 438.79 353.99 439.19 353.99 439.99 351.49 439.99 351.49 440.19 351.49 440.59 351.49 441.69 351.49 442.09 351.49 443.09 351.49 443.49 351.49 444.39 351.49 444.89 351.49 445.79 351.49 446.29 351.49 447.19 351.49 447.69 351.49 448.59 351.49 449.19 351.49 450.09 351.49 450.59 351.49 451.49 351.49 451.99 351.49 452.89 351.49 453.39 351.49 454.29 351.49 454.69 351.49 455.69 351.49 456.19 351.49 457.19 351.49 457.69 351.49 458.59 351.49 458.99 351.49 459.99 351.49 460.39 351.49 461.39 351.49 461.79 351.49 462.79 351.49 463.19 351.49 464.29 351.49 464.69 351.49 465.69 351.49 466.09 351.49 467.09 351.49 467.49 351.49 468.49 351.49 468.89 351.49 469.89 351.49 470.29 351.49 471.29 351.49 471.79 351.49 472.79 351.49 473.19 351.49 474.19 351.49 474.59 351.49 475.59 351.49 475.99 351.49 476.99 351.49 477.39 351.49 478.39 351.49 478.79 351.49 479.89 351.49 480.29 351.49 481.29 351.49 481.69 351.49 482.59 351.49 483.09 351.49 483.99 351.49 484.49 351.49 485.39 351.49 485.89 351.49 486.79 351.49 487.39 351.49 488.29 351.49 488.79 351.49 489.69 351.49 490.19 351.49 491.09 351.49 491.59 351.49 492.49 351.49 492.99 351.49 493.89 351.49 494.29 351.49 495.39 351.49 495.89 351.49 496.79 351.49 497.29 351.49 498.19 351.49 498.59 351.49 499.59 351.49 499.99 351.49 500.99 351.49 501.39 351.49 502.49 351.49 502.89 351.49 503.89 351.49 504.29 351.49 505.29 351.49 505.69 351.49 506.69 351.49 507.09 351.49 508.09 351.49 508.49 351.49 509.49 351.49 509.99 351.49 510.99 351.49 511.39 351.49 512.39 351.49 512.79 351.49 513.79 351.49 514.19 351.49 515.19 351.49 515.59 351.49 516.59 351.49 516.99 351.49 518.09 351.49 518.49 351.49 519.49 351.49 519.89 351.49 520.89 351.49 521.29 351.49 522.19 351.49 522.69 351.49 544.89 351.49 544.89 355.39 544.89 355.79 544.89 355.89 544.89 356.19 544.89 359.69 544.89 360.09 544.89 363.19 544.89 363.49 544.89 363.59 544.89 367.09 544.89 367.49 544.89 370.59 544.89 370.99 544.89 370.99 544.89 371.39 544.89 375.69 544.89 375.69 544.89 375.69 544.09"/><polygon class="cls-4" points="280.69 542.99 280.69 521.59 280.69 519.19 280.19 519.19 280.19 506.79 279.49 506.79 279.29 506.59 279.29 505.59 278.19 505.59 278.19 504.79 278.19 503.69 278.19 502.69 278.19 501.59 278.19 500.59 278.19 499.49 278.19 498.59 278.19 497.49 278.19 496.49 278.19 495.49 278.19 494.49 278.19 493.29 278.19 492.39 278.19 491.29 278.19 490.29 278.19 489.29 278.19 488.29 278.19 487.19 278.19 486.09 278.19 485.09 278.19 484.09 278.19 483.09 278.19 482.09 278.19 480.99 278.19 479.99 278.19 478.89 278.19 477.89 278.19 476.79 278.19 475.89 278.19 474.79 278.19 473.79 278.19 472.79 278.19 471.79 278.19 470.59 278.19 469.69 278.19 468.59 278.19 467.59 278.19 466.59 278.19 465.59 278.19 464.49 278.19 463.49 278.19 462.39 278.19 461.39 278.19 460.39 278.19 459.39 278.19 458.29 278.19 457.29 278.19 456.19 278.19 455.19 278.19 454.19 278.19 453.19 278.19 452.09 278.19 451.09 278.19 450.19 278.19 450.09 278.19 449.09 278.19 448.19 278.19 448.19 278.19 447.59 278.19 446.59 278.19 445.89 278.19 444.89 278.19 444.09 278.19 443.09 278.19 442.99 278.19 442.59 278.19 442.49 278.19 442.19 278.19 441.89 278.19 441.59 278.19 441.29 278.19 440.99 278.19 440.79 278.19 440.49 278.19 440.29 278.19 439.99 278.19 439.79 278.19 439.49 278.19 439.29 278.19 438.99 278.19 438.79 278.19 438.49 278.19 438.29 278.19 437.99 278.19 437.79 278.19 437.69 278.19 437.49 278.19 437.29 278.19 436.99 278.19 436.79 278.19 436.39 278.19 436.29 278.19 435.89 278.19 435.89 276.19 435.89 276.19 435.79 276.19 435.49 276.19 435.29 276.19 434.99 276.19 434.79 276.19 434.49 276.19 434.29 275.29 434.29 275.29 433.79 275.29 433.69 276.19 433.69 276.19 433.29 276.19 432.99 275.29 432.99 275.29 432.09 273.49 432.09 273.49 431.69 271.19 431.69 271.19 431.29 271.19 429.59 269.49 429.59 269.49 429.59 269.49 429.29 269.49 428.59 269.49 428.29 269.49 427.49 269.49 427.29 269.49 426.69 268.39 426.69 266.09 425.19 266.09 424.69 266.19 424.69 266.19 424.39 266.09 424.39 266.09 424.19 266.19 424.19 266.19 423.89 266.09 423.89 266.09 423.69 266.19 423.69 266.19 423.39 266.09 423.39 266.09 423.19 266.19 423.19 266.19 422.89 266.09 422.89 266.09 422.69 266.19 422.69 266.19 422.39 266.09 422.39 266.09 422.19 266.19 422.19 266.19 421.89 266.09 421.89 266.09 421.69 266.19 421.69 266.19 421.39 266.09 421.39 266.09 421.09 266.19 421.09 266.19 420.79 266.09 420.79 266.09 420.39 265.29 420.39 265.29 420.79 265.09 420.79 265.09 421.09 265.29 421.09 265.29 421.39 265.09 421.39 265.09 421.69 265.29 421.69 265.29 421.89 265.09 421.89 265.09 422.19 265.29 422.19 265.29 422.39 265.09 422.39 265.09 422.69 265.29 422.69 265.29 422.89 265.09 422.89 265.09 423.19 265.29 423.19 265.29 423.39 265.09 423.39 265.09 423.69 265.29 423.69 265.29 423.89 265.09 423.89 265.09 424.19 265.29 424.19 265.29 424.39 265.09 424.39 265.09 424.69 265.29 424.69 265.29 425.19 262.89 426.69 261.79 426.69 261.79 427.29 261.79 427.49 261.79 428.29 261.79 428.59 261.79 429.29 261.79 429.59 261.79 429.59 260.09 429.59 260.09 431.69 257.79 431.69 257.79 432.09 256.09 432.09 256.09 432.99 255.09 432.99 255.09 433.29 255.09 433.69 256.09 433.69 256.09 434.29 255.09 434.29 255.09 434.49 255.09 434.79 255.09 434.99 255.09 435.29 255.09 435.49 255.09 435.79 255.09 435.89 253.09 435.89 253.09 435.89 253.09 436.19 253.09 436.39 253.09 436.79 253.09 436.89 253.09 437.29 253.09 437.49 253.09 437.79 253.09 437.99 253.09 438.29 253.09 438.49 253.09 438.79 253.09 438.99 253.09 439.29 253.09 439.49 253.09 439.79 253.09 439.99 253.09 440.29 253.09 440.49 253.09 440.79 253.09 440.99 253.09 441.29 253.09 441.59 253.09 441.89 253.09 442.09 253.09 442.49 253.09 442.59 253.09 442.99 253.09 443.09 253.09 444.09 253.09 444.89 253.09 445.89 253.09 446.59 253.09 447.59 253.09 448.19 253.09 448.19 253.09 449.09 253.09 450.09 253.09 451.09 253.09 452.09 253.09 453.19 253.09 454.19 253.09 455.19 253.09 456.19 253.09 457.29 253.09 458.29 253.09 459.39 253.09 460.39 253.09 461.39 253.09 462.39 253.09 463.49 253.09 464.49 253.09 465.59 253.09 466.59 253.09 467.59 253.09 468.59 253.09 469.69 253.09 470.59 253.09 471.79 253.09 472.79 253.09 473.79 253.09 474.79 253.09 475.89 253.09 476.79 253.09 477.89 253.09 478.89 253.09 479.99 253.09 480.99 253.09 482.09 253.09 483.09 253.09 484.09 253.09 485.09 253.09 486.09 253.09 487.19 253.09 488.29 253.09 489.29 253.09 490.29 253.09 491.29 253.09 492.39 253.09 493.29 253.09 494.49 253.09 495.49 253.09 496.49 253.09 497.49 253.09 498.59 253.09 499.49 253.09 500.59 253.09 501.59 253.09 502.69 253.09 503.69 253.09 504.79 253.09 505.59 251.99 505.59 251.99 506.79 250.99 506.79 250.99 519.19 249.89 519.19 249.89 542.99 249.59 542.99 249.59 544.89 250.09 544.89 250.09 543.39 251.09 543.39 251.09 544.89 252.79 544.89 253.69 544.89 256.49 544.89 257.79 544.89 260.59 544.89 261.89 544.89 264.69 544.89 265.99 544.89 268.79 544.89 270.09 544.89 272.89 544.89 274.19 544.89 276.99 544.89 277.79 544.89 279.49 544.89 280.49 544.89 280.89 544.89 280.89 542.99 280.69 542.99"/><polygon class="cls-4" points="347.09 540.69 347.09 540.29 347.09 538.99 347.09 538.59 347.09 537.49 347.09 537.09 347.09 535.99 347.09 535.59 347.09 534.39 347.09 533.99 347.09 532.89 347.09 532.49 347.09 531.29 347.09 530.79 347.09 529.69 347.09 529.29 347.09 528.19 347.09 527.79 347.09 526.69 347.09 526.19 347.09 525.09 347.09 524.59 347.09 523.49 347.09 523.09 347.09 521.89 347.09 521.49 347.09 520.39 347.09 519.99 347.09 518.89 347.09 518.49 347.09 517.39 347.09 516.79 347.09 515.69 347.09 515.29 347.09 514.19 347.09 513.79 347.09 512.59 347.09 512.19 347.09 511.09 347.09 510.69 347.09 509.49 347.09 509.09 347.09 507.89 347.09 507.49 347.09 506.39 347.09 505.99 347.09 504.89 347.09 504.39 347.09 503.29 347.09 502.89 347.09 501.69 347.09 501.29 347.09 500.19 347.09 499.69 347.09 498.59 347.09 498.19 347.09 497.09 347.09 496.69 347.09 495.59 347.09 495.09 347.09 493.89 347.09 493.49 347.09 492.39 347.09 491.99 347.09 490.89 347.09 490.39 347.09 489.29 347.09 488.89 347.09 487.79 347.09 487.39 347.09 486.09 347.09 485.69 347.09 484.59 347.09 484.19 347.09 483.09 347.09 482.69 347.09 481.49 347.09 481.09 347.09 479.99 347.09 479.59 347.09 478.39 347.09 477.99 347.09 476.79 347.09 476.39 347.09 475.29 347.09 474.89 347.09 473.79 347.09 473.29 347.09 472.19 347.09 471.79 347.09 470.59 347.09 470.19 347.09 469.09 347.09 468.59 347.09 467.49 347.09 467.09 347.09 465.99 347.09 465.59 347.09 464.39 347.09 463.89 347.09 462.79 347.09 462.39 347.09 461.29 347.09 460.89 347.09 459.69 347.09 459.29 347.09 458.19 347.09 457.79 347.09 456.69 347.09 456.19 347.09 454.99 347.09 454.59 347.09 454.19 347.09 453.49 345.69 453.49 345.69 452.79 340.09 447.49 339.99 447.49 334.29 452.79 334.29 453.49 332.99 453.49 332.99 454.19 332.99 454.59 332.99 454.99 332.99 456.19 332.99 456.69 332.99 457.79 332.99 458.19 332.99 459.29 332.99 459.69 332.99 460.89 332.99 461.29 332.99 462.39 332.99 462.79 332.99 463.89 332.99 464.39 332.99 465.59 332.99 465.99 332.99 467.09 332.99 467.49 332.99 468.59 332.99 469.09 332.99 470.19 332.99 470.59 332.99 471.79 332.99 472.19 332.99 473.29 332.99 473.79 332.99 474.89 332.99 475.29 332.99 476.39 332.99 476.79 332.99 477.99 332.99 478.39 332.99 479.59 332.99 479.99 332.99 481.09 332.99 481.49 332.99 482.69 332.99 483.09 332.99 484.19 332.99 484.59 332.99 485.69 332.99 486.09 332.99 487.39 332.99 487.79 332.99 488.89 332.99 489.29 332.99 490.39 332.99 490.89 332.99 491.99 332.99 492.39 332.99 493.49 332.99 493.89 332.99 495.09 332.99 495.59 332.99 496.69 332.99 497.09 332.99 498.19 332.99 498.59 332.99 499.69 332.99 500.19 332.99 501.29 332.99 501.69 332.99 502.89 332.99 503.29 332.99 504.39 332.99 504.89 332.99 505.99 332.99 506.39 332.99 507.49 332.99 507.89 332.99 509.09 332.99 509.49 332.99 510.69 332.99 511.09 332.99 512.19 332.99 512.59 332.99 513.79 332.99 514.19 332.99 515.29 332.99 515.69 332.99 516.79 332.99 517.39 332.99 518.49 332.99 518.89 332.99 519.99 332.99 520.39 332.99 521.49 332.99 521.89 332.99 523.09 332.99 523.49 332.99 524.59 332.99 525.09 332.99 526.19 332.99 526.69 332.99 527.79 332.99 528.19 332.99 529.29 332.99 529.69 332.99 530.79 332.99 531.29 332.99 532.49 332.99 532.89 332.99 533.99 332.99 534.39 332.99 535.59 332.99 535.99 332.99 537.09 332.99 537.49 332.99 538.59 332.99 538.99 332.99 540.29 332.99 540.69 330.69 540.69 330.69 541.79 330.69 542.19 330.69 543.29 330.69 543.69 330.69 544.89 330.69 545.39 332.99 545.39 332.99 545.39 347.09 545.39 347.09 545.39 353.99 545.39 353.99 544.89 353.99 543.69 353.99 543.29 353.99 542.19 353.99 541.79 353.99 540.69 347.09 540.69"/><polygon class="cls-5" points="474.69 323.09 474.69 322.09 473.69 322.09 467.49 307.79 467.49 307.69 466.19 307.69 460.29 293.99 460.29 293.69 460.19 293.69 460.19 293.69 458.99 293.69 452.99 279.69 450.89 279.69 450.89 278.99 449.89 278.99 449.89 278.39 449.19 278.39 449.19 273.29 446.49 271.09 446.49 265.49 444.49 263.69 444.49 251.39 443.79 250.79 443.79 250.79 443.79 250.79 443.79 250.79 443.79 250.79 443.09 251.39 443.09 263.69 441.09 265.49 441.09 271.09 438.39 273.29 438.39 278.39 437.69 278.39 437.69 278.99 436.69 278.99 436.69 279.69 434.89 279.69 428.79 293.69 427.69 293.69 421.59 307.69 420.49 307.69 420.49 307.79 414.29 322.09 413.09 322.09 413.09 323.09 412.39 323.09 412.39 323.99 412.99 323.99 413.29 324.69 413.29 324.69 414.19 326.89 413.29 326.89 413.29 327.79 414.19 327.79 414.19 328.79 414.19 329.39 414.19 331.79 414.19 333.89 414.19 336.99 414.19 338.99 414.19 342.09 414.19 344.19 414.19 347.29 414.19 349.29 414.19 352.39 414.19 352.69 414.19 352.79 414.19 354.49 414.19 357.49 414.19 359.69 414.19 362.69 414.19 364.79 414.19 367.89 414.19 369.99 414.19 372.99 414.19 375.19 414.19 378.19 414.19 380.29 414.19 383.39 414.19 385.39 414.19 388.59 414.19 391.09 414.19 393.29 414.19 395.99 414.19 398.49 414.19 401.19 414.19 403.69 414.19 406.39 414.19 408.79 414.19 411.59 414.19 413.99 414.19 416.69 414.19 419.19 414.19 421.89 414.19 424.29 414.19 427.09 414.19 429.49 414.19 432.19 414.19 434.59 414.19 437.39 414.19 439.69 414.19 442.49 414.19 444.89 414.19 447.59 414.19 450.09 414.19 452.79 414.19 455.19 414.19 457.99 414.19 460.39 414.19 463.09 414.19 465.59 414.19 468.29 414.19 470.69 414.19 473.49 414.19 475.89 414.19 478.59 414.19 481.09 414.19 483.79 414.19 486.09 414.19 488.89 414.19 491.29 414.19 493.99 414.19 496.49 414.19 499.19 414.19 501.59 414.19 504.39 414.19 506.79 414.19 509.49 414.19 511.99 414.19 514.69 414.19 517.19 414.19 519.89 414.19 522.29 414.19 525.09 414.19 527.49 414.19 530.19 414.19 534.19 412.99 534.19 412.99 546.49 414.19 546.49 414.89 546.49 416.39 546.49 419.89 546.49 420.69 546.49 421.29 546.49 422.29 546.49 423.59 546.49 424.49 546.49 426.09 546.49 426.89 546.49 428.59 546.49 429.39 546.49 430.99 546.49 432.79 546.49 433.49 546.49 434.39 546.49 435.99 546.49 436.89 546.49 438.49 546.49 439.39 546.49 440.99 546.49 441.89 546.49 443.49 546.49 444.29 546.49 445.89 546.49 446.79 546.49 448.39 546.49 449.29 546.49 450.89 546.49 451.79 546.49 453.39 546.49 454.29 546.49 454.99 546.49 458.39 546.49 459.19 546.49 460.79 546.49 461.69 546.49 463.29 546.49 464.19 546.49 464.19 546.49 465.49 546.49 466.49 546.49 466.59 546.49 467.49 546.49 471.39 546.49 472.99 546.49 473.59 546.49 474.79 546.49 474.79 546.49 474.79 534.19 474.79 534.19 473.59 534.19 473.59 391.09 473.59 388.59 473.59 385.39 473.59 383.39 473.59 380.29 473.59 378.19 473.59 375.19 473.59 372.99 473.59 369.99 473.59 367.89 473.59 364.79 473.59 362.69 473.59 359.69 473.59 357.49 473.59 354.49 473.59 352.79 473.59 352.69 473.59 352.39 473.59 349.29 473.59 347.29 473.59 344.19 473.59 342.09 473.59 338.99 473.59 336.99 473.59 333.89 473.59 331.79 473.59 329.39 473.59 328.79 473.59 327.79 474.39 327.79 474.39 326.89 473.59 326.89 474.49 324.69 474.49 324.69 474.79 323.99 475.39 323.99 475.39 323.09 474.69 323.09"/><path class="cls-5" d="M128.69,316.79h-4.5v-6h-1.1a2.82,2.82,0,0,0-2.8-2.9H120v-1.1h-1.6v-1.1h-3.2v-7.5h3.3v-1.8h1.6v-2.3H96.59v2.3h1.6v1.8h3.3v7.7h-3.3V307h-1.6v1a2.74,2.74,0,0,0-2.5,1.6h-7.9a2.64,2.64,0,0,0-2.5-1.6h-.3v-1.1h-1.6v-1.1h-3.3v-7.5h3.3v-1.8h1.6v-2.3H60v2.3h1.6v1.8h3.3v7.6h-3.3V307H60v1a2.82,2.82,0,0,0-2.8,2.9h-1.1v5.9h-4.9v172.9h-5.1v39.7h17.2V529h24.1v.2h5.3V529h31.4v.2l2-.2H129V316.79Zm-61.6-18.5h1.6v7.5h-1.6Zm3.9,0h1.6v7.5H71Zm3.8,0h1.4v7.5h-1.4Zm28.8,0h1.6v7.5h-1.6Zm3.9,0h1.6v7.5h-1.6Zm3.8,0h1.4v7.5h-1.4Z" transform="translate(18 18)"/><path class="cls-5" d="M597.19,504.59h-1.7V324.79h-.9v1H594v-.9h-.3v-1.1h-.4v1.1H593v.9h-4.4v-.9h-.3v-1.1h-.4v1.1h-.2v.9h-.3v-11h-2v-2.9h0L573.69,289v-.6h-4.1v-1.3h-.1v-2.4h.1v-1.3H569v-.8h-.4v-2.2h-1.4v2.2h-.5v.8h-.6v1.3h.2v2.4h-.2v1.3h-3.8v.5L550.39,312v2.9h-2.1v10H548v1h-4.6v-1h-.3v-1h-.4v1h-.3v1h-1v-1h-.9v2.9h-.3v176.8H538v23.9h59.6v-23.9Zm-29.5-220.1h.5v2.3h-.5Z" transform="translate(18 18)"/><path class="cls-5" d="M317.59,446.29h-1.8v-56.8h-2v-79.7h-2.6v-2.4h-2.5v-.7h0v-.2h0v-1h.4v-1H301v-1h0v-.8h0v-1.3h0v-.8h0v-1.2h0v-.8h0v-1.2h0v-.8h0v-1.2h0v-.8h0v-1.4h.5v-1h-4.3v-.8h0v-.8h0v-1.2h0v-.8h0v-1.2h0v-1h0v-1.2h0v-.3h.3V284h-6.7v-.6h0v-1.2h0v-.8h0v-1.2h0v-.8h0v-1.2h0v-.8h0v-1.2h0v-.8h0v-1.2h0v-.8h0v-.3h.2v-1h-12.8v1h.2V284h-6.7v1h.3v7.2h-4.4v1h.5v1h0v10.3h-8.5v1h.7v1.9h-2.5v2.4h-2.6v79.7h-2v56.8h-1.9v82.3h66.4v-82.2h-.1Zm-61.4-129.7h1.7v.9h-1.7Zm54.1,1h-1.6v-.8h0v-.2h1.6Zm-49.9-.9v.8h-1.5v-.9h1.5Zm49.9-1.7h-1.6v-1h1.6Zm-49.9-.3v.3h-1.5v-1h1.5Zm49.9-3h-1.6v-.2h0v-1.8h1.6Zm-49.9-2.1v2h-1.5v-2Zm-4.2,2.6h1.7v2h-1.7Z" transform="translate(18 18)"/><polygon class="cls-5" points="254.49 443.59 254.49 443.49 253.09 443.49 253.09 440.89 253.09 438.79 253.09 436.49 253.09 434.39 253.09 431.99 253.09 429.89 253.09 427.59 253.09 425.39 253.09 423.09 253.09 420.99 253.09 418.59 253.09 416.49 253.09 415.19 252.69 415.19 251.89 415.19 250.79 415.19 248.89 415.19 248.09 415.19 246.99 415.19 245.09 415.19 244.29 415.19 243.19 415.19 241.29 415.19 240.39 415.19 239.29 415.19 237.39 415.19 236.59 415.19 235.49 415.19 233.59 415.19 232.79 415.19 231.69 415.19 229.79 415.19 228.89 415.19 227.79 415.19 225.89 415.19 225.09 415.19 223.99 415.19 222.99 415.19 222.49 415.19 222.09 415.19 221.29 415.19 220.19 415.19 219.69 415.19 219.29 415.19 218.99 415.19 218.99 416.49 218.99 418.59 218.99 420.99 218.99 423.09 218.99 425.39 218.99 427.59 218.99 429.89 218.99 431.99 218.99 434.39 218.99 436.49 218.99 438.79 218.99 440.89 218.99 443.49 218.39 443.49 217.59 443.49 217.59 443.59 217.29 443.59 217.29 445.29 217.29 445.69 217.29 447.99 217.29 450.19 217.29 452.49 217.29 454.59 217.29 456.99 217.29 459.09 217.29 461.39 217.29 463.49 217.29 465.89 217.29 467.99 217.29 470.29 217.29 472.49 217.29 474.79 217.29 476.99 217.29 479.19 217.29 481.49 217.29 483.69 217.29 485.89 217.29 488.19 217.29 490.39 217.29 492.59 217.29 494.89 217.29 497.19 217.29 499.29 217.29 501.59 217.29 503.79 217.29 506.09 217.29 508.19 217.29 510.59 217.29 512.69 217.29 514.99 217.29 517.19 217.29 519.49 217.29 521.59 217.29 523.89 217.29 526.09 217.29 528.39 217.29 530.49 217.29 532.89 217.29 534.99 217.29 537.29 217.29 538.69 209.39 538.69 209.39 546.49 217.29 546.49 218.39 546.49 219.19 546.49 220.19 546.49 221.29 546.49 222.09 546.49 223.99 546.49 225.09 546.49 225.89 546.49 227.79 546.49 228.89 546.49 229.79 546.49 231.69 546.49 232.79 546.49 233.59 546.49 235.49 546.49 236.59 546.49 237.39 546.49 239.29 546.49 240.39 546.49 241.29 546.49 243.19 546.49 244.29 546.49 246.99 546.49 248.09 546.49 248.89 546.49 250.79 546.49 251.89 546.49 252.69 546.49 253.69 546.49 254.49 546.49 254.79 546.49 254.79 538.69 254.79 537.29 254.79 534.99 254.79 532.89 254.79 530.49 254.79 528.39 254.79 526.09 254.79 523.89 254.79 521.59 254.79 519.49 254.79 517.19 254.79 514.99 254.79 512.69 254.79 510.59 254.79 508.19 254.79 506.09 254.79 503.79 254.79 501.59 254.79 499.29 254.79 497.19 254.79 494.89 254.79 492.59 254.79 490.39 254.79 488.19 254.79 485.89 254.79 483.69 254.79 481.49 254.79 479.19 254.79 476.99 254.79 474.79 254.79 472.49 254.79 470.29 254.79 467.99 254.79 465.89 254.79 463.49 254.79 461.39 254.79 459.09 254.79 456.99 254.79 454.59 254.79 452.49 254.79 450.19 254.79 447.99 254.79 445.69 254.79 445.29 254.79 443.59 254.49 443.59"/><path class="cls-5" d="M370.59,387.29h0l-4.2-4v-.1h-.2l-.7-.7-2.6-2.4h0L347.59,366l-.1-.2h0l-3.7-3.4-.1-.1s-.6-.6-.9-.6h-.5a.56.56,0,0,0-.5.6c0,.1,0,.1.1.2v166.1h13.7v.1h5.7v-.1h11.1v.1h5.7v-.1h11.6V405.19Zm-14.3-7.1-5.1-8.2,7,8.2Zm-1.4,0H353l-3.2-8.2Zm6.6,0h-1.9l-6.9-8.1ZM346,365.89h0l-2.8,5.9v-8.4Zm-2.8,8.1,3.3-6.9,5,13.1h-8.3Z" transform="translate(18 18)"/><polygon class="cls-5" points="531.69 523.19 531.69 523.19 531.69 523.19 531.69 466.19 533.19 466.19 533.19 463.89 531.69 463.89 531.69 450.49 531.69 450.49 530.19 450.49 530.09 450.49 530.09 381.89 528.99 381.89 528.09 381.89 527.59 381.89 527.59 381.89 526.69 381.89 526.69 344.19 526.69 338.29 526.49 338.29 525.69 338.29 522.39 333.99 522.29 333.99 507.09 315.29 488.49 338.29 487.59 338.29 487.59 344.19 487.59 381.89 486.89 381.89 486.49 381.89 486.29 381.89 485.39 381.89 484.29 381.89 484.29 450.49 484.19 450.49 482.69 450.49 482.69 463.89 481.29 463.89 481.29 466.19 482.69 466.19 482.69 468.49 482.69 469.89 482.69 471.49 482.69 473.59 482.69 475.29 482.69 477.29 482.69 478.99 482.69 481.09 482.69 482.79 482.69 484.69 482.69 486.39 482.69 488.49 482.69 490.19 482.69 492.19 482.69 493.89 482.69 495.99 482.69 497.59 482.69 499.59 482.69 501.29 482.69 503.39 482.69 505.09 482.69 507.09 482.69 508.79 482.69 510.79 482.69 512.49 482.69 514.49 482.69 516.19 482.69 518.29 482.69 519.99 482.69 521.99 482.69 523.19 479.79 523.19 479.79 539.49 479.79 541.19 479.79 541.99 479.79 546.09 484.19 546.09 484.29 546.09 484.29 546.69 501.49 546.69 503.29 546.69 503.99 546.69 506.49 546.69 507.19 546.69 509.69 546.69 510.29 546.69 512.19 546.69 530.09 546.69 530.09 546.09 534.09 546.09 534.09 541.99 534.09 541.19 534.09 539.49 534.09 523.19 531.69 523.19"/><path class="cls-4" d="M405.09,528.19c-.7-15.4-13.5-27.4-28.4-26.6-14,.7-25.1,12.2-25.8,26.6Z" transform="translate(18 18)"/><polygon class="cls-5" points="672.09 359.89 672.09 357.79 626.49 357.79 626.49 359.89 619.89 359.89 619.89 546.49 626.49 546.49 627.99 546.49 670.89 546.49 672.09 546.49 672.09 546.69 678.99 546.69 678.99 546.49 678.99 369.29 678.99 359.89 672.09 359.89"/><polygon class="cls-6" points="191.59 432.09 191.19 432.09 138.09 432.09 136.99 432.09 136.69 432.09 136.69 434.79 136.69 435.59 136.69 437.39 136.69 438.09 136.69 439.89 136.69 440.59 136.69 442.49 136.69 443.29 136.69 445.09 136.69 445.79 136.69 447.59 136.69 448.29 136.69 450.19 136.69 450.99 136.69 452.79 136.69 453.49 136.69 454.39 136.69 455.29 136.69 455.99 136.69 457.89 136.69 458.69 136.69 460.49 136.69 461.19 136.69 462.99 136.69 463.79 136.69 465.69 136.69 466.39 136.69 468.19 136.69 468.89 136.69 470.69 136.69 471.49 136.69 473.39 136.69 474.09 136.69 475.89 136.69 476.59 136.69 478.39 136.69 479.19 136.69 481.09 136.69 481.79 136.69 483.59 136.69 484.29 136.69 486.09 136.69 486.99 136.69 488.79 136.69 489.49 136.69 491.29 136.69 491.99 136.69 493.79 136.69 494.69 136.69 496.49 136.69 497.19 136.69 498.99 136.69 499.79 136.69 501.49 136.69 502.39 136.69 504.19 136.69 504.89 136.69 506.69 136.69 507.49 136.69 509.29 136.69 510.09 136.69 511.89 136.69 512.59 136.69 514.39 136.69 515.19 136.69 516.99 136.69 517.79 136.69 519.59 136.69 520.29 136.69 522.09 136.69 522.89 136.69 524.79 136.69 525.49 136.69 527.29 136.69 527.99 136.69 529.79 136.69 530.59 136.69 532.49 136.69 533.19 136.69 534.99 136.69 535.69 136.69 537.49 136.69 538.29 136.69 540.19 136.69 540.89 136.69 542.69 136.69 543.49 136.69 545.29 136.69 545.99 136.69 547.89 136.69 548.59 136.69 548.69 137.89 548.69 137.89 548.69 138.59 548.69 138.59 548.69 140.29 548.69 140.29 548.69 140.99 548.69 140.99 548.69 142.69 548.69 142.69 548.69 143.39 548.69 143.39 548.69 144.99 548.69 144.99 548.69 145.69 548.69 145.69 548.69 147.39 548.69 147.39 548.69 148.09 548.69 148.09 548.69 149.69 548.69 149.69 548.69 150.39 548.69 150.39 548.69 151.99 548.69 151.99 548.69 152.69 548.69 152.69 548.69 154.39 548.69 154.39 548.69 155.09 548.69 155.09 548.69 156.69 548.69 156.69 548.69 157.39 548.69 157.39 548.69 158.99 548.69 158.99 548.69 159.69 548.69 159.69 548.69 161.39 548.69 161.39 548.69 162.09 548.69 162.09 548.69 163.69 548.69 163.69 548.69 164.39 548.69 164.39 548.69 164.49 548.69 165.99 548.69 165.99 548.69 166.69 548.69 166.69 548.69 168.39 548.69 168.39 548.69 169.09 548.69 169.09 548.69 170.69 548.69 170.69 548.69 171.39 548.69 171.39 548.69 172.99 548.69 172.99 548.69 173.69 548.69 173.69 548.69 175.39 548.69 175.39 548.69 176.09 548.69 176.09 548.69 177.69 548.69 177.69 548.69 178.39 548.69 178.39 548.69 179.99 548.69 179.99 548.69 180.69 548.69 180.69 548.69 182.39 548.69 182.39 548.69 183.09 548.69 183.09 548.69 184.69 548.69 184.69 548.69 185.39 548.69 185.39 548.69 187.09 548.69 187.09 548.69 187.69 548.69 187.69 548.69 189.39 548.69 189.39 548.69 190.09 548.69 190.09 548.69 191.59 548.69 191.59 548.69 192.19 548.69 192.19 548.69 192.19 548.59 192.19 547.89 192.19 545.99 192.19 545.29 192.19 543.49 192.19 542.69 192.19 540.89 192.19 540.19 192.19 538.29 192.19 537.49 192.19 535.69 192.19 534.99 192.19 533.19 192.19 532.49 192.19 530.59 192.19 529.79 192.19 527.99 192.19 527.29 192.19 525.49 192.19 524.79 192.19 522.89 192.19 522.09 192.19 520.29 192.19 519.59 192.19 517.79 192.19 516.99 192.19 515.19 192.19 514.39 192.19 512.59 192.19 511.89 192.19 510.09 192.19 509.29 192.19 507.49 192.19 506.69 192.19 504.89 192.19 504.19 192.19 502.39 192.19 501.49 192.19 499.79 192.19 498.99 192.19 497.19 192.19 496.49 192.19 494.69 192.19 493.79 192.19 491.99 192.19 491.29 192.19 489.49 192.19 488.79 192.19 486.99 192.19 486.09 192.19 484.29 192.19 483.59 192.19 481.79 192.19 481.09 192.19 479.19 192.19 478.39 192.19 476.59 192.19 475.89 192.19 474.09 192.19 473.39 192.19 471.49 192.19 470.69 192.19 468.89 192.19 468.19 192.19 466.39 192.19 465.69 192.19 463.79 192.19 462.99 192.19 461.19 192.19 460.49 192.19 458.69 192.19 457.89 192.19 455.99 192.19 455.29 192.19 454.39 192.19 453.49 192.19 452.79 192.19 450.99 192.19 450.19 192.19 448.29 192.19 447.59 192.19 445.79 192.19 445.09 192.19 443.29 192.19 442.49 192.19 440.59 192.19 439.89 192.19 438.09 192.19 437.39 192.19 435.59 192.19 434.79 192.19 432.09 191.59 432.09"/><polygon class="cls-6" points="79.99 422.39 79.59 422.39 79.49 422.39 79.49 421.59 72.29 421.59 72.29 417.09 45.39 417.09 45.39 421.59 38.19 421.59 38.19 422.39 37.59 422.39 37.59 422.39 37.59 548.19 37.59 548.19 38.19 548.19 39.39 548.19 39.39 548.29 39.79 548.29 39.79 548.19 40.09 548.19 40.69 548.19 41.39 548.19 41.39 548.29 41.79 548.29 41.79 548.19 42.09 548.19 42.69 548.19 43.39 548.19 43.39 548.29 43.79 548.29 43.79 548.19 44.09 548.19 44.69 548.19 45.39 548.19 45.39 548.29 45.79 548.29 45.79 548.19 46.09 548.19 46.69 548.19 47.39 548.19 47.39 548.29 47.79 548.29 47.79 548.19 48.09 548.19 48.69 548.19 49.39 548.19 49.39 548.29 49.79 548.29 49.79 548.19 50.09 548.19 50.69 548.19 51.39 548.19 51.39 548.29 51.79 548.29 51.79 548.19 52.19 548.19 52.19 548.29 52.59 548.29 52.59 548.19 53.49 548.19 53.49 548.29 53.79 548.29 53.79 548.19 54.29 548.19 54.29 548.29 54.59 548.29 54.59 548.19 55.49 548.19 55.49 548.29 55.89 548.29 55.89 548.19 56.29 548.19 56.29 548.29 56.59 548.29 56.59 548.19 57.49 548.19 57.49 548.29 57.89 548.29 57.89 548.19 58.29 548.19 58.29 548.29 58.59 548.29 58.59 548.19 59.49 548.19 59.49 548.29 59.89 548.29 59.89 548.19 60.29 548.19 60.29 548.29 60.69 548.29 60.69 548.19 61.49 548.19 61.49 548.29 61.89 548.29 61.89 548.19 62.29 548.19 62.29 548.29 62.69 548.29 62.69 548.19 63.49 548.19 63.49 548.29 63.89 548.29 63.89 548.19 64.29 548.19 64.29 548.29 64.69 548.29 64.69 548.19 65.49 548.19 65.49 548.29 65.89 548.29 65.89 548.19 66.29 548.19 66.29 548.29 66.69 548.29 66.69 548.19 66.89 548.19 67.49 548.19 67.49 548.19 67.49 548.29 67.89 548.29 67.89 548.19 68.89 548.19 69.49 548.19 69.49 548.19 69.49 548.29 69.89 548.29 69.89 548.19 70.89 548.19 71.49 548.19 71.59 548.19 71.59 548.29 71.89 548.29 71.89 548.19 72.89 548.19 73.49 548.19 73.59 548.19 73.59 548.29 73.89 548.29 73.89 548.19 74.89 548.19 75.49 548.19 75.59 548.19 75.59 548.29 75.99 548.29 75.99 548.19 76.89 548.19 77.49 548.19 77.59 548.19 77.59 548.29 77.99 548.29 77.99 548.19 78.79 548.19 78.79 548.29 79.39 548.29 79.39 548.19 79.49 548.19 79.59 548.19 79.59 548.29 79.99 548.29 79.99 548.19 80.09 548.19 80.09 547.59 80.09 546.79 80.09 544.99 80.09 544.39 80.09 542.49 80.09 541.89 80.09 540.09 80.09 539.29 80.09 537.49 80.09 536.89 80.09 534.99 80.09 534.39 80.09 532.59 80.09 531.79 80.09 529.99 80.09 529.39 80.09 527.49 80.09 526.89 80.09 525.09 80.09 524.39 80.09 522.49 80.09 521.89 80.09 519.99 80.09 519.39 80.09 517.59 80.09 516.79 80.09 514.99 80.09 514.39 80.09 512.49 80.09 511.89 80.09 510.09 80.09 509.29 80.09 507.49 80.09 506.89 80.09 504.99 80.09 504.39 80.09 502.59 80.09 501.79 80.09 499.99 80.09 499.39 80.09 497.49 80.09 496.89 80.09 495.09 80.09 494.29 80.09 492.49 80.09 491.89 80.09 489.99 80.09 489.39 80.09 487.59 80.09 486.79 80.09 484.99 80.09 484.39 80.09 482.49 80.09 481.89 80.09 480.09 80.09 479.39 80.09 477.49 80.09 476.89 80.09 474.99 80.09 474.39 80.09 472.59 80.09 471.89 80.09 469.99 80.09 469.39 80.09 467.49 80.09 466.89 80.09 465.09 80.09 464.39 80.09 462.49 80.09 461.89 80.09 459.99 80.09 459.39 80.09 457.59 80.09 456.89 80.09 454.99 80.09 454.39 80.09 452.49 80.09 451.89 80.09 450.09 80.09 449.39 80.09 447.49 80.09 446.89 80.09 444.99 80.09 444.39 80.09 442.59 80.09 441.89 80.09 439.99 80.09 439.39 80.09 437.49 80.09 436.89 80.09 435.09 80.09 434.39 80.09 432.49 80.09 431.89 80.09 429.99 80.09 429.39 80.09 427.59 80.09 426.89 80.09 424.99 80.09 424.39 80.09 423.59 80.09 422.39 79.99 422.39"/><path class="cls-6" d="M314.89,498.59h-.4l-9.9-4.9h0l-6.5,3.1v-3.1h.4v-1.1h-.4v-1.1h-17.6v1.1h-.4v1.1h.4v3.2H278l-1-.6h.1v-5.2h-.3v-2.2h-2.7V486h.8v-2.4h-1.1v-.2h-.5v-9.1h.5v-1.2h.2V472h.2v-1.1h.3v-1.1h.2v-.7h-1.1v-.3h-1.4l.6-.9h-1.1v-.3h-.4v-4h.4v-1.2h-.9V462h.2v-.2h-.3a16,16,0,0,0-5.3-10l-1.9-1.7h0l-.1-.1-.4-.4h.3v-1.2h-.7v-.2h-.4v-.4H262v-.9h.2v-.4H261v-2.7h.2v-.4h.4V443h-.2a3.5,3.5,0,0,0-1.4-2.8h0v-.4h.1v-.5h-.2V439h-1v-1.3a.52.52,0,0,0-.2-.4c0-.1.1-.1.1-.2v-.3c0-.2-.1-.3-.2-.3s-.3.1-.3.2v.4c0,.1,0,.1.1.2a.52.52,0,0,0-.2.4V439h-1v.3h-.3v.5h.1v.4h0a3.37,3.37,0,0,0-1.4,2.8h-.3v.4h.4v.3h.3v2.8h-1.2v.4h.2v.9h-.2v.4h-.2v.2h-.8v1.1h.4l-.5.4-.1.1h0l-1.8,1.7a15.71,15.71,0,0,0-5.3,10h-.3v.2h.3v.4h-1.1v1.2h.5v4h-.5v.3h-1l.6.9h-1.5v.3h-1.1v.6h.2v1.1h.3v1.1h.1v1.1h.2v1.2h.5v9.1h-.5v.2h-.5V485h-.2v.8h.7v2.9h-2.6v2.2H240v5.2h.1l-1,.6h-2.5v-2.2h0v-1.1h.4v-1.1h-.4v-.9H219v1.1h-.4v1.1h.4v3.1l-6.5-3.2h0l-9.9,4.9h-.4v1.8h.4v.7h1.3v17.8h-.6v1.1h.6v10.9h109.3v-10.8h.6v-1.1h-.6v-17.7h1.3v-.7h.5v-1.8Zm-56.1,2.6,15.9,0-.1-16h-.3v-1.1h.3Zm-.5-1v1.1h-.2v-1.1Zm-12.5-37.1v.9H261v-.9Zm-6.2,0h.6v.9h-.6ZM243,485.19v-1.1h.2v1.1Zm-30.5,16" transform="translate(18 18)"/><polygon class="cls-6" points="385.09 510.49 384.19 510.49 384.19 509.89 382.89 509.89 382.89 510.49 377.39 510.49 376.29 510.49 376.29 509.89 374.89 509.89 374.89 510.49 373.99 510.49 373.99 530.09 363.09 527.09 363.09 527.09 363.19 527.09 363.19 526.19 363.29 526.19 363.29 525.39 355.59 525.39 355.59 526.19 355.79 526.19 355.79 527.09 355.79 527.09 348.09 529.59 348.09 520.89 348.09 520.89 347.79 520.89 347.79 519.99 347.79 519.99 347.09 519.99 346.29 519.99 346.29 520.89 345.99 520.89 345.99 530.29 343.99 530.99 343.99 531.89 344.29 531.79 344.29 533.19 342.09 540.89 342.09 548.29 344.29 548.29 344.29 548.29 344.79 548.29 344.79 548.29 345.29 548.29 345.29 548.29 346.69 548.29 348.39 548.29 348.39 548.29 351.29 548.29 351.29 548.29 352.69 548.29 354.49 548.29 354.49 548.29 354.79 548.29 354.79 548.29 355.99 548.29 355.99 548.29 362.59 548.29 362.59 548.29 363.69 548.29 363.69 548.29 366.29 548.29 366.29 548.29 367.59 548.29 369.39 548.29 369.39 548.29 372.29 548.29 372.29 548.29 373.69 548.29 373.69 548.29 373.99 548.29 374.49 548.29 374.59 548.29 374.89 548.29 376.29 548.29 376.79 548.29 377.39 548.29 382.89 548.29 384.19 548.29 385.09 548.29 385.09 548.29 385.09 539.09 385.09 510.49"/><polygon class="cls-6" points="492.99 540.79 492.99 511.49 492.99 511.49 492.99 509.69 493.49 509.69 493.49 507.89 492.99 507.89 492.99 502.09 472.39 502.09 472.39 495.69 433.09 495.69 432.99 495.69 410.29 495.69 410.29 502.09 402.39 502.09 402.39 507.89 401.49 507.89 401.49 509.69 402.39 509.69 402.39 511.49 402.39 540.79 401.49 540.79 401.49 547.19 432.99 547.19 433.09 547.19 433.79 547.19 465.99 547.19 493.99 547.19 493.99 540.79 492.99 540.79"/><polygon class="cls-6" points="572.99 530.29 572.99 492.59 572.99 491.39 572.99 485.09 568.29 485.09 568.29 473.39 564.29 473.39 564.29 458.89 564.29 457.69 564.69 457.69 564.69 456.09 564.29 456.09 564.29 455.19 560.29 455.19 549.39 449.39 538.59 455.19 534.59 455.19 534.59 456.09 534.19 456.09 534.19 457.69 534.59 457.69 534.59 458.89 534.59 473.39 530.59 473.39 530.59 484.79 525.79 484.79 525.79 491.39 525.79 492.59 525.79 530.29 507.69 530.29 507.69 547.19 536.59 547.19 537.19 547.19 538.89 547.19 538.89 547.19 539.79 547.19 543.79 547.19 543.79 547.19 544.09 547.19 545.39 547.19 545.79 547.19 545.79 547.19 546.29 547.19 552.99 547.19 553.19 547.19 554.69 547.19 555.59 547.19 559.49 547.19 559.59 547.19 559.89 547.19 561.19 547.19 561.99 547.19 562.39 547.19 591.19 547.19 591.19 543.99 591.19 540.99 591.19 538.19 591.19 535.19 591.19 530.29 572.99 530.29"/><rect class="cls-6" x="646.49" y="421.69" width="64.4" height="125.2"/><rect class="cls-7" x="649.09" y="421.69" width="0.8" height="125.2"/><rect class="cls-8" x="649.89" y="421.69" width="0.8" height="125.2"/><rect class="cls-7" x="653.69" y="421.69" width="0.8" height="125.2"/><rect class="cls-8" x="654.59" y="421.69" width="0.8" height="125.2"/><rect class="cls-7" x="662.19" y="421.69" width="0.8" height="125.2"/><rect class="cls-8" x="663.09" y="421.69" width="0.8" height="125.2"/><rect class="cls-7" x="671.09" y="421.69" width="0.8" height="125.2"/><rect class="cls-8" x="671.89" y="421.69" width="0.8" height="125.2"/><rect class="cls-7" x="679.29" y="421.69" width="0.8" height="125.2"/><rect class="cls-8" x="680.19" y="421.69" width="0.8" height="125.2"/><rect class="cls-7" x="687.49" y="421.69" width="0.8" height="125.2"/><rect class="cls-8" x="688.39" y="421.69" width="0.8" height="125.2"/><rect class="cls-7" x="695.69" y="421.69" width="0.8" height="125.2"/><rect class="cls-8" x="696.59" y="421.69" width="0.8" height="125.2"/><rect class="cls-7" x="702.99" y="421.69" width="0.8" height="125.2"/><rect class="cls-8" x="703.89" y="421.69" width="0.8" height="125.2"/><rect class="cls-7" x="646.49" y="426.09" width="64.3" height="1.4"/><rect class="cls-8" x="646.49" y="427.59" width="64.3" height="1.4"/><rect class="cls-7" x="646.49" y="439.29" width="64.3" height="1.4"/><rect class="cls-8" x="646.49" y="440.69" width="64.3" height="1.4"/><rect class="cls-7" x="646.49" y="452.39" width="64.3" height="1.4"/><rect class="cls-8" x="646.49" y="453.79" width="64.3" height="1.4"/><rect class="cls-7" x="646.49" y="465.49" width="64.3" height="1.4"/><rect class="cls-8" x="646.49" y="466.89" width="64.3" height="1.4"/><rect class="cls-7" x="646.49" y="478.59" width="64.3" height="1.4"/><rect class="cls-8" x="646.49" y="480.09" width="64.3" height="1.4"/><rect class="cls-7" x="646.49" y="491.69" width="64.3" height="1.4"/><rect class="cls-8" x="646.49" y="493.09" width="64.3" height="1.4"/><rect class="cls-7" x="646.49" y="504.89" width="64.3" height="1.4"/><rect class="cls-8" x="646.49" y="506.19" width="64.3" height="1.4"/><rect class="cls-7" x="646.49" y="519.79" width="64.3" height="1.4"/><rect class="cls-8" x="646.49" y="521.19" width="64.3" height="1.4"/><rect class="cls-7" x="646.49" y="534.79" width="64.3" height="1.4"/><rect class="cls-8" x="646.49" y="536.19" width="64.3" height="1.4"/><rect class="cls-7" x="658.09" y="421.69" width="0.8" height="125.2"/><rect class="cls-8" x="658.89" y="421.69" width="0.8" height="125.2"/><rect class="cls-7" x="667.09" y="421.69" width="0.8" height="125.2"/><rect class="cls-8" x="667.89" y="421.69" width="0.8" height="125.2"/><rect class="cls-7" x="675.19" y="421.69" width="0.8" height="125.2"/><rect class="cls-8" x="675.99" y="421.69" width="0.8" height="125.2"/><rect class="cls-7" x="683.19" y="421.69" width="0.8" height="125.2"/><rect class="cls-8" x="683.99" y="421.69" width="0.8" height="125.2"/><rect class="cls-7" x="691.39" y="421.69" width="0.8" height="125.2"/><rect class="cls-8" x="692.19" y="421.69" width="0.8" height="125.2"/><rect class="cls-7" x="699.59" y="421.69" width="0.8" height="125.2"/><rect class="cls-8" x="700.39" y="421.69" width="0.8" height="125.2"/><rect class="cls-7" x="706.39" y="421.69" width="0.8" height="125.2"/><rect class="cls-8" x="707.29" y="421.69" width="0.8" height="125.2"/><polygon class="cls-6" points="678.69 454.89 646.49 424.49 646.49 421.69 678.69 452.09 678.69 454.89"/><polygon class="cls-6" points="678.69 454.89 710.89 424.49 710.89 421.69 678.69 452.09 678.69 454.89"/><rect class="cls-6" x="651.69" y="421.69" width="1" height="7.3"/><rect class="cls-6" x="656.49" y="421.69" width="1" height="11.4"/><rect class="cls-6" x="660.39" y="421.69" width="1" height="14.8"/><rect class="cls-6" x="665.09" y="421.69" width="1" height="19.7"/><rect class="cls-6" x="669.29" y="421.69" width="1" height="23.6"/><rect class="cls-6" x="673.39" y="421.69" width="1" height="27.2"/><rect class="cls-6" x="677.69" y="421.69" width="1" height="30.4"/><rect class="cls-6" x="681.49" y="421.69" width="1" height="28.5"/><rect class="cls-6" x="685.79" y="421.69" width="1" height="24.6"/><rect class="cls-6" x="689.69" y="421.69" width="1" height="21.3"/><rect class="cls-6" x="693.99" y="421.69" width="1" height="17.1"/><rect class="cls-6" x="697.89" y="421.69" width="1" height="13.6"/><rect class="cls-6" x="701.59" y="421.69" width="1" height="10.6"/><rect class="cls-6" x="704.99" y="421.69" width="1" height="6.8"/><rect class="cls-6" x="708.79" y="421.69" width="1" height="3.3"/><rect class="cls-6" x="647.49" y="421.69" width="1" height="3.3"/><path class="cls-5" d="M770.09,521.19v-31.5h-.2v-12.1h-21.6v-5.4h-12.6v5.4h-4v-16h.2v-4.1h.3v-1.4h-.5v-.4h0l-.2-.4-1.1-2.3h0l-.2-.4h0l-.7-1.5v-.3h0v-.7h0v-2.3h0v-2.4h0v-2.3h0v-4.6h0v-1.1h0l-.6-.5h0V435h0v-1.8h-.3v-1.8h-.2v1.8h-.2V435h0v1.9h0l-.6.5h0v1.1h0v4.6h0v2.3h0v2.3h0v3h0v.1l-.7,1.5h0l-.2.4h0l-.3.7h0l-1,2.1v.4h-.7v1.4h.3v4.1h.2v16.1h-7v12.1h-.1v31.5h-.5v7.8h53v-7.8h-.5ZM728,447.79v-.4l.3.2v.2h0v.2H728v-.2Zm0-4.6v-.5l.3.2v.2h0v.2H728v-.1Zm1.3,4.6v.2H729v-.2h0v-.2l.3-.3ZM728,441v-.4l.3.2v.2h0v.1H728Zm0-2.3v-.4l.3.2v.2h0v.2H728v-.2Zm1.3,2.2v.2H729V441h0v-.2l.3-.3v.4Zm0,8.5H729v-.8l.1-.1.2.2Zm-1.9,3,.2-.2h.7v.9l-.3-.3h0l-.6-.4Zm2.6,0h0l-.6.5h.2l.5-.4.2.4.3.6h-1.5v-.2l.6-.4h-.2l-.4.3v-.9h.7Zm-4.1,3.4h0l.7-.6.2.6Zm.8-1.8.7.5-.7.5v-1Zm1.4-3Zm.2,0h0l.1.2-.1-.1Zm.7,4.8v-.1l.2-.1-.2.2Zm-.8,0-.1-.2.2.1-.1.1Zm-.4-1.1.5.3v.6l-.2-.2Zm.1.6-.7-.5.4-.3ZM729,454l.6.4-.6.4Zm0,1.6V455l.5-.3-.3.7Zm.7-1,.4.2-.6.5Zm.1-.1.7-.5v1Zm.9.5v-.8l.3.7Zm.4-.1.3.6-.6-.4Zm-1.4-.5-.7-.5v-.1h1.5Zm-1.4-2.9v.2l-.1.1v-.4Zm0,.4v.3h-.5Zm0,3-.6-.4h0l.6-.5Zm-1.7.1-.2-.2.2-.5Zm0,.1-.5.3.2-.5Zm.2,0,.4-.3.8.6.2.4h-1.1Zm1.6.8v.3h-1.2l-.1-.3Zm.6,0h1.3l-.1.3H729Zm.2-.1.2-.4.8-.5.4.3-.3.6Zm1.5-.6.7.5h-1Zm-1.7-3v-.4l.6.4Zm0-.5v-.2l.1-.1v.4Zm-.6-.8h-.3v-.1l.3-.2Zm-.2.4v.6l-.6.4h0l.5-1.1Zm-.4,1.7.6.4v.2h-1.5l.4-1Zm.5.8-.7.5-.8-.5h1.5Zm-2.4,2.1h1l.1.3h-.7l-.4-.3Zm4.4.3.1-.3h1l-.4.3Zm-.4-4-.6-.4v-.6l.1-.1.5,1.1Zm-.6-1.2Zm-.2,0v.2l-.1.1v-.2h.1Zm-1-1.4h.3v.1l-.3-.1Zm0-3.7h.3v.1l-.1.1-.2-.2Zm0-1h.3v.2l-.3-.2Zm0-3.6h.3v.1l-.1.1-.2-.2Zm0-.9h.3v.2Zm0-1.3h.3v.1l-.1.1-.2-.2Zm0-1.1h.3v.2l-.3-.2Zm1.3,4.5h-.3v-.8l.1-.1.2.2Zm-.4-1Zm.2,0,.1-.1v.2Zm.2-.3-.2.2-.1-.1v-.1Zm-.4-.8h.3l-.3.2Zm0-1.1Zm0,6.8Zm0-2.3Zm0,4.7Zm.2,0,.1-.1v.2Zm.2-.3-.2.2-.1-.1v-.1Zm-.4-.9h.3l-.3.2Zm.4-.2h-.3v-.8l.1-.1.2.2Zm-.2-1,.1-.1v.2Zm.2-.3-.2.2-.1-.1v-.1Zm-.4-.9h.3l-.3.3Zm.4-.1h-.3V444l.1-.1.2.2Zm-.2-1,.1-.1v.2Zm.2-.3-.2.2-.1-.1v-.1Zm-.4-.9h.3l-.3.2Zm.4-2.3h-.3v-.8l.1-.1.2.2Zm-.2-1,.1-.1v.2Zm.2-.3-.2.2-.1-.1V439Zm-.4-1h.3l-.3.2Zm0-.1v-.3l.3.2Zm-.6,0h-.3l.3-.2Zm-.2,1.4Zm.1.1h0l.1.9h-.3v-.7Zm-.1,2.1Zm.1.1h0l.1.9h-.3v-.7Zm-.2,1h.3v.2l-.3-.2Zm.2,1.1h0l-.3-.1h0l.3.1Zm-.1.1Zm.1.1h0l.1.9h-.3v-.7Zm-.2,1.2.3.2v.2h0v.2h-.3Zm.1,1Zm.1.2h0l.1.9h-.3v-.7Zm-.2,1h.3v.2l-.3-.2Zm.2,1.1h0l-.3-.1h0l.3.1Zm-.1.1Zm.1.1h0l.1.9h-.3v-.8Zm-.2,1.2.3.2v.4l-.3.2v-.8Zm-2.2,6.3.2.1h-.2Zm5.4.1.1-.1v.1Zm-2-5.4H729v-.3l.3.3Zm-.3-1.3h.3l-.3.3Zm.3-3.8H729v-.2h0v-.1l.3-.3v.6Zm0-2.3H729v-.2h0V443l.3-.3v.5h0Zm-.3-4.5v-.2h0v-.3l.4-.3v.4h0v.2H729Zm.3-1.2-.3-.2h.3Zm-1.3-.1v-.2h.2Zm1.5,12.5h0l-.1.5-.3-.3v-.4l.3-.3v.4l.1.1Zm-.1-12.8H729V437Zm-.6-.4-.2-3.7h.2v.1l-.2-.1Zm0,.3h.2v.1l-.2-.1Zm0,.2h.2v.1l-.2-.1Zm0,.2h.2v.1l-.2-.1Zm0,.3h.2v.2h-.2Zm0,.2h.2v.1l-.2-.1Zm0,.3h.2v.1l-.2-.1Zm0,.2h.2v.1l-.2-.1Zm0,.3h.2v.1l-.2-.1Zm0,.2h.2v.1l-.2-.1Zm0,.3h.2v.1l-.2-.1Zm0,.2h.2v.1l-.2-.1Zm0,.2h.2v.1l-.2-.1Zm0,.3h.2v.2h-.2Zm.2.2h0l-.2.1v-.1Zm-.4.7H728l.4-.3Z" transform="translate(18 18)"/><path class="cls-4" d="M185.19,528.19c-.7-16.2-14-28.8-29.8-28.2-14.8.7-26.7,12.9-27.3,28.2Z" transform="translate(18 18)"/><path class="cls-4" d="M90.89,528.09c-.7-16.2-14-28.8-29.8-28.2-14.8.7-26.7,12.9-27.3,28.2Z" transform="translate(18 18)"/><path class="cls-3" d="M67.39,522.39a7.64,7.64,0,0,1-7.6,7.8,7.73,7.73,0,0,1-7.6-7.9,7.64,7.64,0,0,1,7.6-7.8,7.79,7.79,0,0,1,7.6,7.9Z" transform="translate(18 18)"/><path class="cls-3" d="M177.39,523.59a5.34,5.34,0,0,1-5.2,5.4,5.4,5.4,0,0,1,0-10.8h0A5.4,5.4,0,0,1,177.39,523.59Z" transform="translate(18 18)"/><path class="cls-3" d="M51.29,518.69a12.72,12.72,0,0,1-12.5,12.9,12.91,12.91,0,0,1,0-25.8h0A12.72,12.72,0,0,1,51.29,518.69Z" transform="translate(18 18)"/><path class="cls-2" d="M33.79,523.79a7.6,7.6,0,1,1-7.6-7.8h0A7.64,7.64,0,0,1,33.79,523.79Z" transform="translate(18 18)"/><path class="cls-3" d="M378,527.49a12.1,12.1,0,0,0-24.2,0Z" transform="translate(18 18)"/><path class="cls-3" d="M314.79,528.29a12.1,12.1,0,0,0-24.2,0Z" transform="translate(18 18)"/><path class="cls-4" d="M609.59,528.09a21.91,21.91,0,0,0-22.6-21.3c-11.2.5-20.1,9.7-20.6,21.3Z" transform="translate(18 18)"/><path class="cls-3" d="M208.29,528.29a12.1,12.1,0,0,0-24.2,0Z" transform="translate(18 18)"/><path class="cls-3" d="M612.09,522.39a5.14,5.14,0,0,0-3.7,1.5,5.19,5.19,0,0,0-7.3,0,5.34,5.34,0,0,0-7.5.2,4.76,4.76,0,0,0-1.4,3.4h25.1A5.35,5.35,0,0,0,612.09,522.39Z" transform="translate(18 18)"/><path class="cls-2" d="M628.09,524.09a3.87,3.87,0,0,1-5.3,0,3.63,3.63,0,0,0-2.6,1.1,3.8,3.8,0,0,0-5.4.1,4,4,0,0,0-1,2.5h18A3.76,3.76,0,0,0,628.09,524.09Z" transform="translate(18 18)"/><path class="cls-2" d="M591.19,523.89a3.87,3.87,0,0,1-5.3,0,3.74,3.74,0,0,1-5.2,0,3.84,3.84,0,0,0-3.8,3.7h18A3.69,3.69,0,0,0,591.19,523.89Z" transform="translate(18 18)"/><path class="cls-2" d="M481.79,523.79a3.63,3.63,0,0,0-2.6,1.1,3.74,3.74,0,0,0-5.2,0,3.8,3.8,0,0,0-5.4.1,4,4,0,0,0-1,2.5h18A3.84,3.84,0,0,0,481.79,523.79Z" transform="translate(18 18)"/><path class="cls-3" d="M389.69,521.39a7.6,7.6,0,1,1-7.6-7.8,7.64,7.64,0,0,1,7.6,7.8Z" transform="translate(18 18)"/><path class="cls-4" d="M386.29,522.29a5.14,5.14,0,0,0-3.7,1.5,5.19,5.19,0,0,0-7.3,0,5.34,5.34,0,0,0-7.5.2,4.76,4.76,0,0,0-1.4,3.4h25.1A5.28,5.28,0,0,0,386.29,522.29Z" transform="translate(18 18)"/><path class="cls-4" d="M359.89,522.39a5.14,5.14,0,0,0-3.7,1.5,5.19,5.19,0,0,0-7.3,0,5.34,5.34,0,0,0-7.5.2,4.76,4.76,0,0,0-1.4,3.4h25.1A5.35,5.35,0,0,0,359.89,522.39Z" transform="translate(18 18)"/><path class="cls-2" d="M397.09,523.79a3.63,3.63,0,0,0-2.6,1.1,3.74,3.74,0,0,0-5.2,0,3.8,3.8,0,0,0-5.4.1,4,4,0,0,0-1,2.5h18A3.84,3.84,0,0,0,397.09,523.79Z" transform="translate(18 18)"/><path class="cls-2" d="M350.19,523.79a3.63,3.63,0,0,0-2.6,1.1,3.74,3.74,0,0,0-5.2,0,3.8,3.8,0,0,0-5.4.1,4,4,0,0,0-1,2.5h18A3.78,3.78,0,0,0,350.19,523.79Z" transform="translate(18 18)"/><path class="cls-2" d="M188.59,524a3.63,3.63,0,0,0-2.6,1.1,3.74,3.74,0,0,0-5.2,0,3.8,3.8,0,0,0-5.4.1,4,4,0,0,0-1,2.5h18A3.84,3.84,0,0,0,188.59,524Z" transform="translate(18 18)"/><path class="cls-4" d="M736.69,528.89a13.3,13.3,0,0,0-26.6,0Z" transform="translate(18 18)"/><path class="cls-4" d="M776.39,528.89a13.25,13.25,0,0,0-26.5,0Z" transform="translate(18 18)"/><path class="cls-3" d="M714.49,522.39a5.83,5.83,0,0,0-4.1,1.7,5.8,5.8,0,0,0-8.1,0,5.77,5.77,0,0,0-8.3.3,6,6,0,0,0-1.6,3.9h28A6.11,6.11,0,0,0,714.49,522.39Z" transform="translate(18 18)"/><path class="cls-2" d="M700.09,524a3.87,3.87,0,0,1-5.3,0,3.74,3.74,0,0,1-5.2,0,3.84,3.84,0,0,0-3.8,3.7h18A3.69,3.69,0,0,0,700.09,524Z" transform="translate(18 18)"/><path class="cls-2" d="M727,524a3.87,3.87,0,0,1-5.3,0,3.74,3.74,0,0,1-5.2,0,3.84,3.84,0,0,0-3.8,3.7h18A3.69,3.69,0,0,0,727,524Z" transform="translate(18 18)"/><path class="cls-2" d="M759.59,524a3.87,3.87,0,0,1-5.3,0,3.74,3.74,0,0,1-5.2,0,3.84,3.84,0,0,0-3.8,3.7h18A3.69,3.69,0,0,0,759.59,524Z" transform="translate(18 18)"/><rect class="cls-9" x="18.19" y="544.79" width="780.1" height="19.2"/></g></g><g id="Text"><g id="Text_White" data-name="Text White"><text class="cls-10" transform="translate(332.93 765.4) rotate(10.5)">S</text><text class="cls-10" transform="matrix(0.99, 0.15, -0.15, 0.99, 349.81, 768.44)">i</text><text class="cls-10" transform="matrix(0.99, 0.12, -0.12, 0.99, 357.59, 769.65)">n</text><text class="cls-10" transform="translate(372.9 771.43) rotate(4.36)">c</text><text class="cls-10" transform="translate(387.52 772.53) rotate(2.06)">e</text><text class="cls-10" transform="translate(402.06 772.97) rotate(0.93)"> </text><text class="cls-10" transform="translate(410.16 773.13) rotate(-1.68)">2</text><text class="cls-10" transform="translate(428.47 772.59) rotate(-4.61)">0</text><text class="cls-10" transform="translate(447.9 771) rotate(-7.66)">0</text><text class="cls-10" transform="translate(467.22 768.36) rotate(-10.65)">4</text><text class="cls-11" transform="translate(141.95 630.84) scale(0.6 1)">Atlanta Developers Conference</text><text class="cls-12" transform="translate(221.36 240.69) rotate(-43.9) scale(0.75 1.25)">A</text><text class="cls-12" transform="translate(249.56 214.03) rotate(-35.74) scale(0.75 1.25)">T</text><text class="cls-12" transform="matrix(0.66, -0.35, 0.58, 1.11, 278.46, 193.65)">L</text><text class="cls-12" transform="matrix(0.7, -0.27, 0.45, 1.16, 309.47, 178.04)"> </text><text class="cls-12" transform="translate(330.64 170.07) rotate(-16.03) scale(0.75 1.25)"> </text><text class="cls-12" transform="translate(351.42 163.65) rotate(-8.45) scale(0.75 1.25)">D</text><text class="cls-12" transform="translate(394.37 157.95) rotate(0.28) scale(0.75 1.25)">E</text><text class="cls-12" transform="matrix(0.74, 0.12, -0.2, 1.23, 429.25, 158.2)">V</text><text class="cls-12" transform="matrix(0.72, 0.21, -0.36, 1.2, 471.02, 165.88)"> </text><text class="cls-12" transform="matrix(0.7, 0.28, -0.46, 1.16, 492.62, 172.54)"> </text><text class="cls-12" transform="matrix(0.65, 0.37, -0.61, 1.09, 513.02, 180.25)">C</text><text class="cls-12" transform="matrix(0.58, 0.47, -0.79, 0.97, 549.85, 201.12)">O</text><text class="cls-12" transform="translate(583.84 229.2) rotate(49.03) scale(0.75 1.25)">N</text><text class="cls-13" transform="translate(307.11 162.47) rotate(-19.29)"></text><text class="cls-13" transform="matrix(0.97, -0.25, 0.25, 0.97, 332.37, 153.73)"> </text><text class="cls-13" transform="translate(350.76 148.98) rotate(-10.11)"> </text><text class="cls-13" transform="translate(369.48 145.57) rotate(-5.99)"> </text><text class="cls-13" transform="translate(388.38 143.5) rotate(-1.92)"> </text><text class="cls-13" transform="translate(407.39 142.79) rotate(2.12)"> </text><text class="cls-13" transform="translate(426.38 143.42) rotate(6.19)"> </text><text class="cls-13" transform="translate(445.3 145.39) rotate(10.31)"> </text><text class="cls-13" transform="matrix(0.97, 0.25, -0.25, 0.97, 463.99, 148.71)"> </text><text class="cls-13" transform="translate(482.28 153.16) rotate(19.29)"></text></g></g></svg>