<svg xmlns="http://www.w3.org/2000/svg" xmlns:xlink="http://www.w3.org/1999/xlink" viewBox="0 0 780 780"><defs><style>.cls-1{fill:url(#linear-gradient);}.cls-2{fill:#a7a9ac;}.cls-3{fill:#d1d3d4;}.cls-4{fill:#808285;}.cls-5{fill:#58595b;}.cls-10,.cls-11,.cls-12,.cls-13,.cls-6,.cls-7,.cls-8{fill:#fff;}.cls-11,.cls-7,.cls-8{isolation:isolate;}.cls-7{opacity:0.4;}.cls-8{opacity:0.1;}.cls-9{fill:#e5e5e5;}.cls-10{font-size:36px;font-family:Oswald-Light, Oswald;font-weight:300;}.cls-11{font-size:65px;letter-spacing:0.08em;}.cls-11,.cls-12{font-family:Oswald-Regular, Oswald;}.cls-12,.cls-13{font-size:100px;}.cls-13{font-family:MyriadPro-Regular, Myriad Pro;}</style><linearGradient id="linear-gradient" x1="390" y1="780" x2="390" gradientUnits="userSpaceOnUse"><stop offset="0" stop-color="#ff8a00"/><stop offset="0.26" stop-color="#fe7e18"/><stop offset="0.75" stop-color="#fd6b40"/><stop offset="1" stop-color="#fd644f"/></linearGradient></defs><g id="Round"><circle class="cls-1" cx="390" cy="390" r="390"/><g id="Cityscape_Round" data-name="Cityscape Round"><polygon class="cls-2" points="456.2 404.1 456.2 407.9 422.7 407.9 422.7 486.6 485.7 486.6 485.7 482.7 485.7 407.9 485.7 404.1 456.2 404.1"/><rect class="cls-2" x="558.7" y="354.2" width="46.9" height="174.9"/><rect class="cls-2" x="497.7" y="380.6" width="46.9" height="149.3"/><polygon class="cls-2" points="680.3 456.3 679.7 456.3 679 456.3 679 455.2 679 453.7 679 451.5 679 450.1 679 447.9 679 446.4 679 444.3 679 442.8 679 440.7 679 439.3 679 437 679 435.6 679 433.4 679 432 679 429.7 679 428.3 679 426.1 679 424.7 679 422.4 679 421 679 418.9 679 417.5 679 415.2 679 413.8 679 411.6 679 410.2 679 407.9 679 406.5 679 405.4 677.5 405.4 677.5 341.1 673.8 341.1 673.8 330.7 673.8 330.7 673.8 330 674.1 330 674.1 329.2 668.1 329.2 668.1 328.3 668.1 328.3 668.1 327.5 668.1 327.5 668.1 326.5 668.1 326.5 668.1 325.6 668.1 325.6 668.1 324.6 668.1 324.6 668.1 323.8 668.1 323.8 668.1 322.8 668.1 322.8 668.1 322.1 668.1 322.1 668.1 321 668.1 321 668.1 320.3 668.1 320.3 668.1 319 668.4 319 668.4 318 665.3 318 665.3 317.3 665.3 317.3 665.3 316.6 665.3 316.6 665.3 315.5 665.3 315.5 665.3 314.8 665.3 314.8 665.3 313.7 665.3 313.7 665.3 313 665.3 313 665.3 312.6 665.3 312 665.3 312 665.3 311.7 665.5 311.7 665.5 310.8 660.6 310.8 660.6 310.8 660.6 310.8 660.6 310.2 660.6 310.2 660.6 309.2 660.6 309.2 660.6 308.4 660.6 308.4 660.6 307.4 660.6 307.4 660.6 306.6 660.6 306.6 660.6 305.6 660.6 305.6 660.6 304.8 660.6 304.8 660.6 303.8 660.6 303.8 660.6 302.9 660.6 302.9 660.6 301.9 660.6 301.9 660.6 301.1 660.6 301.1 660.6 300.9 660.7 300.9 660.7 300 651.4 300 651.4 300.9 651.6 300.9 651.6 301.1 651.6 301.7 651.6 301.9 651.6 302.9 651.6 303.8 651.6 304.8 651.6 305.6 651.6 306.6 651.6 307.4 651.6 308.4 651.6 309.2 651.6 310.2 651.6 310.8 651.6 310.8 646.7 310.8 646.7 311.7 646.9 311.7 646.9 312 646.9 312.6 646.9 313 646.9 313.7 646.9 314.8 646.9 315.5 646.9 316.6 646.9 317.3 646.9 318.2 643.7 318.2 643.7 319 644 319 644 319.9 644 319.9 644 320.3 644 321 644 322.1 644 322.8 644 323.8 644 324.6 644 325.6 644 326.5 644 327.5 644 328.3 644 329.2 637.8 329.2 637.8 330 638.4 330 638.4 330.6 638.4 330.9 638.4 331.1 638.4 331.8 638.4 333.9 638.4 334.8 638.4 335.6 638.4 335.7 638.4 337.7 638.4 338.4 638.4 338.6 638.4 340 638.4 340.2 638.4 341 637.2 341 636.5 341 635.3 341 634.6 341 634.6 405.4 633.1 405.4 633.1 456.3 632.4 456.3 631.8 456.3 631.7 456.3 631.7 515.2 631.7 515.3 631.7 529.9 637.3 529.9 644 529.9 644.7 529.9 646.2 529.9 649.7 529.9 651.4 529.9 652.2 529.9 653.9 529.9 658.2 529.9 659.9 529.9 660.7 529.9 662.3 529.9 665.9 529.9 667.5 529.9 668.2 529.9 674.9 529.9 680.4 529.9 680.4 515.3 680.4 515.2 680.4 456.3 680.3 456.3"/><polygon class="cls-2" points="686.4 360.3 686.7 360.3 687.4 360.3 687.8 360.3 688.5 360.3 688.8 360.3 689.2 360.3 689.2 357.8 699.3 357.8 717.8 357.8 717.8 360.3 719.1 360.3 719.4 360.3 721.1 360.3 721.4 360.3 721.7 360.3 721.7 361.7 721.7 361.9 721.7 363.6 721.7 363.8 721.7 365.4 721.7 365.6 721.7 367.2 721.7 367.4 721.7 369 721.7 369.2 721.7 370.8 721.7 371 721.7 372.7 721.7 372.9 721.7 374.5 721.7 374.7 721.7 376.3 721.7 376.5 721.7 378.1 721.7 378.3 721.7 380 721.7 380.2 721.7 381.8 721.7 382 721.7 383.6 721.7 383.8 721.7 385.4 721.7 385.6 721.7 387.3 721.7 387.5 721.7 389.1 721.7 389.3 721.7 390.9 721.7 391.1 721.7 392.5 724.8 392.5 724.8 393.3 725.6 393.3 725.6 395.4 725.6 395.6 726.9 395.6 727.1 395.6 728.1 395.6 728.1 396.9 728.1 397.1 728.1 398.7 728.1 398.9 728.1 401 728.1 401.2 728.1 403 728.1 403.2 728.1 404.8 728.1 405 728.1 406.6 728.1 406.8 728.1 408.4 728.1 408.6 728.1 410.4 728.1 410.6 728.1 412.2 728.1 412.4 728.1 414.2 728.1 414.4 728.1 416 728.1 416.2 728.1 417.9 728.1 418.1 728.1 419.8 728.1 420 728.1 421.6 728.1 421.8 728.1 423.6 728.1 423.8 728.1 425.5 728.1 425.7 728.1 427.3 728.1 427.5 728.1 427.5 728.1 427.7 728.1 429.3 728.1 429.5 728.1 431.2 728.1 431.4 728.1 433.1 728.1 433.3 728.1 434.9 728.1 435.1 728.1 436.7 728.1 436.9 728.1 438 728.8 438 729 438 730.7 438 731 438 732.5 438 732.5 439.4 732.5 439.6 732.5 441.3 732.5 441.5 732.5 443.1 732.5 443.3 732.5 444.9 732.5 445.1 732.5 446.7 732.5 447 732.5 448.7 732.5 448.9 732.5 450.5 732.5 450.7 732.5 452.3 732.5 452.5 732.5 454.1 732.5 454.5 732.5 455.9 732.5 456.1 732.5 457.7 732.5 458 732.5 459.6 732.5 459.8 732.5 461.4 732.5 461.6 732.5 463.3 732.5 463.5 732.5 465.1 732.5 465.4 732.5 467 732.5 467.2 732.5 468.8 732.5 469 732.5 470.7 732.5 470.9 732.5 472.7 732.5 472.9 732.5 474.5 732.5 474.8 732.5 476.4 732.5 476.6 732.5 478.3 732.5 478.5 732.5 480.1 732.5 480.3 732.5 482 732.5 482.2 732.5 483.8 732.5 484 732.5 485.7 732.5 485.9 732.5 487.5 732.5 487.7 732.5 489.4 732.5 489.6 732.5 491.2 732.5 491.4 732.5 493.1 732.5 493.3 732.5 495 732.5 495.2 732.5 497.1 732.5 497.3 732.5 498.9 732.5 499.1 732.5 500.9 732.5 501.1 732.5 502.7 732.5 502.9 732.5 504.5 732.5 504.7 732.5 506.3 732.5 506.6 732.5 508.3 732.5 508.5 732.5 510.1 732.5 510.3 732.5 511.9 732.5 512.1 732.5 513.7 732.5 514 732.5 515.7 732.5 515.9 732.5 517.5 732.5 517.7 732.5 519.3 732.5 519.5 732.5 521.2 732.5 521.4 732.5 523.1 732.5 523.3 732.5 524.9 732.5 525.1 732.5 526.7 732.5 526.9 732.5 528.6 732.5 528.8 732.5 530.5 732.5 530.7 732.5 531.1 732.5 532.6 731 532.6 730.7 532.6 729 532.6 728.8 532.6 728.1 532.6 727 532.6 726.8 532.6 725 532.6 724.8 532.6 722.9 532.6 722.7 532.6 721.7 532.6 721.1 532.6 720.8 532.6 720.8 532.6 720.8 532.6 718.7 532.6 718.5 532.6 717.4 532.6 716.6 532.6 715.8 532.6 715.2 532.6 715.1 532.6 714.4 532.6 713.6 532.6 713 532.6 713 532.6 712.9 532.6 712.9 532.6 712.2 532.6 711.5 532.6 710.8 532.6 710.7 532.6 708.5 532.6 707.3 532.6 707.2 532.6 704.2 532.6 704 532.6 701.2 532.6 685.3 532.6 685.3 532.6 685.3 532.6 685.3 532.5 685.3 530.9 685.3 530.7 685.3 529 685.3 528.8 685.3 527.2 685.3 527 685.3 525.4 685.3 525.2 685.3 523.6 685.3 523.4 685.3 521.7 685.3 521.5 685.3 519.9 685.3 519.7 685.3 518.1 685.3 517.9 685.3 516.3 685.3 516.1 685.3 514.4 685.3 514.2 685.3 512.6 685.3 512.4 685.3 510.8 685.3 510.6 685.3 509 685.3 508.8 685.3 507.1 685.3 506.9 685.3 505.3 685.3 505.1 685.3 503.5 685.3 503.3 685.3 501.7 685.3 501.5 685.3 500.5 685.3 500.3 685.3 498.6 685.3 498.4 685.3 496.8 685.3 496.6 685.3 495 685.3 494.8 685.3 493.2 685.3 493.2 685.3 493 685.3 491.3 685.3 491.1 685.3 489.5 685.3 489.3 685.3 487.7 685.3 487.5 685.3 485.9 685.3 485.7 685.3 484 685.3 483.8 685.3 482.2 685.3 482 685.3 480.4 685.3 480.2 685.3 478.6 685.3 478.4 685.3 476.7 685.3 476.5 685.3 474.9 685.3 474.7 685.3 473.1 685.3 472.9 685.3 471.3 685.3 471.1 685.3 469.4 685.3 469.2 685.3 467.6 685.3 467.4 685.3 465.8 685.3 465.6 685.3 464 685.3 463.8 685.3 462.2 685.3 462 685.3 460.3 685.3 460.1 685.3 458.5 685.3 458.3 685.3 456.8 685.3 456.5 685.3 455 685.3 454.8 685.3 453.1 685.3 452.9 685.3 451.3 685.3 451.1 685.3 449.5 685.3 449.3 685.3 447.7 685.3 447.5 685.3 445.8 685.3 445.6 685.3 444 685.3 443.8 685.3 442.2 685.3 442 685.3 440.4 685.3 440.2 685.3 438.5 685.3 438.3 685.3 436.7 685.3 436.5 685.3 434.9 685.3 434.7 685.3 433.1 685.3 432.9 685.3 431.2 685.3 431 685.3 430.4 685.3 429.4 685.3 429.2 685.3 427.6 685.3 427.4 685.3 425.8 685.3 425.6 685.3 423.9 685.3 423.7 685.3 422.1 685.3 421.9 685.3 420.3 685.3 420.1 685.3 418.5 685.3 418.3 685.3 416.7 685.3 416.4 685.3 414.8 685.3 414.6 685.3 413 685.3 412.8 685.3 411.2 685.3 411 685.3 409.4 685.3 409.2 685.3 407.5 685.3 407.3 685.3 405.7 685.3 405.5 685.3 403.9 685.3 403.7 685.3 402.1 685.3 401.9 685.3 400.2 685.3 400 685.3 398.4 685.3 398.2 685.3 396.6 685.3 396.4 685.3 394.8 685.3 394.6 685.3 392.9 685.3 392.7 685.3 391.1 685.3 390.9 685.3 389.3 685.3 389.1 685.3 387.5 685.3 387.3 685.3 385.6 685.3 385.4 685.3 383.8 685.3 383.6 685.3 382 685.3 381.8 685.3 380.2 685.3 380 685.3 378.3 685.3 378.1 685.3 376.5 685.3 376.3 685.3 374.7 685.3 374.5 685.3 372.9 685.3 372.7 685.3 371 685.3 370.8 685.3 369.2 685.3 369 685.3 367.4 685.3 367.2 685.3 365.6 685.3 365.4 685.3 363.8 685.3 363.6 685.3 361.9 685.3 361.7 685.3 360.3 685.3 360.3 686.4 360.3"/><polygon class="cls-2" points="397.2 333.2 397.2 333.2 397 333.2 397 333.2 396.4 333.2 396.4 333.2 396 333.2 396 333.2 395.4 333.2 395.4 333.2 395.2 333.2 395.2 333.2 393.4 333.2 393.2 333.2 391.3 333.2 391.3 333.2 391.1 333.2 391.1 333.2 390.5 333.2 390.5 333.2 390.5 330.9 388.7 330.9 388.7 330.7 389 330.7 389 330.4 388.3 330.4 388.3 330.7 388.6 330.7 388.6 330.9 375.6 330.9 375.4 330.9 375.4 329.7 374 329.7 374 330.9 373.6 330.9 373.6 330.4 371.8 330.4 371.8 330.9 370.9 330.9 370.9 330.4 369.3 330.4 369.3 330.9 366.3 330.9 366.3 333.2 366.3 333.2 365.4 333.2 365.4 333.2 365.2 333.2 365.2 333.2 364.9 333.2 364.4 333.2 363.7 333.2 363.7 333.2 363.5 333.2 363.5 333.2 363.4 333.2 362.7 333.2 362.3 333.2 361.9 333.2 361.9 333.2 361.7 333.2 361.7 333.2 361.6 333.2 360.7 333.2 360.7 333.2 360.3 333.2 360.3 333.2 360.1 333.2 360.1 335.5 360.1 335.9 360.1 336.7 360.1 336.9 360.1 338 360.1 338.4 360.1 339.4 360.1 339.6 360.1 341.1 360.1 341.5 360.1 342.1 360.1 342.3 360.1 343.6 360.1 344 360.1 344.7 360.1 344.9 360.1 346.7 360.1 347 360.1 347.9 360.1 348.1 360.1 349.3 360.1 349.7 360.1 350.6 360.1 350.8 360.1 352.3 360.1 352.7 360.1 353.2 360.1 353.4 360.1 354.8 360.1 355.2 360.1 355.9 360.1 356.2 360.1 357.4 360.1 357.8 360.1 358.6 360.1 358.8 360.1 359.9 360.1 360.3 360.1 361.2 360.1 361.4 360.1 362.9 360.1 363.3 360.1 364 360.1 364.1 360.1 365.6 360.1 365.9 360.1 366.6 360.1 366.8 360.1 368.6 360.1 369 360.1 369.7 360.1 369.9 360.1 371.2 360.1 371.6 360.1 372.5 360.1 372.7 360.1 374.2 360.1 374.6 360.1 375.1 360.1 375.3 360.1 376.7 360.1 377.1 360.1 377.7 360.1 377.9 360.1 379.3 360.1 379.7 360.1 380.5 360.1 380.6 360.1 381.8 360.1 382.2 360.1 383.1 360.1 383.3 360.1 384.9 360.1 385.2 360.1 385.7 360.1 385.9 360.1 387.5 360.1 387.9 360.1 388.4 360.1 388.6 360.1 390.5 360.1 390.9 360.1 391.6 360.1 391.8 360.1 393 360.1 393.4 360.1 394.3 360.1 394.5 360.1 396.1 360.1 396.5 360.1 397.5 360.1 397.7 360.1 398.6 360.1 399 360.1 399.6 360.1 399.8 360.1 400.7 360.1 401 360.1 401.8 360.1 402 360.1 403.3 360.1 403.6 360.1 404.4 360.1 404.6 360.1 406.3 360.1 406.7 360.1 407.6 360.1 407.8 360.1 408.8 360.1 409.3 360.1 409.8 360.1 410 360.1 411.9 360.1 412.3 360.1 412.9 360.1 413.1 360.1 414.4 360.1 414.8 360.1 415.6 360.1 415.8 360.1 417.5 360.1 417.9 360.1 418.3 360.1 418.5 360.1 420 360.1 420.4 360.1 420.9 360.1 421.1 360.1 423.1 360.1 423.4 360.1 424.2 360.1 424.4 360.1 425.7 360.1 426.1 360.1 426.8 360.1 427 360.1 428.7 360.1 429.1 360.1 429.4 360.1 429.6 360.1 431.2 360.1 431.7 360.1 432.7 360.1 432.9 360.1 434.3 360.1 434.7 360.1 435.3 360.1 435.5 360.1 436.8 360.1 437.2 360.1 438 360.1 438.1 360.1 439.9 360.1 440.3 360.1 441.2 360.1 441.4 360.1 442.5 360.1 442.8 360.1 443.3 360.1 443.5 360.1 445 360.1 445.4 360.1 445.9 360.1 446.1 360.1 447.6 360.1 448 360.1 448.7 360.1 448.9 360.1 450.6 360.1 451 360.1 451.8 360.1 452 360.1 453.1 360.1 453.5 360.1 454.6 360.1 454.7 360.1 456.2 360.1 456.6 360.1 457.2 360.1 457.4 360.1 458.7 360.1 459.1 360.1 459.8 360.1 460 360.1 461.8 360.1 462.2 360.1 463.1 360.1 463.2 360.1 464.4 360.1 464.8 360.1 465.7 360.1 465.9 360.1 466.9 360.1 467.3 360.1 467.8 360.1 468 360.1 469.4 360.1 469.9 360.1 470.5 360.1 470.7 360.1 472.5 360.1 472.9 360.1 473.7 360.1 473.9 360.1 475 360.1 475.4 360.1 476.3 360.1 476.5 360.1 478.2 360.1 478.5 360.1 479 360.1 479.2 360.1 480.7 360.1 481 360.1 481.7 360.1 481.9 360.1 483.7 360.1 484.1 360.1 484.9 360.1 485.1 360.1 486.3 360.1 486.7 360.1 487.6 360.1 487.7 360.1 488.8 360.1 489.2 360.1 490.2 360.1 490.4 360.1 491.3 360.1 491.7 360.1 492.9 360.1 493.1 360.1 494.4 360.1 494.8 360.1 495.5 360.1 495.7 360.1 497 360.1 497.3 360.1 498.2 360.1 498.4 360.1 500.1 360.1 500.4 360.1 500.9 360.1 501.1 360.1 502.6 360.1 503 360.1 503.5 360.1 503.7 360.1 505.6 360.1 506 360.1 506.7 360.1 506.9 360.1 508.2 360.1 508.6 360.1 509.4 360.1 509.6 360.1 510.7 360.1 511.1 360.1 512 360.1 512.2 360.1 513.2 360.1 513.6 360.1 514.1 360.1 514.3 360.1 516.3 360.1 516.7 360.1 517.4 360.1 517.6 360.1 518.9 360.1 519.2 360.1 520 360.1 520.2 360.1 521.9 360.1 522.3 360.1 523.3 360.1 523.5 360.1 524.5 360.1 524.9 360.1 525.9 360.1 526.1 360.1 529.2 364.4 529.2 364.9 529.2 369.1 529.2 369.2 529.2 378.5 529.2 378.6 529.2 397.5 529.2 397.5 524.9 397.5 524.5 397.5 522.3 397.5 521.9 397.5 519.2 397.5 518.9 397.5 516.7 397.5 516.3 397.5 366.3 397.5 333.2 397.2 333.2"/><polygon class="cls-2" points="249.1 522.8 249.1 518.7 245.9 518.7 245.9 517.8 245.6 517.8 245.6 514 245.4 514 245.4 517.8 245.2 517.8 245.2 518.7 239.4 518.7 239.4 518.4 239.4 517.9 239.4 517.4 239.4 516.5 239.4 516 239.4 515.5 239.4 514.4 239.4 513.9 239.4 513.2 239.4 512.3 239.4 511.7 239.4 511.2 239.4 510.3 239.4 509.8 239.4 509.3 239.4 508.3 239.4 507.8 239.4 507.2 239.4 506.2 239.4 505.7 239.4 505.2 239.4 504.3 239.4 503.8 239.4 503.3 239.4 502.3 239.4 501.8 239.4 501.3 239.4 500.4 239.4 499.8 239.4 499.2 239.4 498.3 239.4 497.7 239.4 497.2 239.4 496.3 239.4 495.8 239.4 495.3 239.4 494.3 239.4 493.8 239.4 493.3 239.4 492.4 239.4 491.7 239.4 491.2 239.4 490.3 239.4 489.8 239.4 489.3 239.4 488.3 239.4 487.8 239.4 487.3 239.4 486.3 239.4 485.8 239.4 485.3 239.4 484.3 239.4 483.8 239.4 483.3 239.4 482.3 239.4 481.8 239.4 481.2 239.4 480.3 239.4 479.8 239.4 479.3 239.4 478.3 239.4 477.8 239.4 477.3 239.4 476.2 239.4 475.7 239.4 475.2 239.4 474.3 239.4 473.7 239.4 473.3 239.4 472.3 239.4 471.8 239.4 471.3 239.4 470.3 239.4 469.8 239.4 469.2 239.4 468.3 239.4 467.7 239.4 467.3 239.4 466.3 239.4 465.8 239.4 465.3 239.4 464.3 239.4 463.8 239.4 463.3 239.4 462.4 239.4 461.7 239.4 461.3 239.4 460.3 239.4 459.8 239.4 459.3 239.4 458.3 239.4 457.8 239.4 457.3 239.4 456.4 239.4 455.8 239.4 455.4 239.4 454.4 239.4 453.8 239.4 453.3 239.4 452.3 239.4 451.8 239.4 451.3 239.4 450.4 239.4 449.8 239.4 449.4 239.4 448.4 239.4 447.9 239.4 447.4 239.4 446.3 239.4 445.8 239.4 445.3 239.4 444.4 239.4 443.8 239.4 443.4 239.4 442.4 239.4 441.9 239.4 441.4 239.4 440.4 239.4 439.9 239.4 439.4 239.4 438.4 239.4 437.8 239.4 437.3 239.4 436.4 239.4 435.9 239.4 435.4 239.4 434.4 239.4 433.9 239.4 433.4 239.4 432.5 239.4 431.9 239.4 431.4 239.4 430.4 239.4 429.9 239.4 429.4 239.4 428.4 239.4 427.9 239.4 427.4 239.4 426.5 239.4 425.9 239.4 425.4 239.4 424.5 239.4 423.9 239.4 423.4 239.4 422.4 239.4 421.9 239.4 421.4 239.4 420.5 239.4 419.9 239.4 419.4 239.4 418.5 239.4 418 239.4 417.5 239.4 416.4 239.4 415.9 239.4 415.4 239.4 414.5 239.4 413.9 239.4 413.4 239.4 412.5 239.4 412 239.4 411.5 239.4 410.5 239.4 410 239.4 409.5 239.4 408.5 239.4 407.9 239.4 407.4 239.4 406.5 239.4 406 239.4 405.5 239.4 404.5 239.4 404 239.4 403.5 239.4 402.5 239.4 402 239.4 401.5 239.4 400.5 239.4 400 239.4 399.5 239.4 398.5 239.4 398 239.4 397.5 239.4 396.6 239.4 396 239.4 395.5 239.4 394.6 239.4 394.1 239.4 393.5 239.4 392.5 239.4 392 239.4 391.5 239.4 390.5 239.4 390 239.4 389.5 239.4 388.6 239.4 388.1 239.4 387.6 239.4 386.6 239.4 386 239.4 385.5 239.4 384.6 239.4 384 239.4 383.5 239.4 382.6 239.4 382.1 239.4 381.6 239.4 380.6 239.4 380.1 239.4 379.6 239.4 378.5 239.4 378 239.4 377.5 239.4 376.6 239.4 376.1 239.4 375.6 239.4 374.6 239.4 374.1 239.4 373.6 239.4 372.7 239.4 372.1 239.4 371.6 239.4 370.6 239.4 370.1 239.4 369.6 239.4 368.6 239.4 368.1 239.4 367.6 239.4 366.6 239.4 366.1 239.4 365.6 239.4 364.7 239.4 364.2 239.4 363.7 239.4 362.6 239.4 362.1 239.4 361.6 239.4 360.7 239.4 360.1 239.4 359.6 239.4 358.7 239.4 358.2 239.4 357.7 239.4 356.7 239.4 356.2 239.4 355.6 239.4 354.6 239.4 354.1 239.4 353.6 239.4 352.7 239.4 352.2 239.4 351.7 239.4 350.7 239.4 350.2 239.4 349.7 239.4 348.7 239.4 348.1 239.4 347.6 239.4 346.7 239.4 346.2 239.4 345.7 239.4 344.7 239.4 344.2 239.4 343.7 239.4 342.7 239.4 342.2 239.4 341.7 239.4 340.7 239.4 340.2 239.4 339.7 239.4 338.7 239.4 338.2 239.4 337.7 239.4 336.7 239.4 336.2 239.4 335.7 239.4 334.8 239.4 334.3 239.4 333.8 239.4 332.7 239.4 332.2 239.4 331.7 239.4 330.7 239.4 330.2 239.4 329.7 239.4 328.8 239.4 328.2 239.4 327.8 239.4 327.2 239.4 326.8 239.4 326.3 239.4 323.3 238.4 323.3 237.5 323.3 236.8 323.3 236.8 322 235.6 322 235.6 318.9 235.2 318.9 235.2 310.3 234.7 310.3 234.7 318.9 234.3 318.9 234.3 322 233.1 322 233.1 319.3 232.8 319.3 232.8 315.6 232.9 315.6 232.9 315 232.6 315 232.6 315.6 232.7 315.6 232.7 319.3 232.4 319.3 232.4 322 231.4 322 231.4 317.4 230.9 317.4 230.9 306.3 230.2 306.3 230.2 317.4 229.7 317.4 229.7 322 228.8 322 228.8 320.3 224.3 320.3 224.3 315.4 224 315.4 224 311.8 224.1 311.8 224.1 311.3 223.8 311.3 223.8 311.8 223.9 311.8 223.9 315.4 223.6 315.4 223.6 320.3 222.9 320.3 222.9 304.2 222.2 304.2 222.2 302.5 222.9 302.5 222.9 301.6 222.2 301.6 222.2 300 222.9 300 222.9 299.1 222.2 299.1 222.2 297.5 222.9 297.5 222.9 296.6 222.2 296.6 222.2 294.9 222.9 294.9 222.9 294 222.2 294 222.2 292.4 222.9 292.4 222.9 291.6 222.2 291.6 222.2 289.9 222.9 289.9 222.9 289.1 222.2 289.1 222.2 287.3 222.9 287.3 222.9 286.5 222.2 286.5 222.2 284.8 222.9 284.8 222.9 284 222.2 284 222.2 282.4 222.9 282.4 222.9 281.5 222.2 281.5 222.2 272.4 220.5 272.4 220.5 281.5 219.8 281.5 219.8 282.4 220.5 282.4 220.5 284 219.8 284 219.8 284.8 220.5 284.8 220.5 286.5 219.8 286.5 219.8 287.3 220.5 287.3 220.5 289.1 219.8 289.1 219.8 289.9 220.5 289.9 220.5 291.6 219.8 291.6 219.8 292.4 220.5 292.4 220.5 294 219.8 294 219.8 294.9 220.5 294.9 220.5 296.6 219.8 296.6 219.8 297.5 220.5 297.5 220.5 299.1 219.8 299.1 219.8 300 220.5 300 220.5 301.6 219.8 301.6 219.8 302.5 220.5 302.5 220.5 304.2 219.8 304.2 219.8 320.3 216.9 320.3 216.9 316.3 216.5 316.3 216.5 307.8 216 307.8 216 316.3 215.6 316.3 215.6 320.3 214.8 320.3 214.8 322 214.5 322 214.5 317.9 214.1 317.9 214.1 313.6 214.2 313.6 214.2 312.9 213.9 312.9 213.9 313.6 214 313.6 214 317.9 213.6 317.9 213.6 322 212.5 322 212.5 318.9 212.1 318.9 212.1 310.3 211.6 310.3 211.6 318.9 211.2 318.9 211.2 322 210 322 210 319.3 209.7 319.3 209.7 315.6 209.8 315.6 209.8 315 209.5 315 209.5 315.6 209.6 315.6 209.6 319.3 209.3 319.3 209.3 322 206.7 322 206.7 323.3 206.2 323.3 204.2 323.3 204.1 323.3 204.1 522.8 195.5 522.8 195.5 525.4 195.5 525.5 195.5 526.9 195.5 529.7 196.3 529.7 197.2 529.7 199.1 529.7 199.6 529.7 203.7 529.7 204.9 529.7 205.9 529.7 207.1 529.7 208 529.7 209.2 529.7 210.1 529.7 211.3 529.7 212.2 529.7 213.5 529.7 214.4 529.7 215.6 529.7 216.5 529.7 217.7 529.7 218.6 529.7 219.8 529.7 220.8 529.7 222 529.7 222.9 529.7 224.1 529.7 225 529.7 226.2 529.7 227.1 529.7 228.3 529.7 228.5 529.7 229.3 529.7 230.1 529.7 230.5 529.7 231.1 529.7 231.4 529.7 231.4 529.7 232.6 529.7 233.2 529.7 233.5 529.7 233.6 529.7 234.7 529.7 235.3 529.7 235.7 529.7 235.7 529.7 236.9 529.7 237.5 529.7 237.8 529.7 237.8 529.7 239 529.7 239.6 529.7 240 529.7 240.3 529.7 240.7 529.7 241.7 529.7 242.1 529.7 242.4 529.7 242.8 529.7 243.8 529.7 244.2 529.7 244.5 529.7 244.9 529.7 246 529.7 246.3 529.7 246.7 529.7 247 529.7 247.5 529.7 248.1 529.7 248.5 529.7 249.1 529.7 249.9 529.7 249.9 525.5 249.9 525.4 249.9 522.8 249.1 522.8"/><polygon class="cls-2" points="183.7 474.4 183.7 345.5 174.7 303.1 168.3 303.1 168.3 344.8 167.1 344.8 167.1 334.6 151.5 334.6 151.5 344.8 150.3 344.8 150.3 303.1 143.9 303.1 134.9 345.5 134.9 474.4 133.3 474.4 133.3 529.1 134.9 529.1 143 529.1 150.3 529.1 168.3 529.1 175.6 529.1 183.7 529.1 191.7 529.1 191.7 474.4 183.7 474.4"/><polygon class="cls-3" points="497.1 391.4 495.5 391.4 495.5 385.5 463.8 385.5 463.8 383.1 462.7 383.1 462.7 381 462.1 381 462.1 383.1 461.8 383.1 461.8 377.7 461.2 377.7 461.2 383.1 460.3 383.1 460.3 385.5 458.6 385.5 458.6 391.4 457.1 391.4 457.1 398.4 458.6 398.4 458.6 453.3 455.8 453.3 455.8 449.6 429.6 449.6 429.6 453.3 426.1 453.3 426.1 529.9 458.6 529.9 463 529.9 495.5 529.9 495.5 398.4 497.1 398.4 497.1 391.4"/><path class="cls-3" d="M777.9,429.1h-8.8v-4.2h-5.2v-5.4h-2.2V403.9H761v-2.8h-.6V401H760v.1h-4.3V401h-.5v.1h-3.7V401h-.4v.1h-1.2v2.8h-.7v15.6h-2.1v5.4h-5.3v4.2h-8.7v3h-2.3v97h23.66a387.93,387.93,0,0,0,23.44-98.42Z"/><polygon class="cls-3" points="667.2 390.3 667.2 385.3 611 385.3 611 390.3 605.6 390.3 605.6 458.9 672.6 458.9 672.6 390.3 667.2 390.3"/><polygon class="cls-3" points="370.9 356.6 370.9 352.8 346.4 352.8 346.4 345.9 331.1 345.9 331.1 352.8 327.7 352.8 327.7 356.6 325.6 356.6 325.6 529.8 373 529.8 373 356.6 370.9 356.6"/><polygon class="cls-3" points="31.3 501.8 31.8 501.8 33.3 501.8 33.8 501.8 34.9 501.8 35.5 501.8 35.5 501.3 35.5 499.8 35.5 499 35.5 498.6 35.5 497.1 35.5 496.4 35.5 495.9 35.5 494.5 35.5 493.7 35.5 493.3 35.5 491.7 35.5 491 35.5 490.5 35.5 489.1 35.5 488.4 35.5 487.9 35.5 486.4 35.5 485.7 35.5 485.3 35.5 483.7 35.5 483 35.5 482.5 35.5 481 35.5 480.3 35.5 479.9 35.5 478.4 35.5 477.7 35.5 477.2 35.5 475.7 35.5 475 35.5 474.5 35.5 473 35.5 472.3 35.5 471.8 35.5 470.4 35.5 469.7 35.5 469.1 35.5 467.6 35.5 466.9 35.5 466.5 35.5 465 35.5 464.3 35.5 463.8 35.5 462.4 35.5 461.5 35.5 461.1 35.5 459.6 35.5 458.9 35.5 458.4 35.5 457 35.5 456.3 35.5 455.8 35.5 454.2 35.5 453.5 35.5 453.1 35.5 451.6 35.5 450.9 35.5 450.4 35.5 449 35.5 448.2 35.5 447.8 35.5 446.2 35.5 445.5 35.5 445 35.5 443.6 35.5 442.9 35.5 442.4 35.5 440.9 35.5 440.2 35.5 439.7 35.5 438.2 35.5 437.5 35.5 437 35.5 435.5 35.5 434.8 35.5 434.4 35.5 432.9 35.5 432.2 35.5 431.7 35.5 430.2 35.5 429.4 35.5 429 35.5 427.5 35.5 426.8 35.5 426.3 35.5 424.9 35.5 424.2 35.5 423.6 35.5 422.1 35.5 421.4 35.5 420.9 35.5 419.5 35.5 418.8 35.5 418.3 35.5 416.8 35.5 416 35.5 415.6 35.5 414.1 35.5 413.4 35.5 412.9 35.5 411.5 35.5 410.8 35.5 410.3 35.5 408.7 35.5 408 35.5 407.5 35.5 406.1 35.5 405.4 35.5 404.9 35.5 403.4 35.5 402.7 35.5 402.3 35.5 400.7 35.5 400 35.5 399.5 35.5 398.1 35.5 397.3 35.5 396.9 35.5 395.4 35.5 394.7 35.5 394.2 35.5 392.7 35.5 392 35.5 391.5 35.5 390 35.5 389.3 35.5 388.9 35.5 387.4 35.5 386.7 35.5 386.1 35.5 384.7 35.5 383.9 35.5 383.5 35.5 382 35.5 381.3 35.5 380.8 35.5 379.4 35.5 378.6 35.5 378.1 35.5 376.6 35.5 375.9 35.5 375.4 35.5 374 35.5 373.3 35.5 372.8 35.5 371.4 35.5 370.5 35.5 370.1 35.5 368.6 35.5 367.9 35.5 367.4 35.5 366 35.5 365.2 35.5 364.8 35.5 363.2 35.5 362.5 35.5 362 35.5 360.6 35.5 359.9 35.5 359.4 35.5 357 35.7 357 35.7 357 35.9 357 35.9 357 36.4 357 36.4 357 36.6 357 36.6 357 37 357 37 357 37.3 357 37.3 357 37.7 357 37.7 357 37.9 357 37.9 357 39 357 39 357 39.3 357 39.3 357 40.3 357 40.3 357 40.6 357 40.6 357 41.1 357 41.1 356.6 41.1 356.3 41.1 356.2 41.1 355.9 41.1 355.5 41.1 354.7 41.1 354.4 41.1 353.1 41.1 352.6 41.1 352.3 41.1 352.1 41.1 353.9 41.1 352.5 41.1 352.2 41.1 351.6 41.1 351.1 41.1 350.7 41.1 350.4 41.1 350.3 41.6 350.2 41.6 350.2 41.8 350.2 41.8 350.2 42.3 350.1 42.3 350.1 42.5 350.1 43.6 349.9 43.6 349.9 43.8 349.9 46.3 349.5 46.3 349.5 46.4 349.5 47.6 349.3 47.6 349.3 47.8 349.3 49 349.1 49 349.1 49 349.1 51.5 348.7 51.5 348.6 51.8 348.6 51.8 348.6 54.2 348.2 54.2 348.1 54.4 348.1 54.4 348.1 56.8 347.7 56.8 347.7 57 347.7 58.2 347.5 58.2 347.5 58.3 347.5 59.5 347.3 59.5 347.3 59.6 347.3 60.8 347.1 60.8 347.1 61 347.1 61.5 347 61.5 347 61.7 347 61.7 347 62.2 346.9 62.2 346.9 62.4 346.9 62.4 346.9 62.8 346.8 62.8 346.7 63.1 346.7 63.1 346.8 63.5 346.7 63.5 346.7 63.7 346.7 63.7 346.7 63.8 346.7 63.8 350.4 63.8 350.7 63.8 351.1 63.8 351.6 63.8 352.2 63.8 352.5 63.8 353.9 63.8 352.1 63.8 352.3 63.8 352.6 63.8 353.1 63.8 354.4 63.8 354.7 63.8 355.5 63.8 355.9 63.8 356.2 63.8 356.3 63.8 356.6 63.8 357 64.6 357 64.6 357 64.8 357 64.8 357 65.9 357 65.9 357 66.1 357 66.1 357 67.2 357 67.2 357 67.4 357 67.4 357 67.9 357 67.9 357 68.1 357 68.1 357 68.5 357 68.5 357 68.8 357 68.8 357 69.2 357 69.2 357 69.4 357 69.4 357 69.5 357 69.5 359.4 69.5 359.9 69.5 360.6 69.5 362 69.5 362.5 69.5 363.2 69.5 364.8 69.5 365.2 69.5 366 69.5 367.4 69.5 367.9 69.5 368.6 69.5 370.1 69.5 370.5 69.5 371.4 69.5 372.8 69.5 373.3 69.5 374 69.5 375.4 69.5 375.9 69.5 376.6 69.5 378.1 69.5 378.6 69.5 379.4 69.5 380.8 69.5 381.3 69.5 382 69.5 383.5 69.5 383.9 69.5 384.7 69.5 386.1 69.5 386.7 69.5 387.4 69.5 388.9 69.5 389.3 69.5 390 69.5 391.5 69.5 392 69.5 392.7 69.5 394.2 69.5 394.7 69.5 395.4 69.5 396.9 69.5 397.3 69.5 398.1 69.5 399.5 69.5 400 69.5 400.7 69.5 402.3 69.5 402.7 69.5 403.4 69.5 404.9 69.5 405.4 69.5 406.1 69.5 407.5 69.5 408 69.5 408.7 69.5 410.3 69.5 410.8 69.5 411.5 69.5 412.9 69.5 413.4 69.5 414.1 69.5 415.6 69.5 416 69.5 416.8 69.5 418.3 69.5 418.8 69.5 419.5 69.5 420.9 69.5 421.4 69.5 422.1 69.5 423.6 69.5 424.2 69.5 424.9 69.5 426.3 69.5 426.8 69.5 427.5 69.5 429 69.5 429.4 69.5 430.2 69.5 431.7 69.5 432.2 69.5 432.9 69.5 434.4 69.5 434.8 69.5 435.5 69.5 437 69.5 437.5 69.5 438.2 69.5 439.7 69.5 440.2 69.5 440.9 69.5 442.4 69.5 442.9 69.5 443.6 69.5 445 69.5 445.5 69.5 446.2 69.5 447.8 69.5 448.2 69.5 449 69.5 450.4 69.5 450.9 69.5 451.6 69.5 453.1 69.5 453.5 69.5 454.2 69.5 455.8 69.5 456.3 69.5 457 69.5 458.4 69.5 458.9 69.5 459.6 69.5 461.1 69.5 461.5 69.5 462.4 69.5 463.8 69.5 464.3 69.5 465 69.5 466.5 69.5 466.9 69.5 467.6 69.5 469.1 69.5 469.7 69.5 470.4 69.5 471.8 69.5 472.3 69.5 473 69.5 474.5 69.5 475 69.5 475.7 69.5 477.2 69.5 477.7 69.5 478.4 69.5 479.9 69.5 480.3 69.5 481 69.5 482.5 69.5 483 69.5 483.7 69.5 485.3 69.5 485.7 69.5 486.4 69.5 487.9 69.5 488.4 69.5 489.1 69.5 490.5 69.5 491 69.5 491.7 69.5 493.3 69.5 493.7 69.5 494.5 69.5 495.9 69.5 496.4 69.5 497.1 69.5 498.6 69.5 499 69.5 499.8 69.5 501.3 69.5 501.8 69.5 502.5 69.5 503.9 69.5 504.4 69.5 505.1 69.5 506.6 69.5 507 69.5 507.9 69.5 509.3 69.5 509.8 69.5 510.5 69.5 512 69.5 512.4 69.5 513.1 69.5 514.6 69.5 515.2 69.5 515.9 69.5 517.3 69.5 517.8 69.5 518.5 69.5 520 69.5 520.5 69.5 521.2 69.5 522.7 69.5 523.2 69.5 523.5 69.5 524.5 69.5 525.4 69.5 525.8 69.5 526.6 69.5 528.9 54.9 528.9 54.9 528.9 54.7 528.9 54.7 528.9 54.7 528.9 52.5 528.9 50.5 528.9 50.5 528.9 50.2 528.9 50.2 528.9 35.5 528.9 34.9 528.9 33.8 528.9 33.3 528.9 31.8 528.9 31.3 528.9 29.8 528.9 29.3 528.9 27.8 528.9 27.3 528.9 26 528.9 26 528.9 26 526.6 26 525.8 26 525.4 26 523.9 26 523.2 26 522.7 26 521.2 26 520.5 26 520 26 518.5 26 517.8 26 517.3 26 517.3 26 515.9 26 515.2 26 514.6 26 513.1 26 512.4 26 512 26 510.5 26 509.8 26 509.3 26 507.9 26 507 26 506.6 26 505.1 26 504.4 26 504.4 26 503.9 26 501.8 31.3 501.8"/><polygon class="cls-3" points="197.7 400.8 197.7 395.7 197.7 395.7 182.5 381.6 177.2 381.6 162 395.7 162 400.8 158.6 400.8 158.6 530.4 201.1 530.4 201.1 400.8 197.7 400.8"/><polygon class="cls-3" points="250.9 356.6 250.9 352.9 224.8 352.9 224.8 356.6 223.6 356.6 223.6 529.9 252.1 529.9 252.1 356.6 250.9 356.6"/><rect class="cls-3" x="521.1" y="402" width="20.3" height="118.3"/><rect class="cls-4" x="507.8" y="417.4" width="37.3" height="111.4"/><polygon class="cls-4" points="709.9 460.8 709.9 455.9 653.7 455.9 653.7 460.8 648.4 460.8 648.4 529.3 715.2 529.3 715.2 460.8 709.9 460.8"/><path class="cls-4" d="M191.4,460.5a1.4,1.4,0,1,0-1.4-1.4h0A1.37,1.37,0,0,0,191.4,460.5Z"/><path class="cls-4" d="M203,463a1.4,1.4,0,1,0-1.4-1.4h0A1.59,1.59,0,0,0,203,463Z"/><path class="cls-4" d="M208.6,466a1.4,1.4,0,1,0-1.4-1.4A1.5,1.5,0,0,0,208.6,466Z"/><path class="cls-4" d="M212.8,469.8a1.4,1.4,0,1,0-1.4-1.4h0A1.5,1.5,0,0,0,212.8,469.8Z"/><path class="cls-4" d="M216.6,474.5a1.4,1.4,0,1,0-1.4-1.4h0A1.37,1.37,0,0,0,216.6,474.5Z"/><path class="cls-4" d="M219.4,480.5a1.4,1.4,0,1,0-1.4-1.4h0a1.5,1.5,0,0,0,1.4,1.4Z"/><path class="cls-4" d="M219.9,485.7a1.4,1.4,0,0,0,2.8,0h0a1.4,1.4,0,1,0-2.8,0Z"/><path class="cls-4" d="M221.1,491.7a1.32,1.32,0,0,0-1.3,1.3,26.2,26.2,0,0,0,.1-2.8,29.52,29.52,0,0,0-22.8-29,1.35,1.35,0,0,0,1.3-1.4,1.24,1.24,0,0,0-1.4-1.3,1.35,1.35,0,0,0-1.3,1.4,1.3,1.3,0,0,0,.8,1.2,32.87,32.87,0,0,0-5.4-.5c-15.9,0-28.7,13.3-28.7,29.6v.1a16.2,16.2,0,0,0,.1,2.2,1.14,1.14,0,0,0-.8-.3,1.4,1.4,0,0,0,0,2.8h0a1.61,1.61,0,0,0,1.1-.5,37.75,37.75,0,0,0,1.3,5.6,1.45,1.45,0,0,0-.7-.2,1.4,1.4,0,1,0,0,2.8,1.42,1.42,0,0,0,1.3-.9,28.76,28.76,0,0,0,25.9,18v7.3h1.5v-7.3a27,27,0,0,0,12.4-3.3,1.21,1.21,0,0,0-.7,1.2,1.4,1.4,0,1,0,1.4-1.4h0a.9.9,0,0,0-.5.1,26.58,26.58,0,0,0,6.8-5.3,30.22,30.22,0,0,0,6.7-10.8,1.36,1.36,0,0,0,.7,1.8,1.33,1.33,0,0,0,1.8-.8,1.36,1.36,0,0,0-.7-1.8.9.9,0,0,0-.5-.1,1.29,1.29,0,0,0-1.3.9,29.19,29.19,0,0,0,1.6-7.1,1.4,1.4,0,0,0,2.8,0c-.2-.7-.8-1.5-1.5-1.5Zm-27.5.1-1.1-.8h0L217,501a38.86,38.86,0,0,1-2.5,5Zm20.7,14.3-.6.9L199,495.9ZM190,492.4l-10.4,23.9a36.23,36.23,0,0,1-4.3-2.4Zm-15,21.2-1.2-.9L187.7,495Zm-6.5-6.6a28.63,28.63,0,0,1-2.4-4.2L189.4,491h.1l-.6.5Zm15.2-10.9-14.3,12.3c-.2-.3-.5-.6-.7-.9Zm-20.4-9a22.54,22.54,0,0,1,.6-3.6l24.5,6.1.3.1Zm21.9,2.6-22-.7c0-.5.1-1,.1-1.5Zm-8.4-24.2a37.13,37.13,0,0,1,4.9-2.4l8.5,24.2.4,1.4h0Zm11,19.5-12.6-18.4c.4-.3.8-.5,1.2-.8Zm13.5-21.6L192,487.5l4.7-25.5a47.51,47.51,0,0,1,4.6,1.4Zm-8,26.3h-.1l.7-.3,23.5-8.9a32.27,32.27,0,0,1,1.2,4.7Zm25.4-4.2c.1.4.1.7.2,1.1l-18.8,2.2ZM200,486.6l16.8-7.6c.1.3.3.7.4,1.1Zm-6.2,2.3-.6.2,22.1-13.4c.5.9,1,1.8,1.4,2.7Zm2.1-1.9,18.3-13c.3.4.6.9.9,1.4Zm-2.9,1.5,1.6-1.7,16.9-16.2a23.4,23.4,0,0,1,2.4,3.1Zm-.1-.6L206.1,466a39,39,0,0,1,4,3.1l-15.7,17.4Zm-1,.9,11.3-24.5a17.36,17.36,0,0,1,2.6,1.5Zm1.6-4.5,8-20.9,1.3.6Zm-1.6.2,3.2-22.8a2.92,2.92,0,0,1,.9.2Zm-1.1,3.4v.1l-.3-.8-7.1-24.7a34,34,0,0,1,4.6-.9Zm-2.4-26.4,1.1-.1.9,19.5Zm-.2,19.2L182,462.9l1.1-.3Zm1,8.1L167,475.3a35.2,35.2,0,0,1,2.9-4.2Zm-19-17.8.7-.7,16.1,16Zm13.1,14.7-16.9-8.9a4.67,4.67,0,0,0,.5-1Zm5.9,3.5.1.1-.8-.2-24-7.5a40.73,40.73,0,0,1,1.8-4.4Zm-7.2-1.7L164,483c.1-.4.2-.7.3-1.1Zm7.1,3.3L165.3,501a39.74,39.74,0,0,1-1.5-4.9Zm-25.4,5c-.1-.3-.1-.7-.2-1l22.3-3.7Zm19.4-1.9-17.2,8.7a11.73,11.73,0,0,1-.5-1.1Zm6.1,1.4L180.9,517a3.55,3.55,0,0,1-.9-.4Zm1.4-2.4v.6L186,518.4a29,29,0,0,1-4.8-1.4Zm-.7,6.3-2.4,19.6-1.1-.2Zm2.2-3.1v-1l4.7,23.2a15.72,15.72,0,0,1-2.3.4Zm2,22.7c-.4,0-.7.1-1.1.1l-1-19.1Zm-1.4-22.5,5.8,21.6c-.4.1-.9.2-1.4.3Zm-.5-3.4,11.3,23.2a42.2,42.2,0,0,1-4.5,1.8Zm1.6,2.3,10.8,20.2-.9.5Zm-1.3-3.2L209,512.2a36.92,36.92,0,0,1-4,2.9Zm4.7,5.1,12.9,14.1-.8.7Zm-.3-5,20.8,6.9a7.84,7.84,0,0,1-.5,1.4Zm-3.2-1.4,25.1,3a31.07,31.07,0,0,1-1.1,4.9Zm3-.1,22.3,1.7c0,.3-.1.7-.1,1Zm-3.3-.6,25.5-3.1c.1,1.1.2,2.1.2,3.2a10.87,10.87,0,0,1-.1,1.8Zm17.9-19.7-12.7,12.3,11.9-13.1Zm-16.5-8.8-3.6,26.1-1.3-26.3h1.2c1.2,0,2.5.1,3.7.2Zm-19.9,5.1L189.4,488l-18.2-18.1a29.07,29.07,0,0,1,3.7-3.3Zm-11.7,22.7,25.4.8-25.1,4.3a30,30,0,0,1-.3-4.3,1.1,1.1,0,0,1,0-.8Zm6.5,19.2L189,492l1.1-.8v.1l-16.6,21.3a29.33,29.33,0,0,1-3.8-4.1Zm18.2,10.2,2.6-21.4v21.6a11.84,11.84,0,0,1-2.6-.2Zm4.1-11,.6,11H192Zm18.4,3.1-17.6-19.2-.1-.1.7.5,20.1,15.4a33.77,33.77,0,0,1-3.1,3.5Z"/><path class="cls-4" d="M215.7,506.8a1.4,1.4,0,1,0,1.4,1.4h0A1.5,1.5,0,0,0,215.7,506.8Z"/><path class="cls-4" d="M211.1,512a1.4,1.4,0,1,0,1.4,1.4h0A1.59,1.59,0,0,0,211.1,512Z"/><path class="cls-4" d="M198.4,518.9a1.4,1.4,0,1,0,1.4,1.4h0A1.43,1.43,0,0,0,198.4,518.9Z"/><path class="cls-4" d="M166.9,507.2a1.4,1.4,0,1,0,1.4,1.4h0A1.43,1.43,0,0,0,166.9,507.2Z"/><path class="cls-4" d="M171.6,512.4a1.4,1.4,0,1,0,1.4,1.4h0A1.5,1.5,0,0,0,171.6,512.4Z"/><path class="cls-4" d="M177.6,516.6A1.4,1.4,0,1,0,179,518h0A1.37,1.37,0,0,0,177.6,516.6Z"/><path class="cls-4" d="M184.3,519.3a1.4,1.4,0,1,0,1.4,1.4A1.5,1.5,0,0,0,184.3,519.3Z"/><path class="cls-4" d="M185.3,461a1.4,1.4,0,1,0-1.4-1.4h0A1.37,1.37,0,0,0,185.3,461Z"/><path class="cls-4" d="M179.1,462.9a1.4,1.4,0,1,0-1.4-1.4h0A1.5,1.5,0,0,0,179.1,462.9Z"/><path class="cls-4" d="M173.5,466a1.4,1.4,0,1,0-1.4-1.4h0A1.59,1.59,0,0,0,173.5,466Z"/><path class="cls-4" d="M169.4,469.7a1.4,1.4,0,1,0-1.4-1.4h0a1.51,1.51,0,0,0,1.4,1.4Z"/><path class="cls-4" d="M165.6,474.5a1.4,1.4,0,1,0-1.4-1.4h0A1.37,1.37,0,0,0,165.6,474.5Z"/><path class="cls-4" d="M162.7,480.5a1.4,1.4,0,1,0-1.4-1.4h0A1.5,1.5,0,0,0,162.7,480.5Z"/><path class="cls-4" d="M162.2,485.7a1.4,1.4,0,1,0-1.4,1.4h0A1.5,1.5,0,0,0,162.2,485.7Z"/><path class="cls-4" d="M34.2,424.2H32V397.1H30.3V379.8H29V369.7H26.6v-2.4H25.3v-1.7h-.9v-1.2H11.9v1.2H11v1.7H9.7v2.4H7.3v10.1H6v17.3H4.3v27.1H2.1v6.48A387.59,387.59,0,0,0,25.27,528.4H36.4v-33H34.2Z"/><polygon class="cls-4" points="357.5 526.7 357.5 505.3 357.5 504.8 357.5 503.9 357.5 503.5 357.5 502.5 357.5 502.1 357.5 501.1 357.5 500.7 357.5 499.6 357.5 499.2 357.5 498.2 357.5 497.8 357.5 496.8 357.5 496.4 357.5 495.4 357.5 495 357.5 494 357.5 493.6 357.5 492.6 357.5 492.1 357.5 491.1 357.5 490.7 357.5 489.7 357.5 489.3 357.5 488.3 357.5 487.9 357.5 486.9 357.5 486.5 357.5 485.5 357.5 485.1 357.5 484 357.5 483.6 357.5 482.6 357.5 482.2 357.5 481.2 357.5 480.8 357.5 479.9 357.5 479.4 357.5 478.5 357.5 478 357.5 476.9 357.5 476.5 357.5 475.6 357.5 475.1 357.5 474.2 357.5 473.7 357.5 472.8 357.5 472.3 357.5 471.4 357.5 470.9 357.5 470 357.5 469.4 357.5 468.5 357.5 468 357.5 467.1 357.5 466.6 357.5 465.7 357.5 465.2 357.5 464.3 357.5 463.9 357.5 462.9 357.5 462.5 357.5 461.4 357.5 461 357.5 460 357.5 459.6 357.5 458.6 357.5 458.2 357.5 457.2 357.5 456.8 357.5 455.8 357.5 455.4 357.5 454.4 357.5 453.9 357.5 452.9 357.5 452.5 357.5 451.5 357.5 451.1 357.5 450.1 357.5 449.7 357.5 448.7 357.5 448.3 357.5 447.3 357.5 446.9 357.5 445.8 357.5 445.4 357.5 444.4 357.5 444 357.5 443 357.5 442.6 357.5 441.6 357.5 441.2 357.5 440.3 357.5 439.8 357.5 438.8 357.5 438.3 357.5 437.3 357.5 436.9 357.5 436 357.5 435.5 357.5 434.6 357.5 434.1 357.5 433.2 357.5 432.7 357.5 431.8 357.5 431.2 357.5 430.3 357.5 429.8 357.5 429.7 357.5 428.9 357.5 428.4 357.5 427.5 357.5 427 357.5 426.1 357.5 425.7 357.5 424.7 357.5 424.3 357.5 423.2 357.5 422.8 357.5 422.6 355 422.6 355 421.8 355 421.4 355 420.4 355 420 355 419 355 418.6 355 417.6 355 417.2 355 416.1 355 415.7 355 414.7 355 414.3 355 413.3 355 412.9 355 411.9 355 411.5 355 410.5 355 410.1 355 408.3 351.1 408.3 350.7 408.3 346.9 408.3 346.4 408.3 344 408.3 343.6 408.3 339.8 408.3 339.4 408.3 335.8 408.3 335.8 410.1 335.8 410.5 335.8 411.5 335.8 411.9 335.8 412.9 335.8 413.3 335.8 414.3 335.8 414.7 335.8 415.7 335.8 416.1 335.8 417.2 335.8 417.6 335.8 418.6 335.8 419 335.8 420 335.8 420.4 335.8 421.4 335.8 421.8 335.8 422.6 333.3 422.6 333.3 422.8 333.3 423.2 333.3 424.3 333.3 424.7 333.3 425.7 333.3 426.1 333.3 427 333.3 427.5 333.3 428.4 333.3 428.9 333.3 429.8 333.3 430.3 333.3 431.2 333.3 431.8 333.3 432.7 333.3 433.2 333.3 434.1 333.3 434.6 333.3 435.5 333.3 436 333.3 436.9 333.3 437.3 333.3 438.3 333.3 438.8 333.3 439.8 333.3 440.3 333.3 441.2 333.3 441.6 333.3 442.6 333.3 443 333.3 444 333.3 444.4 333.3 445.4 333.3 445.8 333.3 446.9 333.3 447.3 333.3 448.3 333.3 448.7 333.3 449.7 333.3 450.1 333.3 451.1 333.3 451.5 333.3 452.5 333.3 452.9 333.3 453.9 333.3 454.4 333.3 455.4 333.3 455.8 333.3 456.8 333.3 457.2 333.3 458.2 333.3 458.6 333.3 459.6 333.3 460 333.3 461 333.3 461.4 333.3 462.5 333.3 462.9 333.3 463.9 333.3 464.3 333.3 465.2 333.3 465.7 333.3 466.6 333.3 467.1 333.3 468 333.3 468.5 333.3 469.4 333.3 470 333.3 470.9 333.3 471.4 333.3 472.3 333.3 472.8 333.3 473.7 333.3 474.2 333.3 475.1 333.3 475.6 333.3 476.5 333.3 476.9 333.3 478 333.3 478.5 333.3 479.4 333.3 479.9 333.3 480.8 333.3 481.2 333.3 482.2 333.3 482.6 333.3 483.6 333.3 484 333.3 485.1 333.3 485.5 333.3 486.5 333.3 486.9 333.3 487.9 333.3 488.3 333.3 489.3 333.3 489.7 333.3 490.7 333.3 491.1 333.3 492.1 333.3 492.6 333.3 493.6 333.3 494 333.3 495 333.3 495.4 333.3 496.4 333.3 496.8 333.3 497.8 333.3 498.2 333.3 499.2 333.3 499.6 333.3 500.7 333.3 501.1 333.3 502.1 333.3 502.5 333.3 503.5 333.3 503.9 333.3 504.8 333.3 505.3 333.3 527.5 333.3 527.5 337.2 527.5 337.6 527.5 337.7 527.5 338 527.5 341.5 527.5 341.9 527.5 345 527.5 345.3 527.5 345.4 527.5 348.9 527.5 349.3 527.5 352.4 527.5 352.8 527.5 352.8 527.5 353.2 527.5 357.5 527.5 357.5 527.5 357.5 526.7"/><polygon class="cls-4" points="262.5 525.6 262.5 504.2 262.5 501.8 262 501.8 262 489.4 261.3 489.4 261.1 489.2 261.1 488.2 260 488.2 260 487.4 260 486.3 260 485.3 260 484.2 260 483.2 260 482.1 260 481.2 260 480.1 260 479.1 260 478.1 260 477.1 260 475.9 260 475 260 473.9 260 472.9 260 471.9 260 470.9 260 469.8 260 468.7 260 467.7 260 466.7 260 465.7 260 464.7 260 463.6 260 462.6 260 461.5 260 460.5 260 459.4 260 458.5 260 457.4 260 456.4 260 455.4 260 454.4 260 453.2 260 452.3 260 451.2 260 450.2 260 449.2 260 448.2 260 447.1 260 446.1 260 445 260 444 260 443 260 442 260 440.9 260 439.9 260 438.8 260 437.8 260 436.8 260 435.8 260 434.7 260 433.7 260 432.8 260 432.7 260 431.7 260 430.8 260 430.8 260 430.2 260 429.2 260 428.5 260 427.5 260 426.7 260 425.7 260 425.6 260 425.2 260 425.1 260 424.8 260 424.5 260 424.2 260 423.9 260 423.6 260 423.4 260 423.1 260 422.9 260 422.6 260 422.4 260 422.1 260 421.9 260 421.6 260 421.4 260 421.1 260 420.9 260 420.6 260 420.4 260 420.3 260 420.1 260 419.9 260 419.6 260 419.4 260 419 260 418.9 260 418.5 260 418.5 258 418.5 258 418.4 258 418.1 258 417.9 258 417.6 258 417.4 258 417.1 258 416.9 257.1 416.9 257.1 416.4 257.1 416.3 258 416.3 258 415.9 258 415.6 257.1 415.6 257.1 414.7 255.3 414.7 255.3 414.3 253 414.3 253 413.9 253 412.2 251.3 412.2 251.3 412.2 251.3 411.9 251.3 411.2 251.3 410.9 251.3 410.1 251.3 409.9 251.3 409.3 250.2 409.3 247.9 407.8 247.9 407.3 248 407.3 248 407 247.9 407 247.9 406.8 248 406.8 248 406.5 247.9 406.5 247.9 406.3 248 406.3 248 406 247.9 406 247.9 405.8 248 405.8 248 405.5 247.9 405.5 247.9 405.3 248 405.3 248 405 247.9 405 247.9 404.8 248 404.8 248 404.5 247.9 404.5 247.9 404.3 248 404.3 248 404 247.9 404 247.9 403.7 248 403.7 248 403.4 247.9 403.4 247.9 403 247.1 403 247.1 403.4 246.9 403.4 246.9 403.7 247.1 403.7 247.1 404 246.9 404 246.9 404.3 247.1 404.3 247.1 404.5 246.9 404.5 246.9 404.8 247.1 404.8 247.1 405 246.9 405 246.9 405.3 247.1 405.3 247.1 405.5 246.9 405.5 246.9 405.8 247.1 405.8 247.1 406 246.9 406 246.9 406.3 247.1 406.3 247.1 406.5 246.9 406.5 246.9 406.8 247.1 406.8 247.1 407 246.9 407 246.9 407.3 247.1 407.3 247.1 407.8 244.7 409.3 243.6 409.3 243.6 409.9 243.6 410.1 243.6 410.9 243.6 411.2 243.6 411.9 243.6 412.2 243.6 412.2 241.9 412.2 241.9 414.3 239.6 414.3 239.6 414.7 237.9 414.7 237.9 415.6 236.9 415.6 236.9 415.9 236.9 416.3 237.9 416.3 237.9 416.9 236.9 416.9 236.9 417.1 236.9 417.4 236.9 417.6 236.9 417.9 236.9 418.1 236.9 418.4 236.9 418.5 234.9 418.5 234.9 418.5 234.9 418.8 234.9 419 234.9 419.4 234.9 419.5 234.9 419.9 234.9 420.1 234.9 420.4 234.9 420.6 234.9 420.9 234.9 421.1 234.9 421.4 234.9 421.6 234.9 421.9 234.9 422.1 234.9 422.4 234.9 422.6 234.9 422.9 234.9 423.1 234.9 423.4 234.9 423.6 234.9 423.9 234.9 424.2 234.9 424.5 234.9 424.7 234.9 425.1 234.9 425.2 234.9 425.6 234.9 425.7 234.9 426.7 234.9 427.5 234.9 428.5 234.9 429.2 234.9 430.2 234.9 430.8 234.9 430.8 234.9 431.7 234.9 432.7 234.9 433.7 234.9 434.7 234.9 435.8 234.9 436.8 234.9 437.8 234.9 438.8 234.9 439.9 234.9 440.9 234.9 442 234.9 443 234.9 444 234.9 445 234.9 446.1 234.9 447.1 234.9 448.2 234.9 449.2 234.9 450.2 234.9 451.2 234.9 452.3 234.9 453.2 234.9 454.4 234.9 455.4 234.9 456.4 234.9 457.4 234.9 458.5 234.9 459.4 234.9 460.5 234.9 461.5 234.9 462.6 234.9 463.6 234.9 464.7 234.9 465.7 234.9 466.7 234.9 467.7 234.9 468.7 234.9 469.8 234.9 470.9 234.9 471.9 234.9 472.9 234.9 473.9 234.9 475 234.9 475.9 234.9 477.1 234.9 478.1 234.9 479.1 234.9 480.1 234.9 481.2 234.9 482.1 234.9 483.2 234.9 484.2 234.9 485.3 234.9 486.3 234.9 487.4 234.9 488.2 233.8 488.2 233.8 489.4 232.8 489.4 232.8 501.8 231.7 501.8 231.7 525.6 231.4 525.6 231.4 527.5 231.9 527.5 231.9 526 232.9 526 232.9 527.5 234.6 527.5 235.5 527.5 238.3 527.5 239.6 527.5 242.4 527.5 243.7 527.5 246.5 527.5 247.8 527.5 250.6 527.5 251.9 527.5 254.7 527.5 256 527.5 258.8 527.5 259.6 527.5 261.3 527.5 262.3 527.5 262.7 527.5 262.7 525.6 262.5 525.6"/><polygon class="cls-4" points="328.9 523.3 328.9 522.9 328.9 521.6 328.9 521.2 328.9 520.1 328.9 519.7 328.9 518.6 328.9 518.2 328.9 517 328.9 516.6 328.9 515.5 328.9 515.1 328.9 513.9 328.9 513.4 328.9 512.3 328.9 511.9 328.9 510.8 328.9 510.4 328.9 509.3 328.9 508.8 328.9 507.7 328.9 507.2 328.9 506.1 328.9 505.7 328.9 504.5 328.9 504.1 328.9 503 328.9 502.6 328.9 501.5 328.9 501.1 328.9 500 328.9 499.4 328.9 498.3 328.9 497.9 328.9 496.8 328.9 496.4 328.9 495.2 328.9 494.8 328.9 493.7 328.9 493.3 328.9 492.1 328.9 491.7 328.9 490.5 328.9 490.1 328.9 489 328.9 488.6 328.9 487.5 328.9 487 328.9 485.9 328.9 485.5 328.9 484.3 328.9 483.9 328.9 482.8 328.9 482.3 328.9 481.2 328.9 480.8 328.9 479.7 328.9 479.3 328.9 478.2 328.9 477.7 328.9 476.5 328.9 476.1 328.9 475 328.9 474.6 328.9 473.5 328.9 473 328.9 471.9 328.9 471.5 328.9 470.4 328.9 470 328.9 468.7 328.9 468.3 328.9 467.2 328.9 466.8 328.9 465.7 328.9 465.3 328.9 464.1 328.9 463.7 328.9 462.6 328.9 462.2 328.9 461 328.9 460.6 328.9 459.4 328.9 459 328.9 457.9 328.9 457.5 328.9 456.4 328.9 455.9 328.9 454.8 328.9 454.4 328.9 453.2 328.9 452.8 328.9 451.7 328.9 451.2 328.9 450.1 328.9 449.7 328.9 448.6 328.9 448.2 328.9 447 328.9 446.5 328.9 445.4 328.9 445 328.9 443.9 328.9 443.5 328.9 442.3 328.9 441.9 328.9 440.8 328.9 440.4 328.9 439.3 328.9 438.8 328.9 437.6 328.9 437.2 328.9 436.8 328.9 436.1 327.5 436.1 327.5 435.4 321.9 430.1 321.8 430.1 316.1 435.4 316.1 436.1 314.8 436.1 314.8 436.8 314.8 437.2 314.8 437.6 314.8 438.8 314.8 439.3 314.8 440.4 314.8 440.8 314.8 441.9 314.8 442.3 314.8 443.5 314.8 443.9 314.8 445 314.8 445.4 314.8 446.5 314.8 447 314.8 448.2 314.8 448.6 314.8 449.7 314.8 450.1 314.8 451.2 314.8 451.7 314.8 452.8 314.8 453.2 314.8 454.4 314.8 454.8 314.8 455.9 314.8 456.4 314.8 457.5 314.8 457.9 314.8 459 314.8 459.4 314.8 460.6 314.8 461 314.8 462.2 314.8 462.6 314.8 463.7 314.8 464.1 314.8 465.3 314.8 465.7 314.8 466.8 314.8 467.2 314.8 468.3 314.8 468.7 314.8 470 314.8 470.4 314.8 471.5 314.8 471.9 314.8 473 314.8 473.5 314.8 474.6 314.8 475 314.8 476.1 314.8 476.5 314.8 477.7 314.8 478.2 314.8 479.3 314.8 479.7 314.8 480.8 314.8 481.2 314.8 482.3 314.8 482.8 314.8 483.9 314.8 484.3 314.8 485.5 314.8 485.9 314.8 487 314.8 487.5 314.8 488.6 314.8 489 314.8 490.1 314.8 490.5 314.8 491.7 314.8 492.1 314.8 493.3 314.8 493.7 314.8 494.8 314.8 495.2 314.8 496.4 314.8 496.8 314.8 497.9 314.8 498.3 314.8 499.4 314.8 500 314.8 501.1 314.8 501.5 314.8 502.6 314.8 503 314.8 504.1 314.8 504.5 314.8 505.7 314.8 506.1 314.8 507.2 314.8 507.7 314.8 508.8 314.8 509.3 314.8 510.4 314.8 510.8 314.8 511.9 314.8 512.3 314.8 513.4 314.8 513.9 314.8 515.1 314.8 515.5 314.8 516.6 314.8 517 314.8 518.2 314.8 518.6 314.8 519.7 314.8 520.1 314.8 521.2 314.8 521.6 314.8 522.9 314.8 523.3 312.5 523.3 312.5 524.4 312.5 524.8 312.5 525.9 312.5 526.3 312.5 527.5 312.5 528 314.8 528 314.8 528 328.9 528 328.9 528 335.8 528 335.8 527.5 335.8 526.3 335.8 525.9 335.8 524.8 335.8 524.4 335.8 523.3 328.9 523.3"/><polygon class="cls-5" points="456.5 305.7 456.5 304.7 455.5 304.7 449.3 290.4 449.3 290.3 448 290.3 442.1 276.6 442.1 276.3 442 276.3 442 276.3 440.8 276.3 434.8 262.3 432.7 262.3 432.7 261.6 431.7 261.6 431.7 261 431 261 431 255.9 428.3 253.7 428.3 248.1 426.3 246.3 426.3 234 425.6 233.4 425.6 233.4 425.6 233.4 425.6 233.4 425.6 233.4 424.9 234 424.9 246.3 422.9 248.1 422.9 253.7 420.2 255.9 420.2 261 419.5 261 419.5 261.6 418.5 261.6 418.5 262.3 416.7 262.3 410.6 276.3 409.5 276.3 403.4 290.3 402.3 290.3 402.3 290.4 396.1 304.7 394.9 304.7 394.9 305.7 394.2 305.7 394.2 306.6 394.8 306.6 395.1 307.3 395.1 307.3 396 309.5 395.1 309.5 395.1 310.4 396 310.4 396 311.4 396 312 396 314.4 396 316.5 396 319.6 396 321.6 396 324.7 396 326.8 396 329.9 396 331.9 396 335 396 335.3 396 335.4 396 337.1 396 340.1 396 342.3 396 345.3 396 347.4 396 350.5 396 352.6 396 355.6 396 357.8 396 360.8 396 362.9 396 366 396 368 396 371.2 396 373.7 396 375.9 396 378.6 396 381.1 396 383.8 396 386.3 396 389 396 391.4 396 394.2 396 396.6 396 399.3 396 401.8 396 404.5 396 406.9 396 409.7 396 412.1 396 414.8 396 417.2 396 420 396 422.3 396 425.1 396 427.5 396 430.2 396 432.7 396 435.4 396 437.8 396 440.6 396 443 396 445.7 396 448.2 396 450.9 396 453.3 396 456.1 396 458.5 396 461.2 396 463.7 396 466.4 396 468.7 396 471.5 396 473.9 396 476.6 396 479.1 396 481.8 396 484.2 396 487 396 489.4 396 492.1 396 494.6 396 497.3 396 499.8 396 502.5 396 504.9 396 507.7 396 510.1 396 512.8 396 516.8 394.8 516.8 394.8 529.1 396 529.1 396.7 529.1 398.2 529.1 401.7 529.1 402.5 529.1 403.1 529.1 404.1 529.1 405.4 529.1 406.3 529.1 407.9 529.1 408.7 529.1 410.4 529.1 411.2 529.1 412.8 529.1 414.6 529.1 415.3 529.1 416.2 529.1 417.8 529.1 418.7 529.1 420.3 529.1 421.2 529.1 422.8 529.1 423.7 529.1 425.3 529.1 426.1 529.1 427.7 529.1 428.6 529.1 430.2 529.1 431.1 529.1 432.7 529.1 433.6 529.1 435.2 529.1 436.1 529.1 436.8 529.1 440.2 529.1 441 529.1 442.6 529.1 443.5 529.1 445.1 529.1 446 529.1 446 529.1 447.3 529.1 448.3 529.1 448.4 529.1 449.3 529.1 453.2 529.1 454.8 529.1 455.4 529.1 456.6 529.1 456.6 529.1 456.6 516.8 456.6 516.8 455.4 516.8 455.4 373.7 455.4 371.2 455.4 368 455.4 366 455.4 362.9 455.4 360.8 455.4 357.8 455.4 355.6 455.4 352.6 455.4 350.5 455.4 347.4 455.4 345.3 455.4 342.3 455.4 340.1 455.4 337.1 455.4 335.4 455.4 335.3 455.4 335 455.4 331.9 455.4 329.9 455.4 326.8 455.4 324.7 455.4 321.6 455.4 319.6 455.4 316.5 455.4 314.4 455.4 312 455.4 311.4 455.4 310.4 456.2 310.4 456.2 309.5 455.4 309.5 456.3 307.3 456.3 307.3 456.6 306.6 457.2 306.6 457.2 305.7 456.5 305.7"/><path class="cls-5" d="M128.5,317.4H124v-6h-1.1a2.82,2.82,0,0,0-2.8-2.9h-.3v-1.1h-1.6v-1.1H115v-7.5h3.3V297h1.6v-2.3H96.4V297H98v1.8h3.3v7.7H98v1.1H96.4v1a2.74,2.74,0,0,0-2.5,1.6H86a2.64,2.64,0,0,0-2.5-1.6h-.3v-1.1H81.6v-1.1H78.3v-7.5h3.3v-1.8h1.6v-2.3H59.8v2.3h1.6v1.8h3.3v7.6H61.4v1.1H59.8v1a2.82,2.82,0,0,0-2.8,2.9H55.9v5.9H51V490.3H45.9V530H63.1v-.4H87.2v.2h5.3v-.2h31.4v.2l2-.2h2.9V317.4ZM66.9,298.9h1.6v7.5H66.9Zm3.9,0h1.6v7.5H70.8Zm3.8,0H76v7.5H74.6Zm28.8,0H105v7.5h-1.6Zm3.9,0h1.6v7.5h-1.6Zm3.8,0h1.4v7.5h-1.4Z"/><path class="cls-5" d="M597,505.2h-1.7V325.4h-.9v1h-.6v-.9h-.3v-1.1h-.4v1.1h-.3v.9h-4.4v-.9h-.3v-1.1h-.4v1.1h-.2v.9h-.3v-11h-2v-2.9h0l-11.7-22.9V289h-4.1v-1.3h-.1v-2.4h.1V284h-.6v-.8h-.4V281H567v2.2h-.5v.8h-.6v1.3h.2v2.4h-.2V289h-3.8v.5l-11.9,23.1v2.9h-2.1v10h-.3v1h-4.6v-1h-.3v-1h-.4v1h-.3v1h-1v-1h-.9v2.9H540V505.2h-2.2v23.9h59.6V505.2ZM567.5,285.1h.5v2.3h-.5Z"/><path class="cls-5" d="M317.4,446.9h-1.8V390.1h-2V310.4H311V308h-2.5v-.7h0v-.2h0v-1h.4v-1h-8.1v-1h0v-.8h0V302h0v-.8h0V300h0v-.8h0V298h0v-.8h0V296h0v-.8h0v-1.4h.5v-1H297V292h0v-.8h0V290h0v-.8h0V288h0v-1h0v-1.2h0v-.3h.3v-.9h-6.7V284h0v-1.2h0V282h0v-1.2h0V280h0v-1.2h0V278h0v-1.2h0V276h0v-1.2h0V274h0v-.3h.2v-1H278v1h.2v10.9h-6.7v1h.3v7.2h-4.4v1h.5v1h0v10.3h-8.5v1h.7V308h-2.5v2.4H255v79.7h-2v56.8h-1.9v82.3h66.4V447h-.1ZM256,317.2h1.7v.9H256Zm54.1,1h-1.6v-.8h0v-.2h1.6Zm-49.9-.9v.8h-1.5v-.9h1.5Zm49.9-1.7h-1.6v-1h1.6Zm-49.9-.3v.3h-1.5v-1h1.5Zm49.9-3h-1.6v-.2h0v-1.8h1.6Zm-49.9-2.1v2h-1.5v-2Zm-4.2,2.6h1.7v2H256Z"/><polygon class="cls-5" points="236.3 426.2 236.3 426.1 234.9 426.1 234.9 423.5 234.9 421.4 234.9 419.1 234.9 417 234.9 414.6 234.9 412.5 234.9 410.2 234.9 408 234.9 405.7 234.9 403.6 234.9 401.2 234.9 399.1 234.9 397.8 234.5 397.8 233.7 397.8 232.6 397.8 230.7 397.8 229.9 397.8 228.8 397.8 226.9 397.8 226.1 397.8 225 397.8 223.1 397.8 222.2 397.8 221.1 397.8 219.2 397.8 218.4 397.8 217.3 397.8 215.4 397.8 214.6 397.8 213.5 397.8 211.6 397.8 210.7 397.8 209.6 397.8 207.7 397.8 206.9 397.8 205.8 397.8 204.8 397.8 204.3 397.8 203.9 397.8 203.1 397.8 202 397.8 201.5 397.8 201.1 397.8 200.8 397.8 200.8 399.1 200.8 401.2 200.8 403.6 200.8 405.7 200.8 408 200.8 410.2 200.8 412.5 200.8 414.6 200.8 417 200.8 419.1 200.8 421.4 200.8 423.5 200.8 426.1 200.2 426.1 199.4 426.1 199.4 426.2 199.1 426.2 199.1 427.9 199.1 428.3 199.1 430.6 199.1 432.8 199.1 435.1 199.1 437.2 199.1 439.6 199.1 441.7 199.1 444 199.1 446.1 199.1 448.5 199.1 450.6 199.1 452.9 199.1 455.1 199.1 457.4 199.1 459.6 199.1 461.8 199.1 464.1 199.1 466.3 199.1 468.5 199.1 470.8 199.1 473 199.1 475.2 199.1 477.5 199.1 479.8 199.1 481.9 199.1 484.2 199.1 486.4 199.1 488.7 199.1 490.8 199.1 493.2 199.1 495.3 199.1 497.6 199.1 499.8 199.1 502.1 199.1 504.2 199.1 506.5 199.1 508.7 199.1 511 199.1 513.1 199.1 515.5 199.1 517.6 199.1 519.9 199.1 521.3 191.2 521.3 191.2 529.1 199.1 529.1 200.2 529.1 201 529.1 202 529.1 203.1 529.1 203.9 529.1 205.8 529.1 206.9 529.1 207.7 529.1 209.6 529.1 210.7 529.1 211.6 529.1 213.5 529.1 214.6 529.1 215.4 529.1 217.3 529.1 218.4 529.1 219.2 529.1 221.1 529.1 222.2 529.1 223.1 529.1 225 529.1 226.1 529.1 228.8 529.1 229.9 529.1 230.7 529.1 232.6 529.1 233.7 529.1 234.5 529.1 235.5 529.1 236.3 529.1 236.6 529.1 236.6 521.3 236.6 519.9 236.6 517.6 236.6 515.5 236.6 513.1 236.6 511 236.6 508.7 236.6 506.5 236.6 504.2 236.6 502.1 236.6 499.8 236.6 497.6 236.6 495.3 236.6 493.2 236.6 490.8 236.6 488.7 236.6 486.4 236.6 484.2 236.6 481.9 236.6 479.8 236.6 477.5 236.6 475.2 236.6 473 236.6 470.8 236.6 468.5 236.6 466.3 236.6 464.1 236.6 461.8 236.6 459.6 236.6 457.4 236.6 455.1 236.6 452.9 236.6 450.6 236.6 448.5 236.6 446.1 236.6 444 236.6 441.7 236.6 439.6 236.6 437.2 236.6 435.1 236.6 432.8 236.6 430.6 236.6 428.3 236.6 427.9 236.6 426.2 236.3 426.2"/><path class="cls-5" d="M370.4,387.9h0l-4.2-4v-.1H366l-.7-.7-2.6-2.4h0l-15.3-14.1-.1-.2h0l-3.7-3.4-.1-.1s-.6-.6-.9-.6h-.5a.56.56,0,0,0-.5.6c0,.1,0,.1.1.2V529.2h13.7v.1h5.7v-.1h11.1v.1h5.7v-.1h11.6V405.8Zm-14.3-7.1-5.1-8.2,7,8.2Zm-1.4,0h-1.9l-3.2-8.2Zm6.6,0h-1.9l-6.9-8.1Zm-15.5-14.3h0l-2.8,5.9V364Zm-2.8,8.1,3.3-6.9,5,13.1H343Z"/><polygon class="cls-5" points="513.5 505.8 513.5 505.8 513.5 505.8 513.5 448.8 515 448.8 515 446.5 513.5 446.5 513.5 433.1 513.5 433.1 512 433.1 511.9 433.1 511.9 364.5 510.8 364.5 509.9 364.5 509.4 364.5 509.4 364.5 508.5 364.5 508.5 326.8 508.5 320.9 508.3 320.9 507.5 320.9 504.2 316.6 504.1 316.6 488.9 297.9 470.3 320.9 469.4 320.9 469.4 326.8 469.4 364.5 468.7 364.5 468.3 364.5 468.1 364.5 467.2 364.5 466.1 364.5 466.1 433.1 466 433.1 464.5 433.1 464.5 446.5 463.1 446.5 463.1 448.8 464.5 448.8 464.5 451.1 464.5 452.5 464.5 454.1 464.5 456.2 464.5 457.9 464.5 459.9 464.5 461.6 464.5 463.7 464.5 465.4 464.5 467.3 464.5 469 464.5 471.1 464.5 472.8 464.5 474.8 464.5 476.5 464.5 478.6 464.5 480.2 464.5 482.2 464.5 483.9 464.5 486 464.5 487.7 464.5 489.7 464.5 491.4 464.5 493.4 464.5 495.1 464.5 497.1 464.5 498.8 464.5 500.9 464.5 502.6 464.5 504.6 464.5 505.8 461.6 505.8 461.6 522.1 461.6 523.8 461.6 524.6 461.6 528.7 466 528.7 466.1 528.7 466.1 529.3 483.3 529.3 485.1 529.3 485.8 529.3 488.3 529.3 489 529.3 491.5 529.3 492.1 529.3 494 529.3 511.9 529.3 511.9 528.7 515.9 528.7 515.9 524.6 515.9 523.8 515.9 522.1 515.9 505.8 513.5 505.8"/><path class="cls-4" d="M404.9,528.8c-.7-15.4-13.5-27.4-28.4-26.6-14,.7-25.1,12.2-25.8,26.6Z"/><polygon class="cls-5" points="653.9 342.5 653.9 340.4 608.3 340.4 608.3 342.5 601.7 342.5 601.7 529.1 608.3 529.1 609.8 529.1 652.7 529.1 653.9 529.1 653.9 529.3 660.8 529.3 660.8 529.1 660.8 351.9 660.8 342.5 653.9 342.5"/><polygon class="cls-6" points="173.4 414.7 173 414.7 119.9 414.7 118.8 414.7 118.5 414.7 118.5 417.4 118.5 418.2 118.5 420 118.5 420.7 118.5 422.5 118.5 423.2 118.5 425.1 118.5 425.9 118.5 427.7 118.5 428.4 118.5 430.2 118.5 430.9 118.5 432.8 118.5 433.6 118.5 435.4 118.5 436.1 118.5 437 118.5 437.9 118.5 438.6 118.5 440.5 118.5 441.3 118.5 443.1 118.5 443.8 118.5 445.6 118.5 446.4 118.5 448.3 118.5 449 118.5 450.8 118.5 451.5 118.5 453.3 118.5 454.1 118.5 456 118.5 456.7 118.5 458.5 118.5 459.2 118.5 461 118.5 461.8 118.5 463.7 118.5 464.4 118.5 466.2 118.5 466.9 118.5 468.7 118.5 469.6 118.5 471.4 118.5 472.1 118.5 473.9 118.5 474.6 118.5 476.4 118.5 477.3 118.5 479.1 118.5 479.8 118.5 481.6 118.5 482.4 118.5 484.1 118.5 485 118.5 486.8 118.5 487.5 118.5 489.3 118.5 490.1 118.5 491.9 118.5 492.7 118.5 494.5 118.5 495.2 118.5 497 118.5 497.8 118.5 499.6 118.5 500.4 118.5 502.2 118.5 502.9 118.5 504.7 118.5 505.5 118.5 507.4 118.5 508.1 118.5 509.9 118.5 510.6 118.5 512.4 118.5 513.2 118.5 515.1 118.5 515.8 118.5 517.6 118.5 518.3 118.5 520.1 118.5 520.9 118.5 522.8 118.5 523.5 118.5 525.3 118.5 526.1 118.5 527.9 118.5 528.6 118.5 530.5 118.5 531.2 118.5 531.3 119.7 531.3 119.7 531.3 120.4 531.3 120.4 531.3 122.1 531.3 122.1 531.3 122.8 531.3 122.8 531.3 124.5 531.3 124.5 531.3 125.2 531.3 125.2 531.3 126.8 531.3 126.8 531.3 127.5 531.3 127.5 531.3 129.2 531.3 129.2 531.3 129.9 531.3 129.9 531.3 131.5 531.3 131.5 531.3 132.2 531.3 132.2 531.3 133.8 531.3 133.8 531.3 134.5 531.3 134.5 531.3 136.2 531.3 136.2 531.3 136.9 531.3 136.9 531.3 138.5 531.3 138.5 531.3 139.2 531.3 139.2 531.3 140.8 531.3 140.8 531.3 141.5 531.3 141.5 531.3 143.2 531.3 143.2 531.3 143.9 531.3 143.9 531.3 145.5 531.3 145.5 531.3 146.2 531.3 146.2 531.3 146.3 531.3 147.8 531.3 147.8 531.3 148.5 531.3 148.5 531.3 150.2 531.3 150.2 531.3 150.9 531.3 150.9 531.3 152.5 531.3 152.5 531.3 153.2 531.3 153.2 531.3 154.8 531.3 154.8 531.3 155.5 531.3 155.5 531.3 157.2 531.3 157.2 531.3 157.9 531.3 157.9 531.3 159.5 531.3 159.5 531.3 160.2 531.3 160.2 531.3 161.8 531.3 161.8 531.3 162.5 531.3 162.5 531.3 164.2 531.3 164.2 531.3 164.9 531.3 164.9 531.3 166.5 531.3 166.5 531.3 167.2 531.3 167.2 531.3 168.9 531.3 168.9 531.3 169.5 531.3 169.5 531.3 171.2 531.3 171.2 531.3 171.9 531.3 171.9 531.3 173.4 531.3 173.4 531.3 174 531.3 174 531.3 174 531.2 174 530.5 174 528.6 174 527.9 174 526.1 174 525.3 174 523.5 174 522.8 174 520.9 174 520.1 174 518.3 174 517.6 174 515.8 174 515.1 174 513.2 174 512.4 174 510.6 174 509.9 174 508.1 174 507.4 174 505.5 174 504.7 174 502.9 174 502.2 174 500.4 174 499.6 174 497.8 174 497 174 495.2 174 494.5 174 492.7 174 491.9 174 490.1 174 489.3 174 487.5 174 486.8 174 485 174 484.1 174 482.4 174 481.6 174 479.8 174 479.1 174 477.3 174 476.4 174 474.6 174 473.9 174 472.1 174 471.4 174 469.6 174 468.7 174 466.9 174 466.2 174 464.4 174 463.7 174 461.8 174 461 174 459.2 174 458.5 174 456.7 174 456 174 454.1 174 453.3 174 451.5 174 450.8 174 449 174 448.3 174 446.4 174 445.6 174 443.8 174 443.1 174 441.3 174 440.5 174 438.6 174 437.9 174 437 174 436.1 174 435.4 174 433.6 174 432.8 174 430.9 174 430.2 174 428.4 174 427.7 174 425.9 174 425.1 174 423.2 174 422.5 174 420.7 174 420 174 418.2 174 417.4 174 414.7 173.4 414.7"/><path class="cls-6" d="M61.4,405h-.1v-.8H54.1v-4.5H27.2v4.5H20v.8h-.6V511.79q3.17,9.62,6.8,19h1v.1h.4v-.1h1.6v.1h.4v-.1h1.6v.1h.4v-.1h1.6v.1h.4v-.1H34v.1h.4v-.1h.9v.1h.3v-.1h.5v.1h.3v-.1h.9v.1h.4v-.1h.4v.1h.3v-.1h.9v.1h.4v-.1h.4v.1h.3v-.1h.9v.1h.4v-.1h.4v.1h.4v-.1h.8v.1h.4v-.1h.4v.1h.4v-.1h.8v.1h.4v-.1h.4v.1h.4v-.1h.8v.1h.4v-.1h.4v.1h.4v-.1h.8v.1h.4v-.1h1.6v.1h.4v-.1h1.7v.1h.3v-.1h1.7v.1h.3v-.1h1.7v.1h.4v-.1h1.6v.1h.4v-.1h.8v.1h.6v-.1h.2v.1h.4v-.1h.1V405h-.5Z"/><path class="cls-6" d="M314.7,499.2h-.4l-9.9-4.9h0l-6.5,3.1v-3.1h.4v-1.1h-.4v-1.1H280.3v1.1h-.4v1.1h.4v3.2h-2.5l-1-.6h.1v-5.2h-.3v-2.2h-2.7v-2.9h.8v-2.4h-1.1V484h-.5v-9.1h.5v-1.2h.2v-1.1h.2v-1.1h.3v-1.1h.2v-.7h-1.1v-.3H272l.6-.9h-1.1v-.3h-.4v-4h.4V463h-.9v-.4h.2v-.2h-.3a16,16,0,0,0-5.3-10l-1.9-1.7h0l-.1-.1-.4-.4h.3V449h-.7v-.2H262v-.4h-.2v-.9h.2v-.4h-1.2v-2.7h.2V444h.4v-.4h-.2a3.5,3.5,0,0,0-1.4-2.8h0v-.4h.1v-.5h-.2v-.3h-1v-1.3a.52.52,0,0,0-.2-.4c0-.1.1-.1.1-.2v-.3c0-.2-.1-.3-.2-.3s-.3.1-.3.2v.4c0,.1,0,.1.1.2a.52.52,0,0,0-.2.4v1.3h-1v.3h-.3v.5h.1v.4h0a3.37,3.37,0,0,0-1.4,2.8h-.3v.4h.4v.3h.3v2.8h-1.2v.4h.2v.9h-.2v.4h-.2v.2h-.8v1.1h.4l-.5.4-.1.1h0l-1.8,1.7a15.71,15.71,0,0,0-5.3,10H246v.2h.3v.4h-1.1v1.2h.5v4h-.5v.3h-1l.6.9h-1.5v.3h-1.1v.6h.2v1.1h.3v1.1h.1v1.1h.2v1.2h.5v9.1H243v.2h-.5v1.6h-.2v.8h.7v2.9h-2.6v2.2h-.6v5.2h.1l-1,.6h-2.5v-2.2h0V494h.4v-1.1h-.4V492H218.8v1.1h-.4v1.1h.4v3.1l-6.5-3.2h0l-9.9,4.9H202v1.8h.4v.7h1.3v17.8h-.6v1.1h.6v10.9H313V520.5h.6v-1.1H313V501.7h1.3V501h.5v-1.8Zm-56.1,2.6,15.9,0-.1-16h-.3v-1.1h.3Zm-.5-1v1.1h-.2v-1.1Zm-12.5-37.1v.9h-.6v-.9Zm-6.2,0h.6v.9h-.6Zm-12.4,38.1v-1.1h.2v1.1Zm-30.5,16"/><polygon class="cls-6" points="366.9 493.1 366 493.1 366 492.5 364.7 492.5 364.7 493.1 359.2 493.1 358.1 493.1 358.1 492.5 356.7 492.5 356.7 493.1 355.8 493.1 355.8 512.7 344.9 509.7 344.9 509.7 345 509.7 345 508.8 345.1 508.8 345.1 508 337.4 508 337.4 508.8 337.6 508.8 337.6 509.7 337.6 509.7 329.9 512.2 329.9 503.5 329.9 503.5 329.6 503.5 329.6 502.6 329.6 502.6 328.9 502.6 328.1 502.6 328.1 503.5 327.8 503.5 327.8 512.9 325.8 513.6 325.8 514.5 326.1 514.4 326.1 515.8 323.9 523.5 323.9 530.9 326.1 530.9 326.1 530.9 326.6 530.9 326.6 530.9 327.1 530.9 327.1 530.9 328.5 530.9 330.2 530.9 330.2 530.9 333.1 530.9 333.1 530.9 334.5 530.9 336.3 530.9 336.3 530.9 336.6 530.9 336.6 530.9 337.8 530.9 337.8 530.9 344.4 530.9 344.4 530.9 345.5 530.9 345.5 530.9 348.1 530.9 348.1 530.9 349.4 530.9 351.2 530.9 351.2 530.9 354.1 530.9 354.1 530.9 355.5 530.9 355.5 530.9 355.8 530.9 356.3 530.9 356.4 530.9 356.7 530.9 358.1 530.9 358.6 530.9 359.2 530.9 364.7 530.9 366 530.9 366.9 530.9 366.9 530.9 366.9 521.7 366.9 493.1"/><polygon class="cls-6" points="474.8 523.4 474.8 494.1 474.8 494.1 474.8 492.3 475.3 492.3 475.3 490.5 474.8 490.5 474.8 484.7 454.2 484.7 454.2 478.3 414.9 478.3 414.8 478.3 392.1 478.3 392.1 484.7 384.2 484.7 384.2 490.5 383.3 490.5 383.3 492.3 384.2 492.3 384.2 494.1 384.2 523.4 383.3 523.4 383.3 529.8 414.8 529.8 414.9 529.8 415.6 529.8 447.8 529.8 475.8 529.8 475.8 523.4 474.8 523.4"/><polygon class="cls-6" points="554.8 512.9 554.8 475.2 554.8 474 554.8 467.7 550.1 467.7 550.1 456 546.1 456 546.1 441.5 546.1 440.3 546.5 440.3 546.5 438.7 546.1 438.7 546.1 437.8 542.1 437.8 531.2 432 520.4 437.8 516.4 437.8 516.4 438.7 516 438.7 516 440.3 516.4 440.3 516.4 441.5 516.4 456 512.4 456 512.4 467.4 507.6 467.4 507.6 474 507.6 475.2 507.6 512.9 489.5 512.9 489.5 529.8 518.4 529.8 519 529.8 520.7 529.8 520.7 529.8 521.6 529.8 525.6 529.8 525.6 529.8 525.9 529.8 527.2 529.8 527.6 529.8 527.6 529.8 528.1 529.8 534.8 529.8 535 529.8 536.5 529.8 537.4 529.8 541.3 529.8 541.4 529.8 541.7 529.8 543 529.8 543.8 529.8 544.2 529.8 573 529.8 573 526.6 573 523.6 573 520.8 573 517.8 573 512.9 554.8 512.9"/><rect class="cls-6" x="628.3" y="404.3" width="64.4" height="125.2"/><rect class="cls-7" x="630.9" y="404.3" width="0.8" height="125.2"/><rect class="cls-8" x="631.7" y="404.3" width="0.8" height="125.2"/><rect class="cls-7" x="635.5" y="404.3" width="0.8" height="125.2"/><rect class="cls-8" x="636.4" y="404.3" width="0.8" height="125.2"/><rect class="cls-7" x="644" y="404.3" width="0.8" height="125.2"/><rect class="cls-8" x="644.9" y="404.3" width="0.8" height="125.2"/><rect class="cls-7" x="652.9" y="404.3" width="0.8" height="125.2"/><rect class="cls-8" x="653.7" y="404.3" width="0.8" height="125.2"/><rect class="cls-7" x="661.1" y="404.3" width="0.8" height="125.2"/><rect class="cls-8" x="662" y="404.3" width="0.8" height="125.2"/><rect class="cls-7" x="669.3" y="404.3" width="0.8" height="125.2"/><rect class="cls-8" x="670.2" y="404.3" width="0.8" height="125.2"/><rect class="cls-7" x="677.5" y="404.3" width="0.8" height="125.2"/><rect class="cls-8" x="678.4" y="404.3" width="0.8" height="125.2"/><rect class="cls-7" x="684.8" y="404.3" width="0.8" height="125.2"/><rect class="cls-8" x="685.7" y="404.3" width="0.8" height="125.2"/><rect class="cls-7" x="628.3" y="408.7" width="64.3" height="1.4"/><rect class="cls-8" x="628.3" y="410.2" width="64.3" height="1.4"/><rect class="cls-7" x="628.3" y="421.9" width="64.3" height="1.4"/><rect class="cls-8" x="628.3" y="423.3" width="64.3" height="1.4"/><rect class="cls-7" x="628.3" y="435" width="64.3" height="1.4"/><rect class="cls-8" x="628.3" y="436.4" width="64.3" height="1.4"/><rect class="cls-7" x="628.3" y="448.1" width="64.3" height="1.4"/><rect class="cls-8" x="628.3" y="449.5" width="64.3" height="1.4"/><rect class="cls-7" x="628.3" y="461.2" width="64.3" height="1.4"/><rect class="cls-8" x="628.3" y="462.7" width="64.3" height="1.4"/><rect class="cls-7" x="628.3" y="474.3" width="64.3" height="1.4"/><rect class="cls-8" x="628.3" y="475.7" width="64.3" height="1.4"/><rect class="cls-7" x="628.3" y="487.5" width="64.3" height="1.4"/><rect class="cls-8" x="628.3" y="488.8" width="64.3" height="1.4"/><rect class="cls-7" x="628.3" y="502.4" width="64.3" height="1.4"/><rect class="cls-8" x="628.3" y="503.8" width="64.3" height="1.4"/><rect class="cls-7" x="628.3" y="517.4" width="64.3" height="1.4"/><rect class="cls-8" x="628.3" y="518.8" width="64.3" height="1.4"/><rect class="cls-7" x="639.9" y="404.3" width="0.8" height="125.2"/><rect class="cls-8" x="640.7" y="404.3" width="0.8" height="125.2"/><rect class="cls-7" x="648.9" y="404.3" width="0.8" height="125.2"/><rect class="cls-8" x="649.7" y="404.3" width="0.8" height="125.2"/><rect class="cls-7" x="657" y="404.3" width="0.8" height="125.2"/><rect class="cls-8" x="657.8" y="404.3" width="0.8" height="125.2"/><rect class="cls-7" x="665" y="404.3" width="0.8" height="125.2"/><rect class="cls-8" x="665.8" y="404.3" width="0.8" height="125.2"/><rect class="cls-7" x="673.2" y="404.3" width="0.8" height="125.2"/><rect class="cls-8" x="674" y="404.3" width="0.8" height="125.2"/><rect class="cls-7" x="681.4" y="404.3" width="0.8" height="125.2"/><rect class="cls-8" x="682.2" y="404.3" width="0.8" height="125.2"/><rect class="cls-7" x="688.2" y="404.3" width="0.8" height="125.2"/><rect class="cls-8" x="689.1" y="404.3" width="0.8" height="125.2"/><polygon class="cls-6" points="660.5 437.5 628.3 407.1 628.3 404.3 660.5 434.7 660.5 437.5"/><polygon class="cls-6" points="660.5 437.5 692.7 407.1 692.7 404.3 660.5 434.7 660.5 437.5"/><rect class="cls-6" x="633.5" y="404.3" width="1" height="7.3"/><rect class="cls-6" x="638.3" y="404.3" width="1" height="11.4"/><rect class="cls-6" x="642.2" y="404.3" width="1" height="14.8"/><rect class="cls-6" x="646.9" y="404.3" width="1" height="19.7"/><rect class="cls-6" x="651.1" y="404.3" width="1" height="23.6"/><rect class="cls-6" x="655.2" y="404.3" width="1" height="27.2"/><rect class="cls-6" x="659.5" y="404.3" width="1" height="30.4"/><rect class="cls-6" x="663.3" y="404.3" width="1" height="28.5"/><rect class="cls-6" x="667.6" y="404.3" width="1" height="24.6"/><rect class="cls-6" x="671.5" y="404.3" width="1" height="21.3"/><rect class="cls-6" x="675.8" y="404.3" width="1" height="17.1"/><rect class="cls-6" x="679.7" y="404.3" width="1" height="13.6"/><rect class="cls-6" x="683.4" y="404.3" width="1" height="10.6"/><rect class="cls-6" x="686.8" y="404.3" width="1" height="6.8"/><rect class="cls-6" x="690.6" y="404.3" width="1" height="3.3"/><rect class="cls-6" x="629.3" y="404.3" width="1" height="3.3"/><polygon class="cls-5" points="729.2 437.9 729 437.75 729.18 437.9 729.2 437.9"/><polygon class="cls-5" points="727.55 452.8 727.45 452.8 727.4 452.9 727.55 452.8"/><path class="cls-5" d="M748.1,478.2v-5.4H735.5v5.4h-4v-16h.2v-4.1h.3v-1.4h-.5v-.4l-.2-.4-1.1-2.3-.2-.4-.7-1.5V438l-.12-.1h-.38v-.3l.2.15-.3-.25v-3.7h-.1v.1l-.2-.1h0V432h-.2v1.8H728v3.7l-.6.5v13.4l-.7,1.5-.2.4-.3.7-1,2.1v.4h-.7v1.4h.3V462h.2v16.1h-7v12.1h-.1v31.5h-.5v7.8h36.9a386.42,386.42,0,0,0,15.4-50.1v-1.2ZM727.8,438h.2l-.2.2Zm0,1.3v-.4l.3.2v.4h-.3Zm.1.9.2-.2.1.9h-.3Zm-.1,1.4v-.4l.3.2v.3h-.3Zm.1.8.2-.2.1.9h-.3Zm-.1,1.4v-.5l.3.2v.4h-.3Zm.1,3.3.2-.2.1.9h-.3Zm0-2.4.2-.2.1.9h-.3Zm-.1,3.7V448l.3.2v.4h-.3Zm.1.9.2-.1.1.9h-.3Zm-.5,3.5h.05l.45-1,.1.1v.1l.1.1v.2l-.1.1v.1l-.45.3h.05l.5-.3v.3h0v.9l-.3-.3-.6-.4Zm.7-1.1v-.1l.1.2Zm-1,1.5.5.4.6.4v.2h-1.5Zm.4,1.9.6-.5v.9Zm.6.5v.6l-.2-.2-.3-.7Zm-.4.3-.7-.5.4-.3Zm.1.1.2.4h-1.1l-.3-.7.4-.3Zm.1.2.2.1-.1.1Zm.2-1.8-.7.5-.8-.5Zm-1.6.2.7.5-.7.5Zm-.1.3v.7l-.2-.2Zm-.3.6.3.2-.5.3Zm.3.3.2.6h-.9Zm-.7,1v-.1l.2.1Zm.4,0-.4-.3h1l.1.3Zm2.1,0H727l-.1-.3h1.3Zm0-5.3h-.3v-.1l.3-.2Zm0-.5-.3.2v-.8l.3.2Zm0-.7-.3-.1h.3Zm0-2.2-.3-.2h.3Zm0-1.5-.1.1-.2-.2h.3Zm0-.5v.2h-.3v-.6l.3.2Zm0-.4-.3-.2h.3Zm0-2.3-.3-.2h.3Zm0-1.4-.1.1-.2-.2h.3Zm0-.8-.3-.2h.3Zm0-1.4-.1.1-.2-.2h.3Zm0-1-.3-.2h.3Zm0-.3h-.3l.3-.2Zm0-.6h-.4l.4-.3Zm.4-.7h0l-.2.1v-.1h0V437h.2Zm0-.4-.2-.1h.2Zm0-.2-.2-.1h.2Zm0-.2-.2-.1h.2Zm0-.3-.2-.1h.2Zm0-.2-.2-.1h.2Zm0-.3-.2-.1h.2Zm0-.2-.2-.1h.2Zm0-.4v.1l-.2-.1v-.2h.2Zm0-.4-.2-.1h.2Zm0-.2-.2-.1h.2Zm0-.2-.2-.1h.2Zm1.9,20.6.3.7-.3.1Zm-.4-1.3.3.6h-1.5v-.2l.6-.4h-.1l.5-.4Zm-.2,1.9-.6.5.2-.7Zm-.3-.3.7-.5v1Zm.4.4.4.3-.3.6H729l.2-.4Zm-.8-2h.1l-.4.3v-.9h.7l.2.1Zm.5-.7-.6-.4v-.6l.1-.1Zm-.5-1.6-.3-.3v-.4l.3-.3v.4l.1.1Zm-.2-11.4-.1-.1v-.1h.3Zm.1,0v.2l-.1-.1Zm-.1.2.2.2v.7h-.3v-.8Zm0,2-.1-.1v-.1h.3Zm.1,0v.2l-.1-.1Zm-.1.2.2.2v.7h-.3v-.8Zm0,2.1-.1-.1v-.1h.3Zm.1,0v.2l-.1-.1Zm-.1.2.2.2v.7h-.3v-.8Zm0,2.1-.1-.1v-.1h.3Zm.1,0v.2l-.1-.1Zm-.1.2.2.2v.7h-.3v-.8Zm.1,2.2v.2l-.1-.1Zm-.2-.1v-.1h.3l-.2.2Zm.2-10.8v.2l-.3-.2Zm-.3.1.3.2-.3.1Zm0,.4h.3l-.3.2Zm0,.4.4-.3v.6h-.4Zm0,2h.3l-.3.2Zm0,.6v-.2l.3-.3v.6h-.3Zm0,1.6h.3l-.3.2Zm0,.6v-.2l.3-.3v.7h-.3Zm0,1.7h.3l-.3.3Zm0,.6V446l.3-.3v.6h-.3Zm0,2.3v-.2l.3-.3-.3.2v-.2h.3v.7h-.3Zm0,.8.1-.1.2.2v.7h-.3Zm0,.9h.3l-.3.3Zm0,1,.3.3h-.3Zm.1.6v.1l-.1.1v-.2Zm-.1.4.1-.1v.4l-.1-.1Zm0,.3.6.4h-.6Zm0,2h1.5l-.8.6-.7-.5Zm0,.2.6.4-.6.4Zm0,1,.5-.3-.3.7-.2.2Zm0,.7.2-.1-.2.2Zm0,.5v-.3h1.3l-.1.3Zm2.4,0h-.1l.1-.1Zm-.4,0h-.7l.1-.3h1Zm-.6-.5.3-.5.7.5Zm.4-.6.3-.2.3.6Z"/><path class="cls-4" d="M185,528.8c-.7-16.2-14-28.8-29.8-28.2-14.8.7-26.7,12.9-27.3,28.2Z"/><path class="cls-4" d="M90.7,528.7c-.7-16.2-14-28.8-29.8-28.2-14.8.7-26.7,12.9-27.3,28.2Z"/><path class="cls-3" d="M67.2,523a7.64,7.64,0,0,1-7.6,7.8,7.73,7.73,0,0,1-7.6-7.9,7.64,7.64,0,0,1,7.6-7.8,7.79,7.79,0,0,1,7.6,7.9Z"/><path class="cls-3" d="M177.2,524.2a5.34,5.34,0,0,1-5.2,5.4,5.4,5.4,0,0,1,0-10.8h0A5.4,5.4,0,0,1,177.2,524.2Z"/><path class="cls-3" d="M51.1,519.3a12.72,12.72,0,0,1-12.5,12.9,12.91,12.91,0,0,1,0-25.8h0A12.72,12.72,0,0,1,51.1,519.3Z"/><path class="cls-3" d="M377.8,528.1a12.1,12.1,0,0,0-24.2,0Z"/><path class="cls-3" d="M314.6,528.9a12.1,12.1,0,0,0-24.2,0Z"/><path class="cls-4" d="M609.4,528.7a21.91,21.91,0,0,0-22.6-21.3c-11.2.5-20.1,9.7-20.6,21.3Z"/><path class="cls-3" d="M208.1,528.9a12.1,12.1,0,0,0-24.2,0Z"/><path class="cls-3" d="M611.9,523a5.14,5.14,0,0,0-3.7,1.5,5.19,5.19,0,0,0-7.3,0,5.34,5.34,0,0,0-7.5.2,4.76,4.76,0,0,0-1.4,3.4h25.1A5.35,5.35,0,0,0,611.9,523Z"/><path class="cls-2" d="M627.9,524.7a3.87,3.87,0,0,1-5.3,0,3.63,3.63,0,0,0-2.6,1.1,3.8,3.8,0,0,0-5.4.1,4,4,0,0,0-1,2.5h18A3.76,3.76,0,0,0,627.9,524.7Z"/><path class="cls-2" d="M591,524.5a3.87,3.87,0,0,1-5.3,0,3.74,3.74,0,0,1-5.2,0,3.84,3.84,0,0,0-3.8,3.7h18A3.69,3.69,0,0,0,591,524.5Z"/><path class="cls-2" d="M481.6,524.4a3.63,3.63,0,0,0-2.6,1.1,3.74,3.74,0,0,0-5.2,0,3.8,3.8,0,0,0-5.4.1,4,4,0,0,0-1,2.5h18A3.84,3.84,0,0,0,481.6,524.4Z"/><path class="cls-3" d="M389.5,522a7.6,7.6,0,1,1-7.6-7.8,7.64,7.64,0,0,1,7.6,7.8Z"/><path class="cls-4" d="M386.1,522.9a5.14,5.14,0,0,0-3.7,1.5,5.19,5.19,0,0,0-7.3,0,5.34,5.34,0,0,0-7.5.2,4.76,4.76,0,0,0-1.4,3.4h25.1A5.28,5.28,0,0,0,386.1,522.9Z"/><path class="cls-4" d="M359.7,523a5.14,5.14,0,0,0-3.7,1.5,5.19,5.19,0,0,0-7.3,0,5.34,5.34,0,0,0-7.5.2,4.76,4.76,0,0,0-1.4,3.4h25.1A5.35,5.35,0,0,0,359.7,523Z"/><path class="cls-2" d="M396.9,524.4a3.63,3.63,0,0,0-2.6,1.1,3.74,3.74,0,0,0-5.2,0,3.8,3.8,0,0,0-5.4.1,4,4,0,0,0-1,2.5h18A3.84,3.84,0,0,0,396.9,524.4Z"/><path class="cls-2" d="M350,524.4a3.63,3.63,0,0,0-2.6,1.1,3.74,3.74,0,0,0-5.2,0,3.8,3.8,0,0,0-5.4.1,4,4,0,0,0-1,2.5h18A3.78,3.78,0,0,0,350,524.4Z"/><path class="cls-2" d="M188.4,524.6a3.63,3.63,0,0,0-2.6,1.1,3.74,3.74,0,0,0-5.2,0,3.8,3.8,0,0,0-5.4.1,4,4,0,0,0-1,2.5h18A3.84,3.84,0,0,0,188.4,524.6Z"/><path class="cls-4" d="M736.5,529.5a13.3,13.3,0,0,0-26.6,0Z"/><path class="cls-3" d="M714.3,523a5.83,5.83,0,0,0-4.1,1.7,5.8,5.8,0,0,0-8.1,0,5.77,5.77,0,0,0-8.3.3,6,6,0,0,0-1.6,3.9h28A6.11,6.11,0,0,0,714.3,523Z"/><path class="cls-2" d="M699.9,524.6a3.87,3.87,0,0,1-5.3,0,3.74,3.74,0,0,1-5.2,0,3.84,3.84,0,0,0-3.8,3.7h18A3.69,3.69,0,0,0,699.9,524.6Z"/><path class="cls-2" d="M726.8,524.6a3.87,3.87,0,0,1-5.3,0,3.74,3.74,0,0,1-5.2,0,3.84,3.84,0,0,0-3.8,3.7h18A3.69,3.69,0,0,0,726.8,524.6Z"/><path class="cls-9" d="M32.72,546.6H747.28q4.15-9.47,7.82-19.2H24.9Q28.56,537.12,32.72,546.6Z"/></g></g><g id="Text"><g id="Text_White" data-name="Text White"><text class="cls-10" transform="translate(314.93 747.4) rotate(10.5)">S</text><text class="cls-10" transform="matrix(0.99, 0.15, -0.15, 0.99, 331.81, 750.44)">i</text><text class="cls-10" transform="matrix(0.99, 0.12, -0.12, 0.99, 339.59, 751.65)">n</text><text class="cls-10" transform="translate(354.9 753.43) rotate(4.36)">c</text><text class="cls-10" transform="translate(369.52 754.53) rotate(2.06)">e</text><text class="cls-10" transform="translate(384.06 754.97) rotate(0.93)"> </text><text class="cls-10" transform="translate(392.16 755.13) rotate(-1.68)">2</text><text class="cls-10" transform="translate(410.47 754.59) rotate(-4.61)">0</text><text class="cls-10" transform="translate(429.9 753) rotate(-7.66)">0</text><text class="cls-10" transform="translate(449.22 750.36) rotate(-10.65)">4</text><text class="cls-11" transform="translate(123.95 612.84) scale(0.6 1)">Atlanta Developers Conference</text><text class="cls-12" transform="translate(203.36 222.69) rotate(-43.9) scale(0.75 1.25)">A</text><text class="cls-12" transform="translate(231.56 196.03) rotate(-35.74) scale(0.75 1.25)">T</text><text class="cls-12" transform="matrix(0.66, -0.35, 0.58, 1.11, 260.46, 175.65)">L</text><text class="cls-12" transform="matrix(0.7, -0.27, 0.45, 1.16, 291.47, 160.04)"> </text><text class="cls-12" transform="translate(312.64 152.07) rotate(-16.03) scale(0.75 1.25)"> </text><text class="cls-12" transform="translate(333.42 145.65) rotate(-8.45) scale(0.75 1.25)">D</text><text class="cls-12" transform="translate(376.37 139.95) rotate(0.28) scale(0.75 1.25)">E</text><text class="cls-12" transform="matrix(0.74, 0.12, -0.2, 1.23, 411.25, 140.2)">V</text><text class="cls-12" transform="matrix(0.72, 0.21, -0.36, 1.2, 453.02, 147.88)"> </text><text class="cls-12" transform="matrix(0.7, 0.28, -0.46, 1.16, 474.62, 154.54)"> </text><text class="cls-12" transform="matrix(0.65, 0.37, -0.61, 1.09, 495.02, 162.25)">C</text><text class="cls-12" transform="matrix(0.58, 0.47, -0.79, 0.97, 531.85, 183.12)">O</text><text class="cls-12" transform="translate(565.84 211.2) rotate(49.03) scale(0.75 1.25)">N</text><text class="cls-13" transform="translate(289.11 144.47) rotate(-19.29)"></text><text class="cls-13" transform="matrix(0.97, -0.25, 0.25, 0.97, 314.37, 135.73)"> </text><text class="cls-13" transform="translate(332.76 130.98) rotate(-10.11)"> </text><text class="cls-13" transform="translate(351.48 127.57) rotate(-5.99)"> </text><text class="cls-13" transform="translate(370.38 125.5) rotate(-1.92)"> </text><text class="cls-13" transform="translate(389.39 124.79) rotate(2.12)"> </text><text class="cls-13" transform="translate(408.38 125.42) rotate(6.19)"> </text><text class="cls-13" transform="translate(427.3 127.39) rotate(10.31)"> </text><text class="cls-13" transform="matrix(0.97, 0.25, -0.25, 0.97, 445.99, 130.71)"> </text><text class="cls-13" transform="translate(464.28 135.16) rotate(19.29)"></text></g></g></svg>